<svg width="18" height="18" viewBox="0 0 18 18" fill="none" xmlns="http://www.w3.org/2000/svg">
<path d="M13.1797 9C13.1797 9.23438 13.0885 9.42969 12.9062 9.58594C12.75 9.74219 12.5547 9.82031 12.3203 9.82031H4L0.679688 13.1797V1.5C0.679688 1.26562 0.757812 1.07031 0.914062 0.914062C1.07031 0.757812 1.26562 0.679688 1.5 0.679688H12.3203C12.5547 0.679688 12.75 0.757812 12.9062 0.914062C13.0885 1.07031 13.1797 1.26562 13.1797 1.5V9ZM16.5 4C16.7344 4 16.9297 4.07812 17.0859 4.23438C17.2422 4.39062 17.3203 4.58594 17.3203 4.82031V17.3203L14 14H4.82031C4.58594 14 4.39062 13.9219 4.23438 13.7656C4.07812 13.6094 4 13.4141 4 13.1797V11.5H14.8203V4H16.5Z" fill="url(#paint0_linear_62_246)"/>
<defs>
<linearGradient id="paint0_linear_62_246" x1="-2" y1="1" x2="22" y2="16" gradientUnits="userSpaceOnUse">
<stop stop-color="#E42833"/>
<stop offset="1" stop-color="#B50EAE"/>
</linearGradient>
</defs>
</svg>
