<svg width="19" height="14" viewBox="0 0 19 14" fill="none" xmlns="http://www.w3.org/2000/svg">
<path d="M7.74219 5.24219C8.23698 4.7474 8.82292 4.5 9.5 4.5C10.1771 4.5 10.763 4.7474 11.2578 5.24219C11.7526 5.73698 12 6.32292 12 7C12 7.67708 11.7526 8.26302 11.2578 8.75781C10.763 9.2526 10.1771 9.5 9.5 9.5C8.82292 9.5 8.23698 9.2526 7.74219 8.75781C7.2474 8.26302 7 7.67708 7 7C7 6.32292 7.2474 5.73698 7.74219 5.24219ZM6.53125 9.96875C7.36458 10.776 8.35417 11.1797 9.5 11.1797C10.6458 11.1797 11.6224 10.776 12.4297 9.96875C13.263 9.13542 13.6797 8.14583 13.6797 7C13.6797 5.85417 13.263 4.8776 12.4297 4.07031C11.6224 3.23698 10.6458 2.82031 9.5 2.82031C8.35417 2.82031 7.36458 3.23698 6.53125 4.07031C5.72396 4.8776 5.32031 5.85417 5.32031 7C5.32031 8.14583 5.72396 9.13542 6.53125 9.96875ZM3.91406 2.46875C5.58073 1.32292 7.44271 0.75 9.5 0.75C11.5573 0.75 13.4193 1.32292 15.0859 2.46875C16.7526 3.61458 17.9505 5.125 18.6797 7C17.9505 8.875 16.7526 10.3854 15.0859 11.5312C13.4193 12.6771 11.5573 13.25 9.5 13.25C7.44271 13.25 5.58073 12.6771 3.91406 11.5312C2.2474 10.3854 1.04948 8.875 0.320312 7C1.04948 5.125 2.2474 3.61458 3.91406 2.46875Z" fill="url(#paint0_linear_36_94)"/>
<defs>
<linearGradient id="paint0_linear_36_94" x1="4.5" y1="2" x2="17.5" y2="11.5" gradientUnits="userSpaceOnUse">
<stop stop-color="#E42833"/>
<stop offset="1" stop-color="#B50EAE"/>
</linearGradient>
</defs>
</svg>
