<svg width="412" height="177" viewBox="0 0 412 177" fill="none" xmlns="http://www.w3.org/2000/svg">
<g clip-path="url(#clip0_694_125)">
<path d="M125.412 156.772C120.633 159.14 116.421 159.46 112.775 157.733C109.204 155.782 105.643 151.223 102.09 144.054C100.536 140.918 98.2331 138.898 95.1804 137.992C92.277 137.013 89.0729 136.74 85.5681 137.175C82.1387 137.386 78.7073 138.157 75.2739 139.486C71.9158 140.592 69.042 141.737 66.6526 142.921L64.3016 143.807L57.1334 147.359C53.6986 149.061 50.1925 149.868 46.6151 149.781C43.113 149.47 40.4 147.374 38.476 143.491C35.4419 137.368 39.1679 106.412 49.654 50.6217C52.2395 36.32 55.9216 27.9852 60.7004 25.6171C65.1806 23.3971 68.8326 23.4475 71.6567 25.7682C73.2174 27.041 78.5118 36.7869 87.5398 55.0061C96.5679 73.2252 102.939 84.2049 106.652 87.945C110.364 92.0578 114.23 94.9786 118.248 96.7073C119.513 97.3827 121.263 97.9107 123.497 98.2914C126.029 98.8968 127.591 99.7968 128.183 100.991L128.627 101.888C130.699 106.069 130.719 110.988 128.686 116.646C126.43 122.228 125.672 125.766 126.412 127.259L130.414 133.646C135.89 144.697 134.223 152.406 125.412 156.772ZM65.1693 57.721L64.0593 55.4809C63.3153 55.1055 62.1012 61.1013 60.417 73.4683C58.8069 85.9846 56.9728 98.6119 54.9146 111.35C52.8565 124.088 51.9754 130.756 52.2714 131.354C52.6414 132.1 53.9464 131.919 56.1865 130.809L69.6269 124.149C80.5285 118.747 86.541 115.302 87.6644 113.815C88.4137 112.7 88.3821 111.135 87.5694 109.119C86.9061 107.03 86.2784 105.388 85.6864 104.193L83.3574 98.9301L82.4694 97.138L79.4764 89.9718L78.1444 87.2838L70.8263 70.2633L70.0493 68.6953L65.1693 57.721Z" fill="url(#paint0_linear_694_125)"/>
<path d="M334.757 158.311C329.527 157.265 325.997 154.945 324.166 151.35C322.532 147.624 322.499 141.838 324.067 133.993C324.753 130.561 324.164 127.554 322.301 124.972C320.601 122.423 318.231 120.25 315.191 118.452C312.348 116.524 309.16 115.037 305.63 113.991C302.296 112.815 299.322 111.965 296.707 111.442L294.304 110.707L286.46 109.139C282.701 108.388 279.432 106.884 276.653 104.629C274.071 102.243 273.204 98.9257 274.054 94.6765C275.394 87.9757 297.259 65.7474 339.649 27.9914C350.435 18.25 358.442 13.9021 363.672 14.9476C368.575 15.9278 371.435 18.1992 372.253 21.7619C372.711 23.723 370.947 34.673 366.961 54.6118C362.975 74.5506 361.309 87.1349 361.963 92.3646C362.388 97.8885 363.663 102.563 365.788 106.387C366.377 107.694 367.439 109.181 368.976 110.848C370.61 112.874 371.297 114.541 371.035 115.849L370.839 116.829C369.924 121.405 366.934 125.312 361.868 128.548C356.671 131.588 353.909 133.926 353.583 135.56L352.848 143.061C350.43 155.155 344.4 160.239 334.757 158.311ZM347.593 43.0917L348.083 40.6402C347.724 39.8884 343.099 43.8928 334.209 52.6535C325.286 61.5775 316.119 70.4525 306.706 79.2786C297.293 88.1046 292.521 92.8445 292.391 93.4982C292.227 94.3154 293.371 94.969 295.823 95.4591L310.532 98.3996C322.462 100.785 329.327 101.732 331.124 101.241C332.399 100.816 333.33 99.558 333.919 97.466C334.67 95.4067 335.177 93.7234 335.438 92.4159L336.81 86.8265L337.203 84.8653L339.212 77.3637L339.8 74.4219L344.407 56.4768L344.75 54.7608L347.593 43.0917Z" fill="url(#paint1_linear_694_125)"/>
<path d="M203.761 9.41671L209.741 9.40768C215.261 9.39934 220.936 10.9241 226.767 13.982C244.415 23.3086 253.262 43.5353 253.309 74.6619L253.312 76.7319C253.324 84.3986 252.492 92.2198 250.818 100.196C249.143 108.172 246.394 115.459 242.571 122.058C238.747 128.504 233.695 133.802 227.415 137.951C221.288 142.1 213.624 144.182 204.424 144.196L200.514 144.202C194.534 144.211 188.859 142.763 183.488 139.857C177.81 136.799 173.28 132.896 169.9 128.148C166.519 123.246 163.905 118.114 162.057 112.75C160.362 107.386 159.204 101.944 158.582 96.4251C158.114 90.9058 157.876 85.9228 157.869 81.4761L157.86 75.2661C157.845 65.2995 159.134 56.0209 161.728 47.4303C164.322 38.8397 167.608 31.9347 171.587 26.7153C175.565 21.496 180.466 17.3486 186.288 14.2731C192.11 11.0443 197.934 9.42552 203.761 9.41671ZM177.639 74.3163L177.652 83.5162C177.662 89.9562 178.208 96.0121 179.29 101.684C180.372 107.355 181.989 112.336 184.143 116.626C186.449 120.763 189.137 124.056 192.207 126.504C195.431 128.953 199.113 130.174 203.253 130.168L204.633 130.166C210.153 130.157 214.597 128.31 217.965 124.625C221.486 120.787 224.239 116.183 226.224 110.813C228.209 105.443 229.504 99.8446 230.108 94.017C230.866 88.1892 231.242 83.2819 231.236 79.2953L231.224 71.4753C231.202 56.7553 228.961 45.1053 224.502 36.5254C220.195 27.7919 214.132 23.4311 206.312 23.4429L204.932 23.445C199.412 23.4533 194.815 25.3769 191.14 29.2158C187.619 32.9011 184.866 37.4286 182.881 42.7983C180.896 48.168 179.524 53.7667 178.766 59.5945C178.008 65.269 177.632 70.1763 177.639 74.3163Z" fill="url(#paint2_linear_694_125)"/>
</g>
<defs>
<linearGradient id="paint0_linear_694_125" x1="17.1521" y1="-15.8598" x2="122.575" y2="196.89" gradientUnits="userSpaceOnUse">
<stop stop-color="white"/>
<stop offset="1" stop-color="#FFB691"/>
</linearGradient>
<linearGradient id="paint1_linear_694_125" x1="354.543" y1="-44.4953" x2="307.998" y2="188.335" gradientUnits="userSpaceOnUse">
<stop stop-color="white"/>
<stop offset="1" stop-color="#FFB691"/>
</linearGradient>
<linearGradient id="paint2_linear_694_125" x1="205.632" y1="-29.8762" x2="205.928" y2="166.288" gradientUnits="userSpaceOnUse">
<stop stop-color="white"/>
<stop offset="1" stop-color="#FFB691"/>
</linearGradient>
<clipPath id="clip0_694_125">
<rect width="412" height="177" fill="white"/>
</clipPath>
</defs>
</svg>
