<svg width="795" height="203" viewBox="0 0 795 203" fill="none" xmlns="http://www.w3.org/2000/svg">
<path d="M768.953 203L794.012 197.445L781.928 181.696L767.041 188.724L756.755 171.855L736.183 178.884L718.182 167.985L684.164 170.45C684.164 170.45 669.322 159.203 668.735 156.738C668.147 154.273 643.607 160.609 643.607 160.609L626.079 142.334H606.32L594.748 129.682L573.317 144.673L555.839 131.088L532.554 138.117L522.268 122.389L502.173 124.926L480.998 94.5376L450.913 98.4915L429.608 80.4796L398.759 83.2915L382.422 66.4223L348.178 67.8278L327.309 49.1413L299.384 58.8439L283.955 42.5244L255.196 49.7841L233.388 31.2782L206.874 65.6096L182.018 39.7125L161.446 58.339L148.061 33.5781L131.873 46.3894L119.015 36.1978L104.229 43.2265L90.7279 16.8678L76.1975 23.8978L58.6338 11.3335L43.1545 14.0572L31.5824 0.0878906L0 5.62352V203H768.953Z" fill="#200C2A"/>
<path d="M41.8062 45.6219L57.2854 42.8981L74.8449 55.4618L89.3801 48.4331L102.88 74.7918L117.667 67.7631L130.525 77.9548L146.707 65.144L160.097 89.905L180.669 71.2778L205.521 97.175L232.035 62.8435L253.848 81.3487L282.607 74.089L298.036 90.4086L325.961 80.7053L346.825 99.3926L381.068 97.9869L397.407 114.856L428.26 112.045L449.566 130.056L479.651 126.103L500.826 156.491L520.916 153.955L531.202 169.681L554.487 162.653L571.965 176.238L593.401 161.247L604.974 173.899H624.732L642.261 192.174C642.261 192.174 666.795 185.836 667.383 188.302C667.976 190.769 682.812 202.015 682.812 202.015L716.835 199.549L722.535 203H768.835L794.171 197.385L782.087 181.637L767.201 188.665L756.914 171.796L736.342 178.825L718.341 167.924L684.324 170.39C684.324 170.39 669.482 159.144 668.895 156.678C668.307 154.213 643.767 160.549 643.767 160.549L626.239 142.274H606.48L594.909 129.622L573.477 144.613L555.999 131.028L532.715 138.057L522.428 122.33L502.333 124.867L481.158 94.4787L451.073 98.4319L429.768 80.42L398.919 83.2319L382.581 66.3626L348.337 67.7682L327.468 49.081L299.543 58.7843L284.114 42.4641L255.355 49.7238L233.547 31.2179L207.033 65.5494L182.177 39.6528L161.604 58.2794L148.219 33.5191L132.031 46.3304L119.174 36.1382L104.388 43.1675L90.8868 16.8088L76.3571 23.8381L58.7933 11.2744L43.3135 13.9982L31.7419 0.0283203L0.160156 5.56394V36.9246L30.2346 31.6532L41.8062 45.6219Z" fill="#331745"/>
</svg>
