<svg width="363" height="532" viewBox="0 0 363 532" fill="none" xmlns="http://www.w3.org/2000/svg">
<path fill-rule="evenodd" clip-rule="evenodd" d="M1.43359 199.165C6.15558 200.411 10.8503 201.713 15.4959 203.078C16.8759 203.484 19.5879 212.08 20.9582 212.492C22.5237 212.967 22.745 205.264 24.2953 205.751C37.1911 209.819 49.6236 214.362 61.1818 219.423C79.9569 227.642 96.7998 236.708 111.638 245.827C114.175 247.39 115.74 254.322 118.167 255.885C119.441 256.704 121.621 252.156 122.863 252.969C138.105 263.028 150.87 272.89 161.033 281.486C162.246 282.51 162.96 287.571 164.094 288.553C164.959 289.31 166.264 285.991 167.089 286.721C182.316 300.177 190.183 309.438 190.183 309.438C190.183 309.438 152.079 295.887 108.639 280.762C106.806 280.123 111.266 274.85 109.414 274.206C107.924 273.688 100.142 277.809 98.6472 277.291C82.8266 271.797 66.638 266.223 51.608 261.12C50.7065 260.814 57.6379 253.967 56.7429 253.666C54.8197 253.011 45.095 258.912 43.2221 258.283C26.6964 252.704 12.0277 247.871 1.4342 244.593L1.43359 199.165Z" fill="#3B0047"/>
<path fill-rule="evenodd" clip-rule="evenodd" d="M0.4342 227.908L1.50556 228.172C13.1329 246.069 24.303 265.046 34.1181 284.371C34.8826 285.877 29.2451 296.828 29.9903 298.339C30.8452 300.062 38.0846 292.343 38.9104 294.07C45.8157 308.44 51.8922 322.936 56.7688 337.262C64.7019 360.539 70.2745 383.155 74.1446 404.228C74.8085 407.842 69.7452 416.178 70.3091 419.697C70.611 421.545 76.5711 418.613 76.8427 420.431C80.1908 442.794 81.666 462.989 82.1692 479.842C82.2292 481.849 78.1718 487.597 78.2124 489.504C78.2324 490.962 82.3499 488.595 82.3596 489.99C82.576 515.823 80.5673 531.534 80.5673 531.534C80.5673 531.534 61.6005 487.502 39.6744 437.636C38.7479 435.534 47.2551 433.658 46.3184 431.534C45.5635 429.828 35.3804 427.884 34.6304 426.172C26.627 408.031 18.4024 389.509 10.6912 372.382C10.2329 371.357 22.207 369.83 21.7547 368.816C20.7676 366.628 7.35348 364.976 6.38701 362.84C4.34857 358.336 2.35986 353.961 0.433594 349.749V227.908H0.4342Z" fill="#68007D"/>
<path fill-rule="evenodd" clip-rule="evenodd" d="M-0.566406 203.889C15.7914 215.171 32.0952 227.324 47.5241 240.121C48.8829 241.241 48.4591 253.36 49.799 254.491C51.3288 255.78 54.6108 246.091 56.1211 247.396C68.6749 258.242 80.5241 269.489 91.2001 281.005C108.552 299.718 123.451 318.651 136.125 336.766C138.3 339.867 137.273 349.36 139.317 352.414C140.394 354.02 144.582 349.202 145.619 350.786C158.374 370.27 168.471 388.417 176.233 403.816C177.16 405.649 175.937 412.396 176.797 414.144C177.447 415.481 180.19 411.846 180.804 413.13C192.195 436.929 197.163 452.154 197.163 452.154C197.163 452.154 160.71 418.159 119.017 379.822C117.255 378.199 124.236 373.466 122.454 371.834C121.035 370.522 110.857 372.319 109.422 371.004C94.2305 357.062 78.6718 342.851 64.1899 329.749C63.3241 328.962 73.6382 323.315 72.7778 322.544C70.9297 320.87 57.9182 324.077 56.1114 322.449C36.1084 304.413 18.8478 289.157 8.53379 280.657C5.81749 278.42 2.75924 275.927 -0.5658 273.234V203.889H-0.566406Z" fill="#560069"/>
<path fill-rule="evenodd" clip-rule="evenodd" d="M191.41 49.0317C190.233 48.2497 189.583 53.2044 188.345 52.4021C186.719 51.3405 184.49 44.5097 182.768 43.4207C168.307 34.2549 150.407 24.0384 129.498 14.2278C127.796 13.4356 126.437 20.3347 124.696 19.5426C121.383 18.031 117.628 8.839 114.17 7.35998C108.279 4.84559 102.181 2.38481 95.8937 0H0V37.9151C10.6299 39.3992 22.8787 41.2121 36.0631 43.2311C38.4792 43.6014 48.4458 32.7708 50.9178 33.1512C52.0601 33.3312 45.6774 44.7095 46.8355 44.8895C66.1436 47.8903 86.9481 51.2288 107.299 54.5469C109.212 54.8584 117.366 47.0343 119.279 47.3465C121.66 47.7378 117.789 56.2582 120.155 56.6489C176.038 65.8307 225.136 74.2835 225.136 74.2835C225.136 74.2835 213.231 63.5697 191.41 49.0317Z" fill="#7A138F"/>
<path opacity="0.2" d="M0 5.45605V10.541C5.00211 11.173 9.93933 11.7973 14.7808 12.3896C104.616 21.8459 199.988 61.953 218.26 71.2618C202.707 62.1107 130.347 22.5576 0 5.45605Z" fill="white"/>
<path fill-rule="evenodd" clip-rule="evenodd" d="M198.688 352.042C197.838 350.272 194.787 355.661 193.886 353.827C192.704 351.429 193.65 341.783 192.381 339.268C181.715 318.179 167.983 293.407 150.914 266.977C149.526 264.827 144.809 272.011 143.379 269.84C140.651 265.703 141.145 252.185 138.25 247.985C121.392 223.489 101.756 198.036 79.1557 173.1C65.2475 157.758 49.9453 142.893 33.8124 128.671C31.8746 126.959 28.643 140.953 26.6803 139.257C24.9632 137.778 24.5109 120.609 22.7738 119.141C15.3083 112.831 7.69779 106.662 0 100.643V198.629C11.4109 208.823 25.0111 221.216 39.7877 234.825C42.1177 236.97 57.6825 231.275 60.0683 233.478C61.1754 234.502 49.0794 243.399 50.1975 244.429C68.8617 261.683 88.9156 280.405 108.506 298.779C110.348 300.512 122.586 297.067 124.423 298.795C126.713 300.946 118.604 308.262 120.879 310.396C174.643 360.933 221.698 405.789 221.698 405.789C221.698 405.789 214.439 384.69 198.688 352.042Z" fill="#560069"/>
<path opacity="0.2" d="M0 147.021V154.98C11.1417 164.647 21.9577 174.211 32.3979 183.301C121.372 258.286 201.427 373.379 215.984 397.342C203.573 374.359 141.877 267.065 0 147.021Z" fill="white"/>
<path fill-rule="evenodd" clip-rule="evenodd" d="M283.727 164.568C282.287 163.295 281.491 169.508 279.977 168.187C277.993 166.465 275.27 157.199 273.166 155.407C255.488 140.378 233.617 123.219 208.056 105.901C205.978 104.486 204.316 113.034 202.187 111.628C198.134 108.939 193.549 96.2964 189.326 93.6186C164.677 77.9967 137.118 62.6288 107.027 48.9627C88.5082 40.552 68.8817 33.1557 48.7369 26.69C46.311 25.908 48.5611 40.1141 46.12 39.3635C43.9858 38.7034 37.1702 23.0872 35.0257 22.4534C23.4402 19.0064 11.7286 15.8575 0 12.9824V91.6391C6.27779 93.4163 11.9966 95.0587 17.0156 96.5345C33.3249 101.326 61.2415 110.666 93.7989 121.93C96.748 122.944 108.95 111.322 111.965 112.368C113.365 112.854 105.552 126.008 106.966 126.494C130.569 134.714 156.004 143.711 180.88 152.581C183.226 153.416 193.202 145.227 195.533 146.056C198.448 147.097 193.711 157.162 196.595 158.192C264.911 182.624 324.937 204.591 324.937 204.591C324.937 204.591 310.395 188.151 283.727 164.568Z" fill="#65007A"/>
<path opacity="0.2" d="M0 50.4541V56.4902C23.4984 63.314 46.3468 70.8157 67.7946 77.5437C177.634 110.028 294.206 183.086 316.536 199.166C295.633 182.374 190.795 102.88 0 50.4541Z" fill="white"/>
<path fill-rule="evenodd" clip-rule="evenodd" d="M324.993 329.018C323.633 327.021 319.687 334.285 318.252 332.214C316.365 329.494 316.969 317.412 314.95 314.574C298.007 290.765 276.373 263.046 249.83 233.969C247.676 231.602 241.479 241.423 239.255 239.04C235.016 234.502 234.658 217.735 230.189 213.154C204.095 186.418 173.953 159.063 139.599 132.965C118.458 116.905 95.3541 101.728 71.1172 87.5013C68.1972 85.7893 64.6739 103.704 61.7248 102.018C59.1419 100.544 57.1434 79.4762 54.5466 78.0189C36.75 68.0883 18.4623 58.6697 0 49.7803V164.266C20.16 175.625 51.7236 194.711 88.0146 217.128C91.5234 219.293 113.39 209.087 116.983 211.311C118.644 212.347 102.013 225.791 103.694 226.837C131.797 244.282 162.019 263.242 191.54 281.874C194.319 283.629 211.584 276.877 214.353 278.62C217.81 280.807 206.762 291.489 210.185 293.655C291.227 344.915 362.195 390.554 362.195 390.554C362.195 390.554 350.135 366.036 324.993 329.018Z" fill="#7A138F"/>
<path opacity="0.2" d="M0 103.876V112.845C25.5356 127.089 50.0799 141.67 73.3769 155.132C206.808 229.315 330.6 354.761 353.352 381.319C333.029 354.578 229.616 226.956 0 103.876Z" fill="white"/>
</svg>
