<svg width="504" height="480" viewBox="0 0 504 480" fill="none" xmlns="http://www.w3.org/2000/svg">
<path fill-rule="evenodd" clip-rule="evenodd" d="M503.863 147.222C499.141 148.468 494.446 149.769 489.801 151.135C488.421 151.541 485.709 160.136 484.338 160.548C482.773 161.023 482.552 153.321 481.001 153.807C468.105 157.875 455.673 162.418 444.115 167.479C425.339 175.699 408.497 184.765 393.658 193.883C391.121 195.446 389.555 202.378 387.129 203.941C385.855 204.76 383.675 200.212 382.433 201.026C367.191 211.084 354.426 220.947 344.263 229.542C343.05 230.567 342.336 235.628 341.202 236.61C340.337 237.366 339.032 234.048 338.208 234.777C322.981 248.233 315.113 257.494 315.113 257.494C315.113 257.494 353.218 243.943 396.658 228.819C398.49 228.18 394.03 222.907 395.883 222.263C397.373 221.745 405.155 225.866 406.649 225.348C422.47 219.853 438.659 214.28 453.689 209.177C454.591 208.871 447.659 202.024 448.554 201.723C450.477 201.068 460.202 206.969 462.075 206.34C478.601 200.761 493.269 195.927 503.863 192.65V147.222Z" fill="#3B0047"/>
<path fill-rule="evenodd" clip-rule="evenodd" d="M503.864 175.964L502.793 176.227C491.166 194.125 479.996 213.101 470.18 232.426C469.415 233.932 475.053 244.883 474.308 246.394C473.453 248.117 466.213 240.398 465.388 242.126C458.482 256.495 452.406 270.991 447.529 285.318C439.596 308.595 434.023 331.211 430.153 352.284C429.489 355.897 434.553 364.233 433.989 367.752C433.687 369.601 427.727 366.669 427.455 368.486C424.108 390.849 422.632 411.045 422.129 427.897C422.069 429.905 426.126 435.653 426.086 437.559C426.066 439.018 421.949 436.651 421.938 438.046C421.721 463.879 423.731 479.59 423.731 479.59C423.731 479.59 442.697 435.557 464.624 385.692C465.55 383.589 457.043 381.713 457.98 379.59C458.734 377.884 468.918 375.94 469.668 374.228C477.671 356.087 485.896 337.565 493.607 320.437C494.065 319.413 482.091 317.886 482.543 316.871C483.53 314.684 496.944 313.031 497.911 310.896C499.949 306.392 501.938 302.017 503.864 297.804V175.964Z" fill="#68007D"/>
<path fill-rule="evenodd" clip-rule="evenodd" d="M503.863 151.944C487.505 163.227 471.201 175.38 455.772 188.177C454.413 189.297 454.837 201.416 453.497 202.546C451.967 203.836 448.685 194.146 447.175 195.452C434.621 206.298 422.772 217.545 412.096 229.061C394.745 247.773 379.845 266.707 367.171 284.822C364.996 287.923 366.023 297.416 363.98 300.47C362.902 302.076 358.714 297.258 357.678 298.842C344.922 318.325 334.825 336.472 327.063 351.872C326.136 353.705 327.359 360.451 326.499 362.2C325.85 363.536 323.107 359.902 322.492 361.186C311.101 384.985 306.133 400.21 306.133 400.21C306.133 400.21 342.586 366.215 384.28 327.877C386.042 326.255 379.06 321.522 380.842 319.889C382.261 318.579 392.439 320.375 393.874 319.059C409.066 305.118 424.624 290.906 439.107 277.805C439.973 277.018 429.659 271.371 430.519 270.599C432.366 268.925 445.379 272.132 447.185 270.504C467.188 252.468 484.449 237.212 494.763 228.712C497.479 226.475 500.538 223.982 503.863 221.289V151.944Z" fill="#560069"/>
<path fill-rule="evenodd" clip-rule="evenodd" d="M503.864 74.7114L499.4 71.8057C469.531 77.7383 439.073 85.2873 409.677 94.6861C407.391 95.4202 402.398 112.986 400.122 113.741C397.514 114.602 397.636 98.6584 395.059 99.5515C373.611 106.969 352.902 115.42 333.608 125.009C302.249 140.578 274.01 158.038 249.069 175.757C244.796 178.795 241.796 193.01 237.713 196.053C235.569 197.649 232.272 188.081 230.183 189.682C204.507 209.308 182.933 228.728 165.693 245.729C163.639 247.752 162.154 258.165 160.221 260.114C158.752 261.604 156.818 254.646 155.419 256.089C129.566 282.751 116.066 301.3 116.066 301.3C116.066 301.3 179.51 276.18 251.813 248.217C254.868 247.039 247.876 235.792 250.957 234.603C253.424 233.652 265.968 242.755 268.444 241.799C294.78 231.651 321.72 221.354 346.737 211.945C348.237 211.38 337.284 196.699 338.764 196.14C341.96 194.94 357.569 207.877 360.695 206.71C395.22 193.815 424.868 183.116 442.305 177.607C457.751 172.727 479.402 166.252 503.865 159.051V74.7114H503.864Z" fill="#65007A"/>
<path opacity="0.2" d="M503.864 112.121C265.884 171.521 146.717 274.651 124.547 295.15C146.816 276.935 264.909 194.058 382.304 156.729C419.833 144.054 461.231 129.011 503.864 118.828V112.121Z" fill="white"/>
<path fill-rule="evenodd" clip-rule="evenodd" d="M220.74 0C218.463 1.88244 216.313 3.39593 214.539 3.71957C213.301 3.94682 212.716 2.06182 212.192 0H186.609C163.452 5.28348 142.79 11.1785 125.097 16.905C122.313 17.8031 116.892 26.1608 114.264 27.0481C112.256 27.7247 113.006 20.9361 111.093 21.6018C75.616 33.937 55.3359 44.3654 55.3359 44.3654C55.3359 44.3654 127.03 48.8082 208.483 54.4454C211.927 54.6886 209.36 42.1306 212.833 42.3687C215.612 42.5641 224.43 55.5541 227.223 55.7559C256.876 57.8368 287.179 60.0448 315.261 62.2222C316.942 62.3537 311.804 45.2061 313.464 45.3376C317.058 45.6127 327.418 63.1727 330.921 63.4522C369.644 66.5424 402.751 69.5119 421.929 71.9312C440.075 74.2241 465.852 77.8639 494.815 82.0539L503.865 75.3144V1.13751C502.054 0.75068 500.233 0.378532 498.416 0H220.74Z" fill="#560069"/>
<path opacity="0.2" d="M503.862 40.2396C250.134 -5.48867 95.3774 34.0523 65.9844 42.5542C94.731 36.019 241.934 13.1871 371.107 29.289C412.466 33.7707 458.468 37.821 503.862 46.4838V40.2396Z" fill="white"/>
<path fill-rule="evenodd" clip-rule="evenodd" d="M504 34.2272C467.726 33.5503 430.956 34.3454 395.326 37.1598C392.259 37.3982 385.288 56.6057 382.242 56.8761C378.756 57.188 379.195 38.573 375.735 38.922C346.999 41.8367 319.224 46.164 293.31 52.1998C251.205 61.9921 213.228 74.8359 179.644 88.859C173.888 91.2656 169.637 107.089 164.135 109.553C161.248 110.848 157.022 98.7722 154.205 100.074C119.612 116.144 90.4833 133.061 67.1874 148.328C64.4109 150.138 62.2484 161.918 59.6403 163.685C57.6555 165.028 55.1906 156.368 53.2967 157.681C18.3409 181.93 0 200 0 200C0 200 85.079 187.653 182.027 174.355C186.125 173.799 176.996 158.77 181.129 158.205C184.436 157.755 201.011 171.768 204.338 171.313C239.642 166.515 275.761 161.706 309.298 157.416C311.308 157.157 296.949 137.04 298.939 136.785C303.225 136.246 323.821 155.57 328.011 155.047C374.297 149.233 414.034 144.673 437.396 142.912C454.68 141.608 477.767 140.166 504 138.644V34.2272Z" fill="#710886"/>
<path opacity="0.2" d="M503.863 83.2363C200.586 91.5315 47.014 177.272 18 194.955C47.6179 179.656 204.451 114.507 359.571 102.378C404.367 98.0916 453.343 92.4009 503.864 90.9953V83.2363H503.863Z" fill="white"/>
</svg>
