<svg width="795" height="203" viewBox="0 0 795 203" fill="none" xmlns="http://www.w3.org/2000/svg">
<path d="M795 203V5.65344L763.418 0.119141L751.846 14.0884L736.367 11.3646L718.803 23.9289L704.273 16.899L690.772 43.2577L675.986 36.229L663.128 46.4207L646.94 33.6093L633.555 58.3703L612.983 39.7436L588.126 65.6409L561.613 31.3093L539.805 49.8153L511.046 42.5555L495.617 58.8758L467.691 49.1731L446.823 67.8597L412.579 66.4541L396.241 83.3233L365.393 80.5115L344.087 98.5233L314.002 94.5695L292.827 124.958L272.732 122.421L262.446 138.149L239.161 131.12L221.683 144.705L200.252 129.714L188.68 142.366H168.921L151.393 160.641C151.393 160.641 126.853 154.304 126.265 156.77C125.678 159.235 110.836 170.482 110.836 170.482L76.8184 168.016L58.8181 178.916L38.2458 171.887L27.9596 188.756L13.0728 181.728L0.988281 197.477L25.9097 203.001H795V203Z" fill="#200C2A"/>
<path d="M72.5153 203L78.1649 199.579L112.188 202.045C112.188 202.045 127.024 190.799 127.617 188.332C128.204 185.866 152.739 192.204 152.739 192.204L170.268 173.929H190.027L201.598 161.277L223.034 176.268L240.513 162.683L263.798 169.711L274.083 153.985L294.173 156.521L315.348 126.133L345.434 130.086L366.739 112.075L397.593 114.886L413.931 98.0169L448.175 99.4226L469.038 80.7353L496.964 90.4386L512.393 74.119L541.152 81.3787L562.965 62.8735L589.478 97.205L614.33 71.3078L634.902 89.935L648.292 65.174L664.475 77.9848L677.332 67.7931L692.119 74.8218L705.619 48.4631L720.154 55.4918L737.713 42.9281L753.193 45.6519L764.765 31.6826L794.839 36.9539V5.59324L763.258 0.0576172L751.686 14.0275L736.206 11.3038L718.642 23.8675L704.113 16.8382L690.612 43.1969L675.826 36.1676L662.968 46.3598L646.78 33.5485L633.395 58.3087L612.823 39.6822L587.966 65.5787L561.452 31.2473L539.645 49.7532L510.885 42.4934L495.456 58.8137L467.531 49.1104L446.662 67.7975L412.418 66.392L396.08 83.2612L365.232 80.4494L343.926 98.4612L313.841 94.508L292.666 124.896L272.571 122.359L262.285 138.086L239 131.058L221.522 144.643L200.091 129.651L188.519 142.303H168.761L151.232 160.579C151.232 160.579 126.692 154.241 126.104 156.707C125.517 159.172 110.676 170.419 110.676 170.419L76.6582 167.953L58.6573 178.854L38.085 171.825L27.7989 188.695L12.912 181.666L0.828125 197.414L26.0272 203H72.5153Z" fill="#331745"/>
</svg>
