<svg width="525" height="306" viewBox="0 0 525 306" fill="none" xmlns="http://www.w3.org/2000/svg">
<path d="M197.982 220.772C193.203 223.14 188.991 223.46 185.345 221.733C181.774 219.782 178.213 215.223 174.661 208.054C173.107 204.918 170.803 202.898 167.751 201.992C164.847 201.013 161.643 200.74 158.138 201.175C154.709 201.386 151.278 202.157 147.844 203.486C144.486 204.592 141.612 205.737 139.223 206.921L136.872 207.807L129.704 211.359C126.269 213.061 122.763 213.868 119.185 213.781C115.683 213.47 112.97 211.374 111.046 207.491C108.012 201.368 111.738 170.412 122.224 114.622C124.81 100.32 128.492 91.9852 133.271 89.6171C137.751 87.3971 141.403 87.4475 144.227 89.7682C145.788 91.041 151.082 100.787 160.11 119.006C169.138 137.225 175.509 148.205 179.222 151.945C182.934 156.058 186.8 158.979 190.819 160.707C192.083 161.383 193.833 161.911 196.068 162.291C198.6 162.897 200.162 163.797 200.754 164.991L201.198 165.888C203.27 170.069 203.289 174.988 201.257 180.646C199.001 186.228 198.243 189.766 198.983 191.259L202.985 197.646C208.461 208.697 206.793 216.406 197.982 220.772ZM137.74 121.721L136.63 119.481C135.886 119.106 134.671 125.101 132.987 137.468C131.377 149.985 129.543 162.612 127.485 175.35C125.427 188.088 124.546 194.756 124.842 195.354C125.212 196.1 126.517 195.919 128.757 194.809L142.197 188.149C153.099 182.747 159.111 179.302 160.235 177.815C160.984 176.7 160.952 175.135 160.14 173.119C159.476 171.03 158.849 169.388 158.257 168.193L155.928 162.93L155.04 161.138L152.047 153.972L150.715 151.284L143.397 134.263L142.62 132.695L137.74 121.721Z" fill="url(#paint0_linear_694_120)"/>
<path d="M407.328 222.311C402.098 221.265 398.568 218.945 396.737 215.35C395.102 211.624 395.069 205.838 396.637 197.993C397.323 194.561 396.735 191.554 394.871 188.972C393.172 186.423 390.802 184.25 387.762 182.452C384.918 180.524 381.731 179.037 378.201 177.991C374.867 176.815 371.892 175.965 369.277 175.442L366.875 174.707L359.03 173.139C355.271 172.388 352.002 170.884 349.224 168.629C346.641 166.243 345.775 162.926 346.624 158.676C347.964 151.976 369.829 129.747 412.219 91.9914C423.005 82.25 431.013 77.9021 436.243 78.9476C441.146 79.9278 444.006 82.1992 444.823 85.7619C445.281 87.723 443.517 98.673 439.531 118.612C435.545 138.551 433.879 151.135 434.533 156.365C434.959 161.889 436.234 166.563 438.359 170.387C438.947 171.694 440.009 173.181 441.546 174.848C443.18 176.874 443.867 178.541 443.606 179.849L443.409 180.829C442.495 185.405 439.504 189.312 434.438 192.548C429.241 195.588 426.48 197.926 426.153 199.56L425.418 207.061C423 219.155 416.97 224.239 407.328 222.311ZM420.163 107.092L420.654 104.64C420.294 103.888 415.669 107.893 406.779 116.653C397.857 125.577 388.689 134.453 379.276 143.279C369.863 152.105 365.092 156.844 364.961 157.498C364.798 158.315 365.942 158.969 368.393 159.459L383.102 162.4C395.033 164.785 401.897 165.732 403.695 165.241C404.969 164.816 405.901 163.558 406.489 161.466C407.241 159.407 407.747 157.723 408.008 156.416L409.381 150.826L409.773 148.865L411.782 141.364L412.37 138.422L416.978 120.477L417.321 118.761L420.163 107.092Z" fill="url(#paint1_linear_694_120)"/>
<path d="M276.331 73.4167L282.311 73.4077C287.831 73.3993 293.507 74.9241 299.338 77.982C316.985 87.3086 325.832 107.535 325.88 138.662L325.883 140.732C325.894 148.399 325.063 156.22 323.388 164.196C321.713 172.172 318.964 179.459 315.141 186.058C311.318 192.504 306.266 197.802 299.985 201.951C293.858 206.1 286.195 208.182 276.995 208.196L273.085 208.202C267.105 208.211 261.429 206.763 256.058 203.857C250.38 200.799 245.851 196.896 242.47 192.148C239.089 187.246 236.475 182.114 234.627 176.75C232.932 171.386 231.774 165.944 231.152 160.425C230.684 154.906 230.446 149.923 230.44 145.476L230.43 139.266C230.415 129.299 231.705 120.021 234.298 111.43C236.892 102.84 240.178 95.9347 244.157 90.7153C248.136 85.496 253.036 81.3486 258.858 78.2731C264.68 75.0443 270.504 73.4255 276.331 73.4167ZM250.209 138.316L250.223 147.516C250.233 153.956 250.778 160.012 251.86 165.684C252.942 171.355 254.56 176.336 256.713 180.626C259.019 184.763 261.707 188.056 264.778 190.504C268.001 192.953 271.683 194.174 275.823 194.168L277.203 194.166C282.723 194.157 287.167 192.31 290.535 188.625C294.056 184.787 296.809 180.183 298.794 174.813C300.779 169.443 302.074 163.845 302.679 158.017C303.437 152.189 303.813 147.282 303.806 143.295L303.795 135.475C303.772 120.755 301.531 109.105 297.072 100.525C292.765 91.7919 286.702 87.4311 278.882 87.4429L277.502 87.445C271.982 87.4533 267.385 89.3769 263.711 93.2158C260.19 96.9011 257.437 101.429 255.451 106.798C253.466 112.168 252.095 117.767 251.337 123.595C250.579 129.269 250.203 134.176 250.209 138.316Z" fill="url(#paint2_linear_694_120)"/>
<defs>
<linearGradient id="paint0_linear_694_120" x1="89.7224" y1="48.1402" x2="195.145" y2="260.89" gradientUnits="userSpaceOnUse">
<stop stop-color="white"/>
<stop offset="1" stop-color="#FFB691"/>
</linearGradient>
<linearGradient id="paint1_linear_694_120" x1="427.114" y1="19.5047" x2="380.568" y2="252.335" gradientUnits="userSpaceOnUse">
<stop stop-color="white"/>
<stop offset="1" stop-color="#FFB691"/>
</linearGradient>
<linearGradient id="paint2_linear_694_120" x1="278.202" y1="34.1238" x2="278.499" y2="230.288" gradientUnits="userSpaceOnUse">
<stop stop-color="white"/>
<stop offset="1" stop-color="#FFB691"/>
</linearGradient>
</defs>
</svg>
