<svg width="1122" height="273" viewBox="0 0 1122 273" fill="none" xmlns="http://www.w3.org/2000/svg">
<path opacity="0.75" d="M1039.11 190.183C961.706 187.223 722.666 179.915 902.108 161.612C1073.02 144.178 993.915 135.447 929.976 133.491C615.01 123.857 766.176 101.478 820.21 95.5903C929.976 83.6308 765.947 68.4172 716.571 66.5834C556.321 60.6368 886.098 49.1761 772.259 31.2764C720.128 23.0802 682.438 21.5341 686.934 10.8758C689.966 3.68672 795.539 3.50556 777.641 0L561.002 0.39608L344.358 0C326.46 3.50556 432.037 3.68672 435.071 10.8758C439.567 21.5334 401.877 23.0796 349.747 31.2764C235.908 49.1761 565.677 60.6368 405.435 66.5834C356.06 68.4172 192.03 83.6308 301.788 95.5903C355.829 101.477 506.988 123.857 192.03 133.491C128.082 135.447 48.9775 144.178 219.898 161.612C399.339 179.915 160.299 187.223 82.8888 190.183C-129.947 198.323 104.474 269.036 364.607 269.036C463.527 269.036 517.674 270.806 546.835 273H575.179C604.339 270.806 658.487 269.036 757.408 269.036C1017.53 269.036 1251.95 198.323 1039.11 190.183Z" fill="url(#paint0_radial_631_362)"/>
<defs>
<radialGradient id="paint0_radial_631_362" cx="0" cy="0" r="1" gradientUnits="userSpaceOnUse" gradientTransform="translate(561 101) rotate(90) scale(36 147.956)">
<stop stop-color="#D3265B"/>
<stop offset="1" stop-color="#DD475F"/>
<stop offset="1" stop-color="white"/>
</radialGradient>
</defs>
</svg>
