<svg width="1728" height="285" viewBox="0 0 1728 285" fill="none" xmlns="http://www.w3.org/2000/svg">
<path d="M0 0.0566406H1728V285H0V0.0566406Z" fill="url(#paint0_linear_697_7)"/>
<path d="M1104.91 84.4508C1102.82 83.6899 1099.89 82.606 1097.51 82.5658C1086.12 82.1694 1074.58 83.6242 1064.23 86.775C1063.72 86.9307 1063.14 87.1657 1063.16 87.5321C1063.17 87.9355 1063.88 88.1404 1064.47 88.2496C1073.77 89.9456 1083.5 90.6401 1093.14 90.2992C1097.56 90.1435 1102.24 89.694 1105.63 87.8199C1106.38 87.4095 1107.08 86.8707 1107.08 86.233C1107.07 85.4332 1105.97 84.8344 1104.91 84.4508Z" fill="#FFD494"/>
<path d="M1233.82 159.106C1231.72 158.346 1228.79 157.261 1226.41 157.222C1215.02 156.825 1203.49 158.28 1193.13 161.431C1192.63 161.586 1192.05 161.821 1192.06 162.188C1192.08 162.592 1192.78 162.797 1193.38 162.906C1202.68 164.602 1212.4 165.297 1222.04 164.956C1226.46 164.8 1231.14 164.351 1234.54 162.476C1235.28 162.066 1235.99 161.526 1235.99 160.889C1235.98 160.088 1234.88 159.49 1233.82 159.106Z" fill="#FFD494"/>
<path d="M1036.95 61.5946C1036.61 61.2506 1035.95 61.1216 1035.34 61.0291C1031.98 60.5465 1029.95 60.8338 1026.29 60.7776L1026.83 60.791C1022.7 60.6621 1018.54 60.8835 1014.49 61.4484C1012.85 61.6802 1010.96 62.1232 1010.5 63.1848C1009.79 64.7717 1012.77 65.9449 1015.23 66.2596C1022.13 67.1322 1029.52 66.183 1035.42 63.6673C1036.51 63.1982 1037.68 62.3121 1036.95 61.5946Z" fill="#FFD494"/>
<g opacity="0.42">
<path d="M626.322 30.305H563.692C562.873 30.305 562.215 29.8684 562.215 29.3315C562.215 28.794 562.873 28.3574 563.692 28.3574H626.322C627.142 28.3574 627.799 28.7934 627.799 29.3315C627.799 29.8684 627.141 30.305 626.322 30.305Z" fill="white"/>
</g>
<path d="M947.362 30.305H710.168C709.35 30.305 708.691 29.8684 708.691 29.3315C708.691 28.794 709.349 28.3574 710.168 28.3574H947.362C948.181 28.3574 948.839 28.7934 948.839 29.3315C948.839 29.8684 948.181 30.305 947.362 30.305Z" fill="white"/>
<path d="M1138.65 30.305H1055.07C1054.26 30.305 1053.6 29.8684 1053.6 29.3315C1053.6 28.794 1054.26 28.3574 1055.07 28.3574H1138.65C1139.47 28.3574 1140.13 28.7934 1140.13 29.3315C1140.13 29.8684 1139.47 30.305 1138.65 30.305Z" fill="white"/>
<path d="M1408.86 30.305H1263.82C1263 30.305 1262.34 29.8684 1262.34 29.3315C1262.34 28.794 1263 28.3574 1263.82 28.3574H1408.86C1409.68 28.3574 1410.34 28.7934 1410.34 29.3315C1410.34 29.8684 1409.68 30.305 1408.86 30.305Z" fill="white"/>
<path d="M1656.19 30.305H1564.96C1564.14 30.305 1563.48 29.8684 1563.48 29.3315C1563.48 28.794 1564.14 28.3574 1564.96 28.3574H1656.19C1657.01 28.3574 1657.67 28.7934 1657.67 29.3315C1657.67 29.8684 1657.01 30.305 1656.19 30.305Z" fill="white"/>
<path d="M1217.28 31.2786H1188.76C1187.94 31.2786 1187.28 30.842 1187.28 30.3052C1187.28 29.7677 1187.94 29.3311 1188.76 29.3311H1217.28C1218.09 29.3311 1218.75 29.767 1218.75 30.3052C1218.75 30.842 1218.09 31.2786 1217.28 31.2786Z" fill="white"/>
<path d="M322.038 30.305H293.515C292.697 30.305 292.039 29.8684 292.039 29.3315C292.039 28.794 292.697 28.3574 293.515 28.3574H322.038C322.857 28.3574 323.515 28.7934 323.515 29.3315C323.515 29.8684 322.857 30.305 322.038 30.305Z" fill="white"/>
<path d="M489.278 30.305H386.813C385.994 30.305 385.336 29.8684 385.336 29.3315C385.336 28.794 385.994 28.3574 386.813 28.3574H489.278C490.096 28.3574 490.754 28.7934 490.754 29.3315C490.754 29.8684 490.096 30.305 489.278 30.305Z" fill="white"/>
<path d="M550.954 58.9238H456.973C456.154 58.9238 455.496 58.4872 455.496 57.9497C455.496 57.4122 456.154 56.9756 456.973 56.9756H550.954C551.774 56.9756 552.431 57.4122 552.431 57.9497C552.431 58.4872 551.773 58.9238 550.954 58.9238Z" fill="white"/>
<path d="M763.406 58.9238H741.488C740.67 58.9238 740.012 58.4872 740.012 57.9497C740.012 57.4122 740.67 56.9756 741.488 56.9756H763.406C764.224 56.9756 764.883 57.4122 764.883 57.9497C764.883 58.4872 764.224 58.9238 763.406 58.9238Z" fill="white"/>
<path d="M1001.37 58.9238H939.297C938.478 58.9238 937.82 58.4872 937.82 57.9497C937.82 57.4122 938.478 56.9756 939.297 56.9756H1001.37C1002.19 56.9756 1002.85 57.4122 1002.85 57.9497C1002.85 58.4872 1002.19 58.9238 1001.37 58.9238Z" fill="white"/>
<path d="M831.27 249.823H809.351C808.533 249.823 807.875 249.386 807.875 248.848C807.875 248.311 808.533 247.875 809.351 247.875H831.27C832.088 247.875 832.747 248.311 832.747 248.848C832.747 249.386 832.089 249.823 831.27 249.823Z" fill="white"/>
<path d="M1069.24 249.823H1007.16C1006.34 249.823 1005.68 249.386 1005.68 248.848C1005.68 248.311 1006.34 247.875 1007.16 247.875H1069.24C1070.06 247.875 1070.72 248.311 1070.72 248.848C1070.72 249.386 1070.06 249.823 1069.24 249.823Z" fill="white"/>
<path d="M1151.81 58.9238H1125.5C1124.68 58.9238 1124.02 58.4872 1124.02 57.9497C1124.02 57.4122 1124.68 56.9756 1125.5 56.9756H1151.81C1152.63 56.9756 1153.29 57.4122 1153.29 57.9497C1153.29 58.4872 1152.63 58.9238 1151.81 58.9238Z" fill="white"/>
<path d="M1479.1 58.9238H1375.12C1374.3 58.9238 1373.64 58.4872 1373.64 57.9497C1373.64 57.4122 1374.3 56.9756 1375.12 56.9756H1479.1C1479.92 56.9756 1480.58 57.4122 1480.58 57.9497C1480.58 58.4872 1479.92 58.9238 1479.1 58.9238Z" fill="white"/>
<path d="M1636.17 58.9238H1610.55C1609.74 58.9238 1609.08 58.4872 1609.08 57.9497C1609.08 57.4122 1609.74 56.9756 1610.55 56.9756H1636.17C1636.99 56.9756 1637.65 57.4122 1637.65 57.9497C1637.65 58.4872 1636.99 58.9238 1636.17 58.9238Z" fill="white"/>
<path d="M563.692 87.5433H542.426C541.607 87.5433 540.949 87.1073 540.949 86.5698C540.949 86.0323 541.607 85.5957 542.426 85.5957H563.692C564.51 85.5957 565.169 86.0323 565.169 86.5698C565.169 87.1073 564.51 87.5433 563.692 87.5433Z" fill="white"/>
<path d="M675.145 87.5433H605.809C604.99 87.5433 604.332 87.1073 604.332 86.5698C604.332 86.0323 604.99 85.5957 605.809 85.5957H675.145C675.963 85.5957 676.621 86.0323 676.621 86.5698C676.621 87.1073 675.964 87.5433 675.145 87.5433Z" fill="white"/>
<path d="M861.683 87.5433H832.598C831.779 87.5433 831.121 87.1073 831.121 86.5698C831.121 86.0323 831.779 85.5957 832.598 85.5957H861.683C862.502 85.5957 863.16 86.0323 863.16 86.5698C863.16 87.1073 862.502 87.5433 861.683 87.5433Z" fill="white"/>
<path d="M1193.02 87.5433H1094.84C1094.03 87.5433 1093.37 87.1073 1093.37 86.5698C1093.37 86.0323 1094.03 85.5957 1094.84 85.5957H1193.02C1193.84 85.5957 1194.5 86.0323 1194.5 86.5698C1194.5 87.1073 1193.84 87.5433 1193.02 87.5433Z" fill="white"/>
<path d="M1307.62 87.5433H1287.25C1286.43 87.5433 1285.77 87.1073 1285.77 86.5698C1285.77 86.0323 1286.43 85.5957 1287.25 85.5957H1307.62C1308.44 85.5957 1309.1 86.0323 1309.1 86.5698C1309.1 87.1073 1308.44 87.5433 1307.62 87.5433Z" fill="white"/>
<path d="M1504.36 87.5433H1453.82C1453.01 87.5433 1452.35 87.1073 1452.35 86.5698C1452.35 86.0323 1453.01 85.5957 1453.82 85.5957H1504.36C1505.18 85.5957 1505.84 86.0323 1505.84 86.5698C1505.84 87.1073 1505.18 87.5433 1504.36 87.5433Z" fill="white"/>
<path d="M609.457 116.166H563.692C562.873 116.166 562.215 115.729 562.215 115.192C562.215 114.654 562.873 114.218 563.692 114.218H609.457C610.276 114.218 610.934 114.654 610.934 115.192C610.933 115.729 610.275 116.166 609.457 116.166Z" fill="white"/>
<path d="M1245.77 116.166H1182.27C1181.45 116.166 1180.8 115.729 1180.8 115.192C1180.8 114.654 1181.45 114.218 1182.27 114.218H1245.77C1246.59 114.218 1247.24 114.654 1247.24 115.192C1247.24 115.729 1246.59 116.166 1245.77 116.166Z" fill="white"/>
<path d="M1401.5 116.166H1375.05C1374.23 116.166 1373.57 115.729 1373.57 115.192C1373.57 114.654 1374.23 114.218 1375.05 114.218H1401.5C1402.32 114.218 1402.98 114.654 1402.98 115.192C1402.98 115.729 1402.32 116.166 1401.5 116.166Z" fill="white"/>
<path d="M1100.76 116.166H1074.32C1073.5 116.166 1072.84 115.729 1072.84 115.192C1072.84 114.654 1073.5 114.218 1074.32 114.218H1100.76C1101.58 114.218 1102.24 114.654 1102.24 115.192C1102.24 115.729 1101.58 116.166 1100.76 116.166Z" fill="white"/>
<path d="M1004.68 116.166H796.559C795.74 116.166 795.082 115.729 795.082 115.192C795.082 114.654 795.74 114.218 796.559 114.218H1004.68C1005.5 114.218 1006.15 114.654 1006.15 115.192C1006.15 115.729 1005.5 116.166 1004.68 116.166Z" fill="white"/>
<path d="M786.249 208.845H722.754C721.935 208.845 721.277 208.409 721.277 207.871C721.277 207.334 721.935 206.898 722.754 206.898H786.249C787.067 206.898 787.726 207.334 787.726 207.871C787.725 208.408 787.067 208.845 786.249 208.845Z" fill="white"/>
<path d="M894.21 208.845H867.766C866.948 208.845 866.289 208.409 866.289 207.871C866.289 207.334 866.948 206.898 867.766 206.898H894.21C895.028 206.898 895.686 207.334 895.686 207.871C895.686 208.408 895.028 208.845 894.21 208.845Z" fill="white"/>
<path d="M1171.96 208.845H963.844C963.025 208.845 962.367 208.409 962.367 207.871C962.367 207.334 963.025 206.898 963.844 206.898H1171.96C1172.78 206.898 1173.44 207.334 1173.44 207.871C1173.44 208.408 1172.78 208.845 1171.96 208.845Z" fill="white"/>
<path d="M808.112 144.788H659.742C658.923 144.788 658.266 144.352 658.266 143.815C658.266 143.277 658.923 142.841 659.742 142.841H808.112C808.931 142.841 809.589 143.277 809.589 143.815C809.589 144.352 808.931 144.788 808.112 144.788Z" fill="white"/>
<path d="M901.927 144.788H852.515C851.697 144.788 851.039 144.352 851.039 143.815C851.039 143.277 851.698 142.841 852.515 142.841H901.927C902.746 142.841 903.404 143.277 903.404 143.815C903.404 144.352 902.746 144.788 901.927 144.788Z" fill="white"/>
<path d="M1302.61 144.788H1290.57C1289.75 144.788 1289.09 144.352 1289.09 143.815C1289.09 143.277 1289.75 142.841 1290.57 142.841H1302.61C1303.42 142.841 1304.08 143.277 1304.08 143.815C1304.08 144.352 1303.42 144.788 1302.61 144.788Z" fill="white"/>
<path d="M1201.54 144.788H973.528C972.709 144.788 972.051 144.352 972.051 143.815C972.051 143.277 972.709 142.841 973.528 142.841H1201.54C1202.36 142.841 1203.02 143.277 1203.02 143.815C1203.02 144.352 1202.36 144.788 1201.54 144.788Z" fill="white"/>
<path d="M1004.68 173.408H764.582C763.764 173.408 763.105 172.971 763.105 172.433C763.105 171.896 763.763 171.46 764.582 171.46H1004.68C1005.5 171.46 1006.16 171.896 1006.16 172.433C1006.16 172.971 1005.5 173.408 1004.68 173.408Z" fill="white"/>
<path d="M1094.84 173.408H1044.71C1043.89 173.408 1043.23 172.971 1043.23 172.433C1043.23 171.896 1043.89 171.46 1044.71 171.46H1094.84C1095.66 171.46 1096.32 171.896 1096.32 172.433C1096.32 172.971 1095.66 173.408 1094.84 173.408Z" fill="white"/>
<path d="M1201.54 173.408H1184.5C1183.69 173.408 1183.03 172.971 1183.03 172.433C1183.03 171.896 1183.69 171.46 1184.5 171.46H1201.54C1202.36 171.46 1203.02 171.896 1203.02 172.433C1203.02 172.971 1202.36 173.408 1201.54 173.408Z" fill="white"/>
<path opacity="0.75" d="M1132.14 177.705C1132.14 177.705 1234.14 170.213 1203.16 179.272C1172.19 188.338 1104.06 179.463 1132.14 177.705Z" fill="#FFD494"/>
<path d="M860 54.7293C832.545 81.4337 799 77.8382 799 77.8382C819.584 73.2169 860 46 860 46C860 46 900.407 73.2169 921 77.8382C921 77.8382 887.445 81.4337 860 54.7293Z" fill="url(#paint1_linear_697_7)" fill-opacity="0.3"/>
<path d="M696.24 125.177C672.147 151.202 647 144.933 647 144.933C663.242 141.604 697.276 116 697.276 116C697.276 116 724.854 147.605 740 153.992C740 153.992 713.998 155.279 696.24 125.177Z" fill="url(#paint2_linear_697_7)" fill-opacity="0.3"/>
<path d="M1020 104.909C1003.8 119.931 984 117.909 984 117.909C996.149 115.309 1020 100 1020 100C1020 100 1043.85 115.309 1056 117.909C1056 117.909 1036.2 119.931 1020 104.909Z" fill="url(#paint3_linear_697_7)" fill-opacity="0.3"/>
<path d="M773.503 65.4542C768.438 63.783 764.223 64.0593 760.856 66.283C757.596 68.7173 754.712 73.733 752.205 81.3301C751.109 84.6538 749.113 86.9789 746.218 88.3052C743.482 89.6838 740.348 90.4048 736.817 90.4682C733.392 90.7421 729.886 90.4628 726.3 89.6304C722.819 89.0084 719.813 88.2797 717.281 87.444L714.828 86.898L707.231 84.3912C703.591 83.19 700.006 82.8846 696.476 83.475C693.053 84.2759 690.662 86.7339 689.305 90.849C687.163 97.3382 695.213 127.461 713.453 181.218C718.027 195.012 722.847 202.745 727.912 204.417C732.66 205.984 736.268 205.419 738.737 202.724C740.103 201.244 743.972 190.849 750.344 171.54C756.715 152.231 761.476 140.463 764.625 136.237C767.721 131.643 771.136 128.207 774.872 125.929C776.028 125.082 777.686 124.313 779.845 123.621C782.267 122.665 783.686 121.554 784.104 120.288L784.418 119.338C785.88 114.907 785.206 110.034 782.397 104.719C779.377 99.5102 778.128 96.1145 778.65 94.5318L781.713 87.6445C785.578 75.9324 782.841 68.5356 773.503 65.4542ZM727.814 172.004L727.03 174.378C726.346 174.854 724.3 169.089 720.891 157.083C717.533 144.918 713.939 132.675 710.107 120.354C706.275 108.032 704.463 101.555 704.672 100.922C704.933 100.131 706.251 100.127 708.625 100.91L722.869 105.61C734.423 109.423 740.861 111.986 742.183 113.3C743.082 114.298 743.271 115.852 742.75 117.962C742.388 120.124 741.998 121.838 741.58 123.104L740.015 128.643L739.389 130.542L737.435 138.059L736.495 140.908L731.647 158.789L731.099 160.451L727.814 172.004Z" fill="url(#paint4_linear_697_7)" fill-opacity="0.1"/>
<path d="M990.97 64.8785C985.716 65.7984 982.132 68.0336 980.215 71.584C978.492 75.2698 978.32 81.0528 979.7 88.9329C980.304 92.3804 979.643 95.3725 977.718 97.9092C975.958 100.417 973.537 102.533 970.455 104.257C967.565 106.117 964.344 107.527 960.789 108.488C957.428 109.584 954.434 110.362 951.807 110.822L949.388 111.499L941.508 112.879C937.732 113.541 934.428 114.965 931.596 117.153C928.958 119.476 928.012 122.772 928.759 127.04C929.938 133.771 951.264 156.517 992.738 195.278C1003.29 205.275 1011.19 209.813 1016.44 208.893C1021.37 208.031 1024.28 205.829 1025.18 202.287C1025.69 200.337 1024.19 189.348 1020.68 169.319C1017.17 149.291 1015.81 136.67 1016.59 131.458C1017.15 125.946 1018.53 121.303 1020.75 117.531C1021.37 116.238 1022.47 114.777 1024.04 113.148C1025.72 111.161 1026.45 109.511 1026.22 108.198L1026.05 107.213C1025.24 102.616 1022.35 98.6392 1017.36 95.2824C1012.24 92.1185 1009.53 89.7157 1009.24 88.074L1008.69 80.5571C1006.56 68.4086 1000.66 63.1824 990.97 64.8785ZM1001.04 180.372L1001.47 182.835C1001.1 183.578 996.568 179.464 987.89 170.493C979.184 161.357 970.232 152.265 961.033 143.216C951.834 134.167 947.178 129.314 947.063 128.658C946.919 127.837 948.078 127.211 950.541 126.78L965.316 124.192C977.3 122.094 984.185 121.311 985.971 121.845C987.235 122.3 988.136 123.58 988.674 125.686C989.376 127.763 989.842 129.458 990.072 130.771L991.31 136.392L991.655 138.362L993.484 145.909L994.001 148.864L998.177 166.915L998.479 168.638L1001.04 180.372Z" fill="url(#paint5_linear_697_7)" fill-opacity="0.1"/>
<path d="M858.476 213.557L864.456 213.547C869.976 213.539 875.647 211.997 881.469 208.922C899.088 199.542 907.874 179.289 907.827 148.162L907.824 146.092C907.812 138.425 906.957 130.606 905.259 122.636C903.56 114.665 900.789 107.386 896.946 100.798C893.102 94.3641 888.034 89.0817 881.742 84.9512C875.602 80.8205 867.932 78.7621 858.732 78.776L854.822 78.7819C848.842 78.7909 843.171 80.2561 837.809 83.1776C832.14 86.2528 827.623 90.1697 824.257 94.9281C820.891 99.8398 818.292 104.98 816.46 110.35C814.781 115.719 813.64 121.164 813.035 126.685C812.583 132.206 812.36 137.189 812.367 141.636L812.377 147.846C812.392 157.813 813.709 167.087 816.329 175.67C818.948 184.253 822.255 191.148 826.25 196.355C830.244 201.562 835.157 205.695 840.989 208.753C846.82 211.964 852.649 213.565 858.476 213.557ZM832.158 148.736L832.144 139.536C832.134 133.096 832.662 127.039 833.727 121.364C834.791 115.689 836.394 110.703 838.534 106.407C840.828 102.263 843.506 98.9623 846.569 96.5044C849.785 94.0462 853.463 92.8139 857.603 92.8077L858.983 92.8056C864.503 92.7973 868.953 94.6305 872.332 98.3054C875.864 102.133 878.631 106.729 880.633 112.093C882.634 117.457 883.946 123.051 884.568 128.877C885.343 134.702 885.734 139.609 885.74 143.595L885.752 151.415C885.774 166.135 883.569 177.792 879.135 186.385C874.855 195.132 868.805 199.511 860.985 199.523L859.605 199.525C854.085 199.533 849.482 197.623 845.796 193.796C842.264 190.121 839.497 185.602 837.495 180.238C835.494 174.875 834.106 169.28 833.33 163.454C832.555 157.782 832.164 152.876 832.158 148.736Z" fill="url(#paint6_linear_697_7)" fill-opacity="0.1"/>
<defs>
<linearGradient id="paint0_linear_697_7" x1="846.784" y1="1.76959" x2="847.819" y2="172.994" gradientUnits="userSpaceOnUse">
<stop stop-color="#E87754"/>
<stop offset="1" stop-color="#4E0654"/>
</linearGradient>
<linearGradient id="paint1_linear_697_7" x1="799.001" y1="61.9998" x2="921" y2="61.9998" gradientUnits="userSpaceOnUse">
<stop offset="0.0533" stop-color="#371D4F"/>
<stop offset="0.2775" stop-color="#3D1E51"/>
<stop offset="0.5634" stop-color="#4C2057"/>
<stop offset="0.8815" stop-color="#662461"/>
<stop offset="1" stop-color="#722665"/>
</linearGradient>
<linearGradient id="paint2_linear_697_7" x1="647" y1="135" x2="740" y2="135" gradientUnits="userSpaceOnUse">
<stop offset="0.0533" stop-color="#371D4F"/>
<stop offset="0.2775" stop-color="#3D1E51"/>
<stop offset="0.5634" stop-color="#4C2057"/>
<stop offset="0.8815" stop-color="#662461"/>
<stop offset="1" stop-color="#722665"/>
</linearGradient>
<linearGradient id="paint3_linear_697_7" x1="984" y1="109" x2="1056" y2="109" gradientUnits="userSpaceOnUse">
<stop offset="0.0533" stop-color="#371D4F"/>
<stop offset="0.2775" stop-color="#3D1E51"/>
<stop offset="0.5634" stop-color="#4C2057"/>
<stop offset="0.8815" stop-color="#662461"/>
<stop offset="1" stop-color="#722665"/>
</linearGradient>
<linearGradient id="paint4_linear_697_7" x1="704.115" y1="210.78" x2="751.576" y2="66.947" gradientUnits="userSpaceOnUse">
<stop stop-color="white"/>
<stop offset="1" stop-color="#FFB691"/>
</linearGradient>
<linearGradient id="paint5_linear_697_7" x1="1000.72" y1="238.55" x2="970.005" y2="63.1616" gradientUnits="userSpaceOnUse">
<stop stop-color="white"/>
<stop offset="1" stop-color="#FFB691"/>
</linearGradient>
<linearGradient id="paint6_linear_697_7" x1="860.433" y1="230.844" x2="860.202" y2="78.1239" gradientUnits="userSpaceOnUse">
<stop stop-color="white"/>
<stop offset="1" stop-color="#FFB691"/>
</linearGradient>
</defs>
</svg>
