<svg width="828" height="442" viewBox="0 0 828 442" fill="none" xmlns="http://www.w3.org/2000/svg">
<path d="M0 143.135L0.396531 142.051L195.674 0.680664L338.841 177.383L265.789 266.754L0 306.668V143.135Z" fill="#331745"/>
<path d="M162.451 107.942L149.606 67.8052L195.673 0.680664L338.84 177.383L265.787 266.754L113.645 184.133L162.451 107.942Z" fill="#472462"/>
<path opacity="0.6" d="M338.841 177.383L195.674 0.680664L174.652 32.4301L191.35 37.8732L209.973 65.7645L310.354 142.215L265.788 315.394L338.841 177.383Z" fill="#F9EFC1"/>
<path d="M480.505 329.033L172.047 273.457L363.226 92.0449L513.432 240.946" fill="#331745"/>
<path d="M480.505 329.033L331.137 184.361L363.226 92.0449L513.432 240.946" fill="#472462"/>
<path opacity="0.6" d="M363.226 92.0449L355.91 112.741L376.089 121.324L442.757 170.889L294.984 305.956L478.121 315.395L498.211 225.859L363.226 92.0449Z" fill="#F9EFC1"/>
<path d="M633.253 369.169L287.367 297.219L501.741 62.3633L670.178 255.143" fill="#331745"/>
<path d="M653.101 235.601L501.742 62.3633L494.07 87.4L536.756 126.926L526.355 133.08L616.146 193.301" fill="#331745"/>
<path d="M429.602 265.538L485.261 185.723L478.774 133.08L501.742 62.3633L670.179 255.143" fill="#472462"/>
<path opacity="0.6" d="M653.101 235.601L501.742 62.3633L494.07 87.4L536.756 126.926L526.355 133.08L616.146 193.301" fill="#F9EFC1"/>
<path d="M827.756 398.697L654.292 190.659L549.791 284.049L503.348 366.586L725.439 401.141" fill="#331745"/>
<path d="M827.757 398.697L654.292 190.659L647.087 287.471L612.836 341.729L725.439 401.141" fill="#472462"/>
<path opacity="0.6" d="M770.601 348.08L827.756 398.697L654.291 190.659L653.102 215.415L701.245 266.447L697.392 278.452" fill="#F9EFC1"/>
<path d="M0 218.673L31.4775 195.973L126.529 145.654L80.3411 266.754L240.941 190.659L237.932 258.43L320.251 240.643L369.328 221.548L359.499 312.477L464.883 221.388L454.596 315.394L573.004 264.554H598.656L618.031 313.534L685.156 329.032L708.165 315.394L726.203 347.622L769.074 390.929L740.011 406.12L519.522 431.307L0 441.862V218.673Z" fill="#331745"/>
</svg>
