<svg width="833" height="442" viewBox="0 0 833 442" fill="none" xmlns="http://www.w3.org/2000/svg">
<path d="M832.998 143.135L832.599 142.051L636.206 0.680664L492.223 177.383L565.693 266.754L832.998 306.668V143.135Z" fill="#331745"/>
<path d="M670.02 107.942L682.939 67.8052L636.598 0.680664L492.578 177.383L566.067 266.754L803.7 315.394L670.02 107.942Z" fill="#472462"/>
<path opacity="0.6" d="M492.578 177.383L636.598 0.680664L657.745 32.4301L640.949 37.8732L622.215 65.7645L521.234 142.215L566.067 315.394L492.578 177.383Z" fill="#F9EFC1"/>
<path d="M350.072 329.032L660.37 273.456L468.05 92.0439L316.949 240.945" fill="#331745"/>
<path d="M350.072 329.032L500.331 184.36L468.05 92.0439L316.949 240.945" fill="#472462"/>
<path opacity="0.6" d="M468.05 92.0439L475.409 112.74L455.11 121.323L388.046 170.888L536.699 305.955L352.47 315.394L332.262 225.858L468.05 92.0439Z" fill="#F9EFC1"/>
<path d="M196.412 369.168L544.36 297.218L328.708 62.3623L159.266 255.142" fill="#331745"/>
<path d="M469.249 362.429L345.287 185.722L351.813 133.079L328.708 62.3623L159.266 255.142" fill="#472462"/>
<path opacity="0.6" d="M176.445 235.6L328.708 62.3623L336.424 87.399L293.484 126.925L303.947 133.079L213.621 193.3" fill="#F9EFC1"/>
<path d="M0.75 398.696L175.249 190.658L182.496 287.47L216.952 341.728L103.678 401.14" fill="#472462"/>
<path opacity="0.6" d="M58.2451 348.079L0.75 398.696L175.249 190.658L176.445 215.414L128.014 266.446L131.89 278.451" fill="#F9EFC1"/>
<path d="M833.002 218.673L801.353 195.973L736.599 145.654L754.16 239.635L786.031 290.821L607.183 210.536L550.334 168.532L511.028 240.643L369.277 218.86L419.92 290.821L266.252 311.295L182.771 287.47L207.479 339.447L144.16 329.032L121.028 315.394L102.893 347.622L74.3977 373.93L26.6406 401.141L310.685 431.307L833.002 441.862V218.673Z" fill="#331745"/>
</svg>
