<svg width="255" height="81" viewBox="0 0 255 81" fill="none" xmlns="http://www.w3.org/2000/svg">
<path d="M12.8789 6.60846L21.0322 11.8312C22.6439 12.8636 23.7796 14.2126 24.4392 15.8781C25.1017 17.5343 25.1381 19.2935 24.5485 21.1555C24.0415 22.7568 23.1594 23.8715 21.9022 24.4996C20.6479 25.1183 19.108 24.843 17.2824 23.6736L11.5838 20.0232L8.83779 28.6955L6.38317 27.1232L12.8789 6.60846ZM22.0648 19.5813C22.5424 18.073 22.3733 16.7329 21.5575 15.5608C21.1061 14.9245 20.4076 14.3035 19.462 13.6978L14.5774 10.5688L12.3267 17.6771L17.2112 20.806C18.3131 21.5118 19.2894 21.818 20.1399 21.7245C20.9987 21.6363 21.6403 20.9219 22.0648 19.5813Z" fill="white"/>
<path d="M29.8857 36.2313C29.6978 36.9695 29.7971 37.6789 30.1836 38.3597C30.5701 39.0404 31.1019 39.5551 31.7791 39.9038C32.6039 40.3286 33.4557 40.5317 34.3344 40.5132C35.8125 40.4929 36.7516 39.6973 37.1514 38.1263L37.6754 36.0679C37.3383 36.1191 36.9272 36.0948 36.442 35.9948C35.9568 35.8948 35.4899 35.7614 35.0413 35.5946L33.5712 35.0624C32.6891 34.7473 32.0015 34.6127 31.5087 34.6586C30.6748 34.7323 30.1339 35.2565 29.8857 36.2313ZM36.8791 33.988C37.4367 34.1895 37.8596 34.129 38.1479 33.8065C38.3099 33.633 38.4451 33.3333 38.5536 32.9074C38.7752 32.0368 38.6489 31.2599 38.1746 30.5768C37.7115 29.8887 36.9503 29.2719 35.8911 28.7265C34.6669 28.0961 33.7071 28.0086 33.0118 28.4641C32.6241 28.714 32.2869 29.2094 32.0001 29.9502L29.8122 28.8235C30.3326 26.972 31.2195 25.9569 32.4729 25.7781C33.7374 25.5943 35.0772 25.8668 36.4924 26.5955C38.1333 27.4405 39.3793 28.4675 40.2303 29.6765C41.0727 30.881 41.3108 32.2025 40.9446 33.641L38.7151 42.3998C38.6477 42.6647 38.6412 42.9023 38.6958 43.1123C38.759 43.3269 38.9512 43.5168 39.2725 43.6823C39.3766 43.7359 39.4951 43.7915 39.6277 43.8491C39.7627 43.8973 39.9077 43.9452 40.0625 43.9928L39.5819 45.8808C39.1884 45.8066 38.8925 45.7345 38.6942 45.6645C38.496 45.5946 38.2319 45.4746 37.902 45.3047C37.0946 44.889 36.588 44.2749 36.3824 43.4625C36.2757 43.0329 36.2603 42.4951 36.3364 41.8492C35.6854 42.2847 34.849 42.523 33.827 42.5641C32.8051 42.6051 31.7559 42.3485 30.6793 41.7941C29.3856 41.1279 28.4348 40.1566 27.8268 38.8801C27.2299 37.5987 27.0953 36.3144 27.4229 35.0273C27.7819 33.6172 28.4638 32.732 29.4688 32.3718C30.4738 32.0115 31.6546 32.0791 33.0114 32.5744L36.8791 33.988Z" fill="white"/>
<path d="M53.7489 34.5231C54.8891 34.9858 55.825 35.6865 56.5565 36.6253C56.9508 37.1476 57.3234 37.8269 57.6744 38.663L58.0632 36.7241L60.3165 37.6384L57.5107 51.6273C57.1189 53.5806 56.5383 55.012 55.7687 55.9216C54.3366 57.5977 52.2134 57.8648 49.3991 56.7229C47.8336 56.0876 46.5919 55.18 45.6739 53.9999C44.7539 52.8293 44.3891 51.4284 44.5793 49.7972L47.0632 50.8051C47.0426 51.5422 47.1713 52.1691 47.4493 52.6857C47.8861 53.4842 48.6972 54.1239 49.8826 54.6049C51.7558 55.3649 53.1221 55.1635 53.9816 54.0005C54.4907 53.3166 54.9438 51.9111 55.3411 49.784C54.6949 50.3709 53.9896 50.7163 53.2251 50.8203C52.4605 50.9242 51.5127 50.7467 50.3815 50.2877C48.807 49.6489 47.5451 48.5001 46.5959 46.8413C45.6577 45.1767 45.4622 42.98 46.0095 40.2511C46.5261 37.6755 47.5221 35.9052 48.9975 34.9404C50.482 33.9793 52.0658 33.8402 53.7489 34.5231ZM56.5624 44.2069C56.9446 42.3015 56.8568 40.7386 56.2992 39.5184C55.7415 38.2981 54.8881 37.4548 53.7388 36.9885C52.0195 36.2909 50.6722 36.6657 49.6969 38.113C49.1797 38.8868 48.7732 40.0109 48.4774 41.4855C48.1298 43.2185 48.1951 44.6739 48.6732 45.8516C49.1624 47.0233 49.9679 47.8368 51.09 48.2921C52.8456 49.0044 54.2488 48.6678 55.2997 47.2823C55.888 46.4959 56.3089 45.4708 56.5624 44.2069Z" fill="white"/>
<path d="M72.8631 41.0727C73.9292 41.3934 74.9238 41.965 75.8469 42.7877C76.7714 43.6006 77.4344 44.4964 77.836 45.475C78.2247 46.4093 78.4256 47.4234 78.4388 48.5172C78.4822 49.277 78.3875 50.4393 78.1548 52.0042L67.1432 48.6917C66.9559 50.2803 67.1278 51.654 67.6589 52.8128C68.1914 53.962 69.1638 54.749 70.5759 55.1737C71.8945 55.5704 73.0133 55.4377 73.9324 54.7757C74.4589 54.3891 74.8666 53.881 75.1556 53.2515L77.6385 53.9983C77.4883 54.5486 77.1737 55.12 76.6948 55.7126C76.2267 56.2983 75.7305 56.7445 75.2062 57.051C74.3244 57.593 73.2977 57.8291 72.1259 57.7592C71.4951 57.7309 70.7962 57.6014 70.0294 57.3707C68.159 56.8081 66.6781 55.631 65.5864 53.8394C64.4963 52.0381 64.1393 49.872 64.5156 47.3413C64.8862 44.8491 65.8417 43.0224 67.3822 41.8611C68.9227 40.6997 70.7497 40.4369 72.8631 41.0727ZM75.8678 49.1516C75.933 47.9905 75.8288 47.0156 75.5553 46.2269C75.05 44.763 73.9884 43.7877 72.3706 43.3011C71.211 42.9523 70.1738 43.0944 69.259 43.7274C68.3456 44.3508 67.7664 45.322 67.5215 46.6409L75.8678 49.1516Z" fill="white"/>
<path d="M96.5567 46.8754L99.039 47.2109L98.8906 49.4325C99.6873 48.616 100.51 48.0636 101.36 47.7752C102.209 47.4869 103.137 47.4108 104.143 47.5468C106.35 47.845 107.788 48.8211 108.459 50.475C108.828 51.3803 108.96 52.6222 108.855 54.2007L108.184 64.2418L105.527 63.8827L106.186 54.017C106.25 53.0621 106.161 52.2734 105.92 51.6508C105.52 50.6137 104.711 50.0127 103.491 49.8479C102.872 49.7642 102.36 49.7588 101.955 49.8319C101.224 49.9494 100.566 50.2932 99.9815 50.863C99.5115 51.3206 99.1902 51.8179 99.0176 52.355C98.8553 52.8837 98.74 53.6595 98.6717 54.6827L98.1239 62.8821L95.5109 62.529L96.5567 46.8754Z" fill="white"/>
<path d="M121.064 63.2012C122.811 63.264 124.018 62.6478 124.686 61.3528C125.363 60.0484 125.716 58.5858 125.745 56.965C125.771 55.5004 125.558 54.3007 125.106 53.3661C124.39 51.8943 123.124 51.1258 121.309 51.0606C119.699 51.0027 118.517 51.5758 117.763 52.7797C117.009 53.9837 116.617 55.4547 116.586 57.1927C116.556 58.8623 116.897 60.2669 117.609 61.4063C118.322 62.5457 119.473 63.144 121.064 63.2012ZM121.423 48.7638C123.443 48.8364 125.139 49.5715 126.511 50.9691C127.882 52.3667 128.545 54.3739 128.498 56.9906C128.453 59.5195 127.801 61.587 126.543 63.1929C125.284 64.7988 123.361 65.5553 120.775 65.4624C118.618 65.3849 116.918 64.5959 115.675 63.0954C114.432 61.5852 113.833 59.5998 113.877 57.1393C113.924 54.503 114.629 52.4277 115.994 50.9135C117.359 49.3993 119.169 48.6828 121.423 48.7638Z" fill="white"/>
<path d="M134.269 44.8136L136.932 44.6939L137.029 49.0727L139.532 48.9603L139.579 51.1131L137.077 51.2255L137.304 61.4623C137.317 62.009 137.51 62.3668 137.885 62.5356C138.092 62.6338 138.435 62.6722 138.913 62.6507C139.04 62.645 139.176 62.6389 139.323 62.6323C139.469 62.616 139.639 62.5937 139.834 62.5654L139.88 64.6449C139.579 64.7464 139.264 64.8241 138.933 64.878C138.612 64.9316 138.261 64.9669 137.881 64.984C136.651 65.0392 135.81 64.7643 135.357 64.1591C134.904 63.5442 134.667 62.734 134.644 61.7284L134.414 51.3452L132.292 51.4405L132.244 49.2878L134.366 49.1924L134.269 44.8136Z" fill="white"/>
<path d="M157.872 44.4771C157.818 43.3807 157.938 42.5505 158.232 41.9868C158.762 40.9875 159.894 40.3394 161.626 40.0422C161.79 40.0142 161.959 39.9902 162.133 39.9702C162.307 39.9502 162.506 39.9309 162.729 39.9124L162.932 42.3062C162.66 42.333 162.462 42.3571 162.337 42.3785C162.221 42.3886 162.11 42.4027 162.004 42.4209C161.215 42.5562 160.761 42.8463 160.642 43.2912C160.523 43.7263 160.535 44.7904 160.678 46.4835L163.248 46.0428L163.424 48.1154L160.825 48.5611L161.969 62.0479L159.399 62.4887L158.255 49.0019L156.104 49.3708L155.928 47.2982L158.08 46.9292L157.872 44.4771Z" fill="white"/>
<path d="M176.753 57.2213C178.447 56.7907 179.525 55.842 179.985 54.3751C180.454 52.8961 180.587 51.3524 180.385 49.744C180.202 48.2906 179.826 47.1662 179.258 46.3709C178.358 45.1197 177.028 44.7178 175.268 45.1653C173.706 45.5622 172.647 46.4614 172.091 47.8627C171.534 49.264 171.364 50.827 171.581 52.5517C171.789 54.2086 172.318 55.4991 173.166 56.4233C174.015 57.3475 175.211 57.6135 176.753 57.2213ZM175.052 42.8654C177.011 42.3674 178.752 42.6149 180.273 43.6081C181.794 44.6012 182.718 46.3961 183.045 48.9929C183.36 51.5025 183.024 53.7276 182.037 55.6682C181.051 57.6089 179.303 58.8979 176.795 59.5355C174.703 60.0671 172.952 59.7675 171.54 58.6365C170.127 57.4958 169.267 55.7046 168.96 53.2629C168.631 50.6467 169.018 48.3987 170.12 46.5188C171.222 44.6389 172.866 43.4211 175.052 42.8654Z" fill="white"/>
<path d="M189.706 39.0696L191.519 49.3257C191.658 50.1142 191.892 50.7158 192.219 51.1304C192.824 51.8957 193.728 52.063 194.933 51.6322C196.662 51.014 197.696 49.7853 198.036 47.9462C198.223 46.959 198.183 45.7105 197.916 44.2007L196.575 36.6133L199.058 35.7254L201.789 51.1744L199.444 52.0129L199.068 49.7239C198.85 50.4256 198.538 51.0639 198.131 51.6388C197.327 52.7853 196.249 53.6002 194.897 54.0836C192.791 54.8366 191.227 54.6139 190.203 53.4155C189.65 52.775 189.257 51.7959 189.024 50.4785L187.168 39.9772L189.706 39.0696Z" fill="white"/>
<path d="M205.184 33.2808L207.456 32.2252L207.954 34.3952C208.422 33.1878 208.987 32.2141 209.65 31.474C210.314 30.734 211.106 30.1499 212.027 29.7219C214.046 28.7836 215.583 28.9065 216.64 30.0905C217.219 30.7375 217.687 31.8319 218.041 33.3738L220.294 43.1818L217.863 44.3115L215.649 34.6748C215.435 33.7421 215.134 33.0499 214.746 32.5981C214.102 31.8439 213.222 31.7261 212.106 32.2446C211.539 32.508 211.089 32.7859 210.754 33.0784C210.147 33.5923 209.667 34.2786 209.316 35.1373C209.033 35.8269 208.892 36.4718 208.893 37.0719C208.9 37.6584 209.018 38.4514 209.248 39.4507L211.088 47.4599L208.697 48.5711L205.184 33.2808Z" fill="white"/>
<path d="M226.436 31.7621C226.896 33.3774 227.591 34.5517 228.519 35.2849C229.447 36.0181 230.592 35.9919 231.954 35.2064C233.011 34.5964 233.735 33.5939 234.125 32.1987C234.521 30.7892 234.45 29.1406 233.912 27.2529C233.368 25.3465 232.616 24.1403 231.654 23.6343C230.689 23.1189 229.691 23.1589 228.659 23.7541C227.509 24.4177 226.713 25.4452 226.273 26.8367C225.84 28.2232 225.895 29.8651 226.436 31.7621ZM227.597 21.7913C228.638 21.1912 229.579 20.9328 230.42 21.0161C230.906 21.0637 231.508 21.2908 232.225 21.6975L230.052 14.0764L232.247 12.8102L238.167 33.5746L236.112 34.7602L235.513 32.6613C235.245 33.8984 234.807 34.9334 234.197 35.7662C233.587 36.5991 232.813 37.2863 231.874 37.8279C230.36 38.7013 228.848 38.7532 227.338 37.9837C225.825 37.2048 224.734 35.6414 224.065 33.2936C223.438 31.096 223.4 28.9039 223.948 26.7174C224.503 24.5165 225.719 22.8745 227.597 21.7913Z" fill="white"/>
</svg>
