<?xml version='1.0' encoding='utf-8'?>
<svg xmlns="http://www.w3.org/2000/svg" id="svg9" height="144.98mm" width="109.33mm" version="1.0"> <metadata id="metadata13"> </metadata> <defs id="defs3"> <pattern y="0" x="0" height="6" width="6" patternUnits="userSpaceOnUse" id="EMFhbasepattern"/> </defs> <path id="path5" d=" M 189.99282,1.5989297 L 188.27397,12.071919 L 181.51849,72.551433 C 169.44657,77.867874 161.85165,79.426831 149.77974,84.783245 C 141.70514,88.500757 132.63122,91.49875 124.51665,95.256235 L 108.28751,105.00971 C 111.96505,136.9883 116.36211,138.70715 122.03831,169.68641 C 124.51665,185.51581 125.43603,188.55378 126.03563,199.90618 C 126.63523,211.29855 126.31544,222.21125 125.55595,237.88076 C 124.11691,256.62821 123.71718,275.85534 122.27815,294.60279 L 116.80181,354.80249 C 112.28484,367.0343 110.28617,381.02494 105.80917,393.25675 L 87.301559,440.70499 C 75.709319,457.61367 76.628704,457.01407 70.552771,463.44976 L 49.32698,480.67823 C 41.652118,484.99534 33.737416,492.0706 26.102527,496.38771 L 0.079946483,506.90068 C 8.5942469,506.58089 16.828735,507.22046 25.343035,506.90068 C 33.737416,506.14118 41.891957,503.90268 50.326311,503.14319 L 63.797293,503.14319 C 68.833922,509.13918 68.07443,513.65615 67.314939,516.37433 L 54.083796,545.35493 C 65.995822,539.279 77.148356,531.20441 89.060382,525.12847 L 118.04098,511.65749 C 120.43938,511.05789 126.63523,506.98062 125.79579,516.65415 L 112.28484,535.64144 C 122.35809,531.52419 130.7125,525.20842 140.78576,521.13115 C 145.10287,520.05187 148.9403,517.45361 153.25741,516.37433 C 158.25406,515.45495 153.25741,516.05455 168.24737,513.65615 C 179.51983,513.65615 184.27664,513.65615 189.2733,515.89465 C 195.26928,519.57219 202.98412,521.45094 208.98011,525.12847 L 224.48972,538.63943 C 226.08865,534.36229 226.64828,528.88596 228.24721,524.64879 L 233.24386,514.37567 C 243.71685,519.89198 254.22982,527.12714 264.70281,532.64344 L 295.20239,546.5941 C 294.283,541.19772 288.88662,536.52085 287.96723,531.12446 C 286.68809,526.20775 287.40761,529.04585 284.44959,513.1365 C 283.49023,510.45829 279.6528,506.10121 288.20707,504.66217 C 304.27631,505.8214 321.10505,504.74212 337.17429,505.90134 L 403.88963,512.13717 C 395.05555,508.21979 377.98697,504.06258 369.15289,500.1452 C 365.23551,497.06726 360.07896,496.50763 357.40075,490.91138 C 360.15891,487.43371 358.16024,486.43438 364.67588,486.15456 C 372.59058,485.75483 380.22547,484.31579 388.14018,483.91606 L 412.12412,483.67622 C 401.05153,477.52034 388.22012,474.08264 377.14753,467.92677 L 354.16292,451.69763 C 347.56733,444.10271 341.01172,435.38855 335.17563,423.39657 C 329.33954,411.4046 324.18299,396.09485 319.18633,379.74579 C 315.9485,361.11826 310.71201,342.97041 307.4342,324.30291 L 301.19837,274.85601 C 301.03848,260.86537 300.35894,247.87407 300.19904,233.88344 L 301.43821,182.19803 C 304.11642,154.53655 310.51214,127.15488 308.95318,100.01305 C 287.16777,88.500757 297.68073,93.057706 289.2064,89.260248 C 280.6921,85.46279 266.5016,80.026429 257.22781,76.268945 L 232.24453,68.034457 L 226.24855,0.079946483 L 218.73358,16.588895 C 215.4158,16.069243 217.0547,14.590233 207.74094,14.070581 C 195.90886,15.589564 200.06607,16.069243 196.26862,17.068574 L 189.99282,1.5989297 z " style="fill:#000000;fill-rule:evenodd;fill-opacity:1;stroke:none;"/> <path id="path7" d=" M 220.73224,125.23617 C 220.73224,125.23617 224.72956,130.7125 222.93077,133.59057 C 221.57168,135.66918 219.33318,136.18883 217.45443,136.18883 C 211.89815,136.18883 211.69829,133.03095 211.69829,133.03095 L 210.9388,123.43737 L 208.34053,127.55461 L 204.0634,127.55461 L 201.46514,123.43737 L 200.74562,133.03095 C 200.74562,133.03095 200.54575,136.18883 194.98947,136.18883 C 193.07076,136.18883 190.83225,135.66918 189.51314,133.59057 C 187.67437,130.7125 191.63172,125.23617 191.63172,125.23617 C 180.759,128.27413 173.20406,134.54993 173.20406,141.86503 C 173.20406,147.54123 177.80098,152.61784 184.99616,156.01556 C 184.15672,154.81636 182.07812,151.29872 184.39656,148.82038 C 187.31461,145.82239 191.87156,147.62118 193.87022,150.65915 C 193.87022,150.65915 194.03011,147.18148 197.50779,147.62118 C 201.02543,148.10086 205.58238,152.2181 206.18198,157.05487 C 206.82155,152.2181 211.41847,148.10086 214.89615,147.62118 C 218.37382,147.18148 218.53371,150.65915 218.53371,150.65915 C 220.53237,147.62118 225.08932,145.82239 228.00737,148.82038 C 230.36579,151.29872 228.28718,154.81636 227.40777,156.01556 C 234.60295,152.61784 239.23985,147.54123 239.23985,141.86503 C 239.23985,134.5899 231.68491,128.27413 220.73224,125.23617 z M 206.18198,120.31946 C 227.3678,120.31946 244.55629,129.99298 244.55629,141.86503 C 244.55629,153.73709 227.3678,163.33066 206.18198,163.33066 C 184.99616,163.33066 167.80767,153.73709 167.80767,141.86503 C 167.80767,129.99298 184.99616,120.31946 206.18198,120.31946 z " style="fill:#ffdd00;fill-rule:evenodd;fill-opacity:1;stroke:none;"/> </svg>