<svg width="44" height="47" viewBox="0 0 44 47" fill="none" xmlns="http://www.w3.org/2000/svg">
<path d="M35.1096 1.5138C35.0063 1.42128 34.8928 1.33665 34.7632 1.27101C33.9571 0.865579 33.0086 0.671918 32.0985 0.836306C31.2443 0.990572 30.5505 1.37337 29.9041 1.89489C29.6533 1.97613 29.4211 2.11904 29.243 2.331C28.2127 3.55697 27.7477 4.90265 28.1509 6.44412C28.2437 6.79896 28.5089 7.05887 28.8339 7.21221C29.0578 7.76524 29.382 8.27599 29.8459 8.74318C30.5362 9.43704 31.5917 9.64417 32.5886 9.61906C33.3946 13.0811 33.134 17.2454 29.9219 19.54C27.9667 20.9366 25.1709 20.3344 23.1069 19.6622C18.345 18.1124 14.2388 15.0571 10.1386 12.3106C10.4036 11.8086 10.5871 11.2583 10.6491 10.6513C10.6677 10.4697 10.6561 10.2914 10.62 10.1226C10.6171 9.99164 10.605 9.86064 10.5754 9.72849C10.3187 8.58719 9.5122 7.66024 8.52501 7.04506C8.49449 7.0259 8.46233 7.0122 8.43115 6.99481C8.32747 6.90271 8.21437 6.81767 8.08469 6.75203C7.27863 6.34659 6.33032 6.15292 5.42013 6.31724C4.566 6.47157 3.87181 6.85417 3.22563 7.3759C2.97488 7.45722 2.74242 7.60046 2.56461 7.81193C1.53435 9.0379 1.06905 10.3838 1.47249 11.925C1.56538 12.2798 1.83032 12.54 2.15543 12.6935C2.37924 13.2464 2.70335 13.7572 3.16755 14.2241C4.06298 15.1251 5.57598 15.2094 6.77442 15.0242C7.0775 14.9771 7.31954 14.8579 7.51379 14.7002C7.66511 14.63 7.80807 14.549 7.95222 14.4689C11.8406 18.5861 16.0977 23.1263 17.8152 28.5896C19.6394 34.3936 14.3186 37.4118 9.41865 39.0709C9.13901 37.9725 8.35486 37.0778 7.39502 36.4791C7.36468 36.4602 7.33248 36.4461 7.30141 36.429C7.19762 36.3366 7.08446 36.2518 6.95479 36.1861C6.14872 35.7807 5.20047 35.5868 4.29037 35.7512C3.43601 35.9056 2.74168 36.2885 2.09579 36.8099C1.84479 36.891 1.61265 37.0342 1.4347 37.246C0.404439 38.472 -0.0606347 39.8177 0.342659 41.3591C0.435692 41.7136 0.700636 41.9738 1.02559 42.1275C1.24948 42.6803 1.57374 43.1909 2.03781 43.6582C2.93331 44.5591 4.44663 44.6434 5.64491 44.4583C5.94799 44.4112 6.18978 44.2918 6.38417 44.1339C7.20029 43.7548 7.9132 43.2286 8.45645 42.5773C12.318 43.767 16.171 44.976 20.1185 45.8873C20.2615 45.9204 20.3935 45.9278 20.52 45.9235C20.8337 46.1094 21.2368 46.1529 21.6985 45.9405C31.9934 41.2004 38.793 32.0145 43.2234 22.0556C43.4143 21.6263 43.3867 21.2317 43.2287 20.908C43.3099 20.5759 43.2734 20.2098 43.047 19.8471C40.6202 15.9664 38.1143 12.1356 35.6462 8.28132C36.5637 7.49182 37.1964 6.446 37.3261 5.17118C37.3449 4.98981 37.3329 4.81135 37.2972 4.64262C37.294 4.51155 37.282 4.38055 37.2523 4.24833C36.9955 3.10712 36.1891 2.18008 35.2019 1.5649C35.1732 1.54455 35.1411 1.53076 35.1096 1.5138ZM6.05724 39.3463C6.50943 39.9518 6.46221 40.8587 5.53552 41.3552C3.33717 42.5346 2.28411 38.975 4.63297 38.7424C5.25032 38.6814 5.76072 38.9499 6.05724 39.3463ZM5.76239 9.30925C6.38005 9.24805 6.89069 9.51557 7.1871 9.91261C7.63907 10.5183 7.59185 11.4253 6.66508 11.9217C4.46562 13.1012 3.41315 9.5421 5.76239 9.30925ZM40.4378 21.1936C36.3753 30.2124 30.2649 38.7871 20.9314 43.164C20.8412 43.1244 20.7455 43.0903 20.6399 43.0663C17.9465 42.4447 15.3014 41.6753 12.6652 40.8743C17.5339 38.7785 21.6977 35.3158 20.9975 29.5031C20.5854 26.0837 18.8569 22.8933 16.6688 19.9621C19.3524 21.4518 22.173 22.6402 25.2199 23.1062C28.1145 23.5499 30.8233 22.7356 32.934 20.7166C34.8367 18.8977 35.6723 16.4953 35.8534 14.0116C37.393 16.399 38.9295 18.7879 40.4378 21.1936ZM33.8648 4.43183C34.3168 5.03752 34.2695 5.94448 33.3425 6.44138C31.1441 7.62079 30.0911 4.06113 32.4402 3.82845C33.0577 3.76711 33.5684 4.03479 33.8648 4.43183Z" fill="white"/>
<path d="M30.9038 24.9895C30.7794 24.8791 30.6448 24.7779 30.4892 24.7C29.5254 24.2148 28.3924 23.9834 27.3042 24.1798C26.2829 24.3647 25.4528 24.8219 24.6813 25.4453C24.3814 25.543 24.1033 25.7136 23.8912 25.966C22.6588 27.4316 22.1031 29.0405 22.5859 30.8831C22.697 31.3069 23.0137 31.6181 23.4023 31.8021C23.6696 32.4624 24.0573 33.0733 24.6124 33.6321C25.683 34.7092 27.4916 34.8102 28.9244 34.588C29.2863 34.5318 29.5758 34.3889 29.8085 34.2003C31.8216 33.2633 33.3276 31.5984 33.5563 29.36C33.5783 29.1438 33.5649 28.9304 33.5219 28.7278C33.5177 28.5715 33.5038 28.4149 33.4681 28.2574C33.1607 26.8934 32.1967 25.7847 31.0174 25.0492C30.9796 25.0268 30.9407 25.0103 30.9038 24.9895ZM29.4148 28.4781C29.9554 29.2024 29.8988 30.2861 28.7907 30.8805C26.162 32.2899 24.9042 28.0352 27.7114 27.757C28.4501 27.6833 29.0613 28.0036 29.4148 28.4781Z" fill="white"/>
<path d="M19.3277 39.1063C18.1024 40.5285 20.324 42.344 21.5493 40.9218C22.7745 39.4996 20.5529 37.6841 19.3277 39.1063Z" fill="white"/>
<path d="M37.6537 22.8874C38.8791 21.465 36.6576 19.6496 35.4322 21.072C34.2071 22.4941 36.4286 24.3095 37.6537 22.8874Z" fill="white"/>
</svg>
