<?xml version="1.0" encoding="iso-8859-1"?>
<!-- Generator: Adobe Illustrator 16.0.0, SVG Export Plug-In . SVG Version: 6.00 Build 0)  -->
<!DOCTYPE svg PUBLIC "-//W3C//DTD SVG 1.1//EN" "http://www.w3.org/Graphics/SVG/1.1/DTD/svg11.dtd">
<svg version="1.1" id="Capa_1" xmlns="http://www.w3.org/2000/svg" xmlns:xlink="http://www.w3.org/1999/xlink" x="0px" y="0px"
	 width="192.356px" height="192.356px" viewBox="0 0 192.356 192.356" style="enable-background:new 0 0 192.356 192.356;"
	 xml:space="preserve">
<g>
	<path d="M153.079,177.115c-0.236-0.611-0.637-0.907-1.286-0.979c-1.779-0.197-3.56-0.395-5.341-0.593
		c-0.005-0.001-0.009,0.002-0.014,0.002c-19.169-20.015-30.902-43.763-38.027-70.395c-6.833-25.54-4.4-52.332-8.55-78.014
		c1.092,0.265,2.406,0.003,3.43-0.472c1.708-0.791,2.88-2.716,3.359-4.462c1.043-3.804-1.991-7.112-5.5-6.672
		c0.134-1.32-0.212-2.82-0.729-3.803c-0.932-1.774-2.559-2.971-4.52-3.315c0.211-2.462,0.368-5.03-0.536-7.353
		c-0.482-1.239-2.53-1.575-2.857,0c-0.522,2.516,0.028,5.028,0.339,7.543c-2.465,0.871-3.82,3.412-4.224,6.138
		c-3.168-0.499-6.661,2.476-6.632,5.662c0.019,2.067,2.049,4.374,4.18,4.995c-5.456,27.545-4.028,55.928-10.517,83.657
		c-3.803,16.252-8.604,31.636-17.166,46.104c-4.813,8.132-11.616,13.698-12.803,22.922c-9.924-2.299-12.065,10.721-5.987,11.038
		c20.348,1.058,39.876,4.104,60.363,3.002c17.468-0.938,37.233,0.53,54.304-2.792c0.973-0.189,1.508-1.164,1.573-2.066
		C156.335,181.706,155.764,184.032,153.079,177.115z M149.79,185.663c-7.357-0.087-14.81,0.489-22.162,0.798
		c-11.652,0.49-23.238,1.473-34.91,1.624c-12.388,0.162-24.529-0.146-36.833-1.669c-5.573-0.688-21.58-2.257-9.613-5.661
		c0.038-0.008,0.071-0.017,0.107-0.032c0.097-0.027,0.159-0.053,0.26-0.08c0.747-0.204,0.946-0.916,0.756-1.519
		c5.068-10.021,12.174-18.521,18.03-28.097c7.537-12.324,10.844-27.039,14.287-40.856c6.927-27.799,10.168-56.79,11.625-85.354
		c0.091-1.779-1.662-2.683-3.119-2.418c-0.824-0.504-1.645-0.998-1.875-1.993c-0.423-1.832,2.938-1.959,3.89-2.543
		c0.681-0.418,0.851-1.224,0.568-1.872c0.699-1.806,1.404-3.845,3.362-4.377c1.401-0.381,2.819,0.637,3.3,1.888
		c0.496,1.288-0.11,2.573,0.61,3.785c0.418,0.702,1.195,0.794,1.845,0.471c1.692,0.62,3.541,1.176,2.857,3.376
		c-0.78,2.51-2.199,1.229-3.982,2.097c-0.727,0.354-1.058,1.33-0.844,2.075c0.027,0.093,0.076,0.157,0.108,0.243
		c-3.989,27.775,3.234,60.469,8.965,87.703c5.072,24.105,17.5,50.165,37.403,65.333c0.217,0.166,0.437,0.26,0.653,0.305
		c0.311,0.355,0.765,0.573,1.371,0.506C152.04,179.287,153.153,181.376,149.79,185.663z"/>
	<path d="M125.958,180.131c-0.016-0.038-0.032-0.071-0.049-0.109c-0.062-0.334-0.179-0.654-0.408-0.907
		c-7.333-16.657-19.083-26.584-38.553-23.926c-8.85,1.208-29.184,12.191-26.701,23.586c-0.412,0.344-0.43,1.132,0.101,1.438
		c6.254,3.608,16.451,2.186,23.382,2.582c13.441,0.771,26.492,1.614,39.925-0.102C124.893,183.272,126.659,181.792,125.958,180.131z
		 M62.846,178.734c4.271-10.936,16.949-17.958,27.975-18.958c14.396-1.306,23.982,7.247,30.31,18.748
		C101.751,178.578,82.174,180.047,62.846,178.734z"/>
	<path d="M110.762,142.308c0.025-2.706-1.29-5.221-2.496-7.656c-2.537-5.123-3.631-10.44-5.723-15.671
		c-0.129-0.323-0.362-0.529-0.605-0.706c-0.185-0.485-0.494-0.913-1.075-1.044c-2.101-0.474-4.302-0.235-6.447-0.224
		c-2.398,0.014-4.764,0.069-7.154,0.264c-0.551,0.045-0.889,0.319-1.115,0.663c-0.351,0.163-0.649,0.412-0.731,0.849
		c-0.938,4.976-2.333,9.975-4.325,14.637c-1.411,3.305-3.035,6.543-2.862,10.227c0.009,0.19,0.115,0.298,0.178,0.443
		c-0.174,0.959,0.636,2.153,1.929,1.961c5.04-0.746,10.114-0.959,15.204-0.968c4.562-0.008,9.229,0.893,13.752,0.549
		C111.046,145.498,111.768,143.407,110.762,142.308z M81.234,142.663c3.087-7.292,8.026-14.196,7.139-22.368
		c3.594,0.381,7.605,0.961,11.181,0.508c0.176,7.399,2.781,14.301,7.078,20.275C98.543,139.793,89.142,141.026,81.234,142.663z"/>
	<path d="M101.762,108.331c-1.211-4.759-0.789-9.749-1.546-14.59c-1.161-7.438-3.264-14.69-4.896-22.03
		c-0.5-2.251-3.503-1.474-3.725,0.504c-0.791,7.031-2.927,13.849-3.912,20.861c-0.76,5.414-1.224,10.875-1.934,16.301
		c-0.136,1.038,1.123,1.229,1.769,0.698c0.134,0.173,0.309,0.321,0.557,0.388c2.056,0.557,4.289,0.648,6.41,0.76
		c2.09,0.108,4.15,0.509,6.076-0.412c0.411-0.197,0.616-0.598,0.715-1.027C101.68,109.485,101.928,108.983,101.762,108.331z
		 M94.484,107.532c-1.921,0.091-3.929,0.225-5.82,0.656c1.973-3.761,2.588-8.037,3.134-12.268c0.581-4.496,1.428-8.906,2.185-13.336
		c0.748,3.126,1.48,6.256,2.109,9.411c1.03,5.162,1.152,10.375,2.506,15.441C97.26,107.29,95.884,107.465,94.484,107.532z"/>
</g>
<g>
</g>
<g>
</g>
<g>
</g>
<g>
</g>
<g>
</g>
<g>
</g>
<g>
</g>
<g>
</g>
<g>
</g>
<g>
</g>
<g>
</g>
<g>
</g>
<g>
</g>
<g>
</g>
<g>
</g>
</svg>
