<svg width="128" height="87" viewBox="0 0 128 87" fill="none" xmlns="http://www.w3.org/2000/svg">
<path d="M66.293 87C90.3425 87 109.838 67.5244 109.838 43.5C109.838 19.4756 90.3425 0 66.293 0C42.2435 0 22.7476 19.4756 22.7476 43.5C22.7476 67.5244 42.2435 87 66.293 87Z" fill="#F5C85C"/>
<path d="M106.067 27.1052C106.701 28.6879 107.251 30.3026 107.716 31.9425C108.057 33.2083 108.274 34.504 108.366 35.8115L114.974 33.8979V42.9869L127.999 36.7681L120.817 32.4628L126.563 18.9728L106.067 27.1052Z" fill="url(#paint0_linear_685_38)"/>
<path d="M26.5217 27.916L1.75663 19.368L7.70714 32.2753L0 37.0873L13.5444 42.9184V33.0684L24.0291 37.5409C24.0601 36.0314 24.2661 34.5306 24.6429 33.0684C25.1415 31.3071 25.7695 29.585 26.5217 27.916Z" fill="url(#paint1_linear_685_38)"/>
<path d="M66.2932 78.1311C85.4394 78.1311 100.961 62.6262 100.961 43.5C100.961 24.3738 85.4394 8.86896 66.2932 8.86896C47.147 8.86896 31.626 24.3738 31.626 43.5C31.626 62.6262 47.147 78.1311 66.2932 78.1311Z" fill="url(#paint2_radial_685_38)"/>
<path d="M66.2933 77.7087C85.206 77.7087 100.538 62.393 100.538 43.5C100.538 24.607 85.206 9.29126 66.2933 9.29126C47.3806 9.29126 32.0488 24.607 32.0488 43.5C32.0488 62.393 47.3806 77.7087 66.2933 77.7087Z" stroke="#C57D1A" stroke-width="2"/>
<path d="M13.4106 32.9219C13.4106 32.9219 17.7618 34.8532 22.2939 36.5505C26.826 38.2479 31.8824 39.9292 31.8824 39.9292L41.6061 42.0995C44.3658 42.7124 47.1617 43.1487 49.977 43.4058C55.339 43.9612 56.1761 44.0777 63.055 44.3201C67.8346 44.4203 72.6155 44.1957 77.3646 43.6478C82.7877 43.0022 88.1718 42.0637 93.4933 40.8363C98.8418 39.5719 104.184 36.904 107.965 35.8503C117.393 33.223 115.009 33.7294 115.009 33.7294L115.077 53.0252L97.1088 58.6844C97.1088 58.6844 87.2266 60.5929 79.2146 61.683C74.6939 62.3262 70.1361 62.6754 65.5701 62.7282C65.5701 62.7282 57.8659 62.6721 51.3916 61.9444C44.9173 61.2167 39.1642 60.1381 39.1642 60.1381C39.1642 60.1381 27.3828 57.632 21.0298 55.8531C14.6769 54.0743 13.7523 53.0235 13.7523 53.0235C13.7523 53.0235 13.6322 48.1764 13.5464 43.1507C13.4606 38.125 13.4106 32.9219 13.4106 32.9219Z" fill="url(#paint3_linear_685_38)"/>
<defs>
<linearGradient id="paint0_linear_685_38" x1="124.754" y1="42.9869" x2="71.3071" y2="15.0193" gradientUnits="userSpaceOnUse">
<stop stop-color="#E42833"/>
<stop offset="1" stop-color="#B50EAE"/>
</linearGradient>
<linearGradient id="paint1_linear_685_38" x1="18.4326" y1="48.8767" x2="-5.76388" y2="7.51201" gradientUnits="userSpaceOnUse">
<stop stop-color="#E42833"/>
<stop offset="1" stop-color="#B50EAE"/>
</linearGradient>
<radialGradient id="paint2_radial_685_38" cx="0" cy="0" r="1" gradientUnits="userSpaceOnUse" gradientTransform="translate(66.2932 43.5) scale(34.6673 34.6311)">
<stop stop-color="#E1AF37"/>
<stop offset="1" stop-color="#FBD360"/>
</radialGradient>
<linearGradient id="paint3_linear_685_38" x1="126.177" y1="69.8222" x2="106.766" y2="-4.62975" gradientUnits="userSpaceOnUse">
<stop stop-color="#E42833"/>
<stop offset="1" stop-color="#B50EAE"/>
</linearGradient>
</defs>
</svg>
