<svg width="27" height="53" viewBox="0 0 27 53" fill="none" xmlns="http://www.w3.org/2000/svg">
<path d="M26.3297 48.2081C26.2765 48.0418 26.1861 47.9612 26.0398 47.9416C25.6386 47.888 25.2371 47.8341 24.8355 47.7802C24.8344 47.7799 24.8335 47.7807 24.8324 47.7807C20.5102 42.333 17.8647 35.8691 16.2582 28.6203C14.7175 21.6687 15.2661 14.3763 14.3304 7.38601C14.5766 7.45814 14.8729 7.38683 15.1038 7.25754C15.4889 7.04224 15.7531 6.51829 15.8611 6.04305C16.0963 5.00766 15.4122 4.10727 14.621 4.22703C14.6512 3.86775 14.5732 3.45947 14.4567 3.19191C14.2465 2.70905 13.8797 2.38325 13.4375 2.28962C13.4851 1.6195 13.5205 0.920526 13.3167 0.28824C13.208 -0.0489975 12.7462 -0.140452 12.6725 0.28824C12.5548 0.973058 12.6788 1.65679 12.7489 2.34133C12.1931 2.57841 11.8876 3.27003 11.7965 4.01201C11.0822 3.87618 10.2946 4.68594 10.3012 5.55312C10.3054 6.11572 10.7631 6.74366 11.2436 6.91268C10.0134 14.41 10.3354 22.1355 8.87232 29.6829C8.01483 34.1064 6.93233 38.2937 5.00181 42.2317C3.9166 44.4451 2.38269 45.9601 2.11505 48.4707C-0.122566 47.845 -0.605309 51.3888 0.76513 51.4751C5.3531 51.7631 9.75618 52.5922 14.3755 52.2922C18.3141 52.0369 22.7706 52.4365 26.6197 51.5323C26.8391 51.4808 26.9597 51.2154 26.9744 50.9699C27.0639 49.4577 26.9351 50.0908 26.3297 48.2081ZM25.5881 50.5347C23.9293 50.511 22.2489 50.6678 20.5912 50.7519C17.9639 50.8853 15.3516 51.1528 12.7198 51.1939C9.92664 51.238 7.18914 51.1542 4.4149 50.7397C3.15832 50.5524 -0.450859 50.1253 2.2474 49.1988C2.25597 49.1967 2.26341 49.1942 2.27153 49.1901C2.2934 49.1828 2.30738 49.1757 2.33015 49.1683C2.49858 49.1128 2.54345 48.919 2.50061 48.7549C3.64332 46.0273 5.24555 43.7137 6.56593 41.1073C8.26534 37.7529 9.01098 33.7477 9.78729 29.9869C11.3492 22.4204 12.0799 14.5295 12.4084 6.75482C12.429 6.2706 12.0337 6.02454 11.7052 6.09667C11.5194 5.95949 11.3343 5.82503 11.2824 5.55421C11.187 5.05556 11.9449 5.021 12.1595 4.86204C12.3131 4.74827 12.3514 4.52889 12.2876 4.35251C12.4452 3.86094 12.6042 3.30596 13.0456 3.16115C13.3615 3.05745 13.6812 3.33454 13.7897 3.67504C13.9015 4.02561 13.7649 4.37537 13.9272 4.70526C14.0215 4.89634 14.1967 4.92138 14.3432 4.83346C14.7247 5.00221 15.1417 5.15355 14.9874 5.75236C14.8116 6.43554 14.4916 6.08687 14.0896 6.32313C13.9257 6.41948 13.851 6.68514 13.8993 6.88791C13.9054 6.91323 13.9164 6.93065 13.9236 6.95405C13.0242 14.514 14.6528 23.4128 15.945 30.8255C17.0886 37.3865 19.8908 44.4797 24.3785 48.6082C24.4274 48.6534 24.477 48.679 24.5257 48.6912C24.5958 48.7878 24.6982 48.8472 24.8348 48.8289C26.0955 48.7993 26.3464 49.3679 25.5881 50.5347Z" fill="white"/>
<path d="M20.2148 49.029C20.2112 49.0187 20.2076 49.0097 20.2037 48.9993C20.1898 48.9084 20.1634 48.8213 20.1117 48.7525C18.4583 44.2187 15.809 41.5167 11.419 42.2402C9.42354 42.569 4.83873 45.5584 5.39858 48.6599C5.30568 48.7535 5.30163 48.968 5.42135 49.0513C6.83147 50.0334 9.13065 49.6463 10.6934 49.7541C13.724 49.964 16.6667 50.1934 19.6955 49.7263C19.9747 49.8839 20.3728 49.4811 20.2148 49.029ZM5.98459 48.6488C6.94759 45.6721 9.80617 43.7609 12.2923 43.4887C15.5382 43.1332 17.6996 45.4612 19.1264 48.5916C14.7567 48.6063 10.3426 49.0061 5.98459 48.6488Z" fill="white"/>
<path d="M16.7885 38.7341C16.7941 37.9976 16.4976 37.3131 16.2257 36.6503C15.6536 35.2559 15.407 33.8087 14.9353 32.3849C14.9062 32.297 14.8536 32.2409 14.7989 32.1927C14.7571 32.0607 14.6875 31.9442 14.5565 31.9085C14.0827 31.7795 13.5865 31.8446 13.1028 31.8476C12.5621 31.8514 12.0287 31.8664 11.4898 31.9194C11.3655 31.9317 11.2893 32.0063 11.2384 32.0999C11.1592 32.1443 11.092 32.212 11.0736 32.331C10.8621 33.6854 10.5475 35.046 10.0984 36.3149C9.78023 37.2145 9.41406 38.0959 9.45306 39.0986C9.45509 39.1503 9.47899 39.1797 9.4932 39.2192C9.45397 39.4802 9.6366 39.8052 9.92814 39.7529C11.0645 39.5499 12.2086 39.4919 13.3563 39.4894C14.3849 39.4873 15.4372 39.7325 16.457 39.6389C16.8525 39.6024 17.0153 39.0333 16.7885 38.7341ZM10.1306 38.8308C10.8267 36.846 11.9403 34.9668 11.7403 32.7425C12.5506 32.8462 13.455 33.0041 14.2613 32.8808C14.301 34.8947 14.8884 36.7733 15.8572 38.3993C14.0334 38.0496 11.9137 38.3852 10.1306 38.8308Z" fill="white"/>
<path d="M14.7588 29.4861C14.4858 28.1908 14.5809 26.8325 14.4102 25.5149C14.1485 23.4904 13.6743 21.5165 13.3063 19.5187C13.1936 18.906 12.5165 19.1175 12.4664 19.6558C12.2881 21.5696 11.8065 23.4253 11.5844 25.3339C11.413 26.8075 11.3084 28.2939 11.1483 29.7708C11.1176 30.0533 11.4015 30.1053 11.5472 29.9608C11.5774 30.0079 11.6168 30.0481 11.6727 30.0664C12.1363 30.218 12.6398 30.2428 13.118 30.2732C13.5893 30.3026 14.0538 30.4118 14.488 30.1611C14.5807 30.1075 14.6269 29.9983 14.6492 29.8816C14.7403 29.8002 14.7963 29.6635 14.7588 29.4861ZM13.1178 29.2686C12.6847 29.2934 12.2319 29.3298 11.8056 29.4472C12.2504 28.4235 12.3891 27.2596 12.5122 26.108C12.6432 24.8842 12.8342 23.6839 13.0049 22.4781C13.1735 23.329 13.3386 24.1809 13.4804 25.0397C13.7126 26.4447 13.7401 27.8636 14.0454 29.2425C13.7437 29.2027 13.4335 29.2504 13.1178 29.2686Z" fill="white"/>
</svg>
