<?xml version="1.0" encoding="utf-8"?>
<svg xmlns="http://www.w3.org/2000/svg" xmlns:xlink="http://www.w3.org/1999/xlink" version= "1.1" width="1672px" height="1196px" viewBox="-296 466 1672 1196">
<g id="layer1">
<g style="fill:rgb(255,255,255); fill-opacity:0 stroke-linejoin: miter">
<path d="M-309.40152,455.30002L-309.4015,1671.4202L1390.6156,1671.4174L1390.3029,455.4754L-309.40152,455.30002 Z"/>
</g>
<g style="fill:rgb(90,43,22); fill-opacity:1.0; stroke-linejoin: miter">
<path d="M398.8715,1013.12366L400.0349,1010.77Q406.8946,1005.95917,416.13995,1009.68054Q427.48135,1013.4966,435.06384,1022.14514Q439.13013,1027.4088,439.25522,1033.2495Q439.83582,1038.3003,435.7921,1052.2578Q441.21463,1058.68,443.16675,1063.0325Q444.66373,1066.8776,443.1361,1069.3792Q441.43414,1073.7032,424.1256,1082.8499L415.98325,1078.3232L409.20123,1089.5748L389.32498,1066.3147L398.8715,1013.12366"/>
</g>
<g style="fill:rgb(255,178,152); fill-opacity:1.0; stroke-linejoin: miter">
<path d="M348.03238,949.3873L344.69363,941.7251Q342.49707,938.6728,342.37125,936.58545Q342.18945,935.3709,342.62488,932.2288L342.87094,922.61914L342.55215,917.26935L339.7951,913.8183L341.52124,912.18756L343.16614,914.07983L343.9331,915.9364Q343.57883,913.72076,343.88794,912.87775Q344.11005,911.98755,345.52637,910.737L343.94836,899.9495L346.916,899.22064L347.94342,910.66406L346.60913,898.462L349.79837,898.89954L352.50305,914.07983L354.00537,920.5772L354.5073,934.20996L356.26993,946.0028L348.03238,949.3873"/>
</g>
<g style="fill:rgb(255,178,152); fill-opacity:1.0; stroke-linejoin: miter">
<path d="M253.9414,1140.8002L252.96521,1140.8696Q247.52048,1141.3297,245.17563,1140.4651Q243.59676,1139.7489,243.44711,1139.4342Q242.51735,1138.5165,242.02286,1137.15Q241.85399,1136.8552,241.41994,1134.9568Q241.1246,1133.3838,240.92583,1131.7117Q237.50627,1115.323,237.33554,1113.9585L234.11415,1108.0481L232.14728,1103.3591L234.08226,1102.3417Q236.45801,1104.3965,237.24669,1105.3694Q238.1066,1106.3516,239.02843,1108.2079L241.24112,1110.705L232.2092,1096.5385L234.87505,1095.2996L242.3497,1105.9991L232.47598,1093.2051L235.44957,1092.4669L243.26793,1103.3671L238.27028,1096.333L245.51302,1102.8375Q249.37158,1111.9409,250.47122,1113.7108Q251.40198,1116.8755,252.3222,1122.3417Q252.75018,1124.9768,252.73663,1127.8606L255.63666,1130.2032L253.9414,1140.8002"/>
</g>
<g style="fill:#7ed957; fill-opacity:1.0; stroke-linejoin: miter">
<path d="M362.18274,1188.0529L359.5741,1172.4374Q354.74902,1142.649,354.9436,1138.6198Q354.41327,1133.3848,358.10617,1124.3817L319.7073,1127.9935L313.19394,1130.4058Q310.1453,1131.2723,306.5452,1131.544Q282.3557,1139.7662,278.2651,1139.7316Q262.89178,1142.3442,249.77261,1141.1903L255.41528,1128.9138Q270.4841,1125.6454,275.8597,1123.6213L292.9078,1115.6063L299.92673,1112.9778Q309.848,1110.4484,314.9314,1110.1908Q327.81854,1105.4651,330.15073,1105.1143Q351.20517,1101.6691,352.02673,1100.9156Q358.11014,1098.9402,364.74872,1094.4955L368.43567,1086.6558Q371.90384,1071.5651,374.58298,1067.6127Q367.2916,1058.0983,364.31827,1046.049Q362.6153,1040.0848,359.9652,1029.3947L357.77475,1014.7626Q351.41364,992.111,350.92224,985.3126Q348.68164,969.3851,346.6585,948.5413L356.4548,943.78687L363.08957,966.42413Q364.52783,970.8406,368.15994,976.5842L373.72952,993.60175Q374.68585,996.87616,375.0843,1000.4952L375.90808,1015.1874Q376.42886,1018.4188,377.96094,1022.32996L399.25504,1070.564Q406.5598,1079.2832,408.2284,1081.8289Q410.2505,1084.6978,410.32742,1086.8071Q412.38104,1089.5574,414.0083,1092.6422Q416.2205,1097.4487,416.02902,1101.2328Q415.9645,1105.6676,414.73965,1110.7924Q414.694,1112.2715,407.65027,1134.708Q405.91074,1141.1342,405.10776,1148.2572Q403.32355,1161.2797,408.61627,1174.4685L362.18274,1188.0529"/>
</g>
<g style="fill:rgb(255,178,152); fill-opacity:1.0; stroke-linejoin: miter">
<path d="M508.76178,1368.1888L519.7509,1382.7937Q519.46234,1386.0483,518.84503,1387.6724Q518.18835,1389.6548,516.3359,1391.1537Q513.9346,1393.017,509.4212,1394.2722Q505.43115,1395.3627,503.74,1394.644L494.47717,1375.9452L508.76178,1368.1888"/>
</g>
<g style="fill:rgb(255,178,152); fill-opacity:1.0; stroke-linejoin: miter">
<path d="M349.91937,1303.5535L359.49258,1319.3287Q355.26,1321.334,353.75003,1321.9008Q351.71814,1322.7137,350.0859,1322.9689Q347.47266,1323.4354,340.3791,1322.61L334.83594,1308.2732L349.91937,1303.5535"/>
</g>
<g style="fill:rgb(0,0,0); fill-opacity:1.0; stroke-linejoin: miter">
<path d="M351.50595,1304.8882L336.4751,1313.8705Q329.54617,1302.9291,323.90463,1296.1461L307.34964,1279.1633L298.90527,1268.2656L291.81387,1261.432L289.7393,1258.781Q287.5229,1256.0244,286.33936,1246.6102Q284.9897,1234.6504,286.93942,1232.1211Q288.69028,1228.9758,293.1736,1226.4171Q306.89972,1218.2499,316.61386,1213.6309Q321.04037,1210.5978,364.7924,1196.0668L360.94077,1186.9058Q364.34097,1186.4719,367.10855,1185.2476Q379.35468,1177.5607,384.66953,1176.2876Q391.2024,1174.0347,407.81183,1171.007Q408.62634,1175.5232,412.0342,1179.9193Q413.76733,1181.9513,414.80045,1182.7311Q422.16394,1187.4746,423.93228,1189.5404Q427.3575,1193.4952,428.56488,1197.336Q430.1513,1201.6035,430.47305,1207.5636Q430.8235,1209.3022,429.5948,1229.3917Q429.36847,1232.7882,430.50458,1238.5607Q431.60287,1244.2522,437.75937,1252.9167Q446.0866,1282.0957,448.3559,1285.5492Q453.7233,1296.6771,457.13068,1299.7856Q459.5841,1303.4084,478.05905,1317.9468Q480.84152,1320.3193,485.08823,1326.7225Q495.65298,1347.2483,511.04022,1369.8794Q508.77557,1376.508,504.73126,1378.3892L496.6421,1382.151Q491.15875,1373.538,485.38318,1367.2488Q479.73407,1360.8872,463.53983,1345.3884L449.65427,1330.4025Q446.38553,1327.4102,444.3643,1326.4879L434.57718,1322.6453Q433.1955,1322.0884,430.40567,1319.1699L423.23776,1310.0427L411.7575,1297.4773Q407.99994,1292.6836,403.79358,1285.7125Q393.7249,1269.8326,381.31708,1237.9854Q350.70895,1246.1984,325.52396,1248.0656Q320.47192,1249.1724,317.64017,1251.5127L325.4531,1258.2207L329.30508,1263.5331Q332.351,1267.9807,341.53976,1287.5405L351.50595,1304.8882"/>
</g>
<g style="fill:rgb(0,0,0); fill-opacity:1.0; stroke-linejoin: miter">
<path d="M502.2368,1393.0924L502.9536,1393.1803Q509.96173,1394.3983,513.91724,1392.006Q517.7373,1389.8801,519.7049,1382.7094Q521.52216,1383.4232,522.8752,1383.7682Q529.40533,1384.7772,530.2521,1385.352Q532.5886,1386.1864,537.9162,1389.7496Q540.914,1391.5459,540.3973,1398.8932Q540.2726,1402.5919,538.0955,1406.9861Q537.29913,1408.4656,536.266,1409.9839Q531.08307,1417.0826,530.3105,1418.711Q529.81604,1419.5385,528.8983,1421.6758Q525.89594,1430.1388,524.7006,1432.2349Q523.07324,1435.7123,518.99866,1440.9005Q514.7434,1446.2406,509.5221,1448.8042Q507.78998,1449.6827,505.21198,1450.1086Q504.05054,1450.333,500.94916,1450.2228Q499.22498,1450.734,498.39746,1450.5399Q495.02097,1449.7766,491.71408,1446.5637Q489.2304,1444.088,489.38995,1441.8749Q489.45325,1440.5049,490.33337,1439.069Q490.56915,1438.5072,494.44373,1433.794Q495.48145,1432.4196,496.35736,1430.7518Q497.50565,1428.7327,498.7893,1424.1361Q499.23254,1422.6094,499.9036,1418.7821Q500.35254,1416.2472,501.45007,1406.4833Q501.73474,1404.3951,502.39673,1401.7799L502.2368,1393.0924"/>
</g>
<g style="fill:rgb(0,0,0); fill-opacity:1.0; stroke-linejoin: miter">
<path d="M513.8409,1406.4435L513.8405,1406.4435L513.8409,1406.4435L513.8409,1406.4435"/>
</g>
<g style="fill:rgb(0,0,0); fill-opacity:1.0; stroke-linejoin: miter">
<path d="M339.39496,1321.9484L341.70926,1322.2755Q347.66437,1323.149,347.63745,1323.077Q349.12674,1323.1664,350.29922,1322.9431Q353.2476,1322.4214,360.21735,1318.8622Q369.69586,1329.7241,373.32538,1332.5403Q374.83698,1334.7336,373.73102,1337.0476Q373.16058,1338.0905,371.74094,1339.0195Q363.98657,1344.2758,361.77563,1345.4269Q360.12863,1346.3287,358.67993,1346.9957Q349.04544,1351.2876,347.37613,1352.1632L337.42957,1357.2924Q328.79782,1361.1926,322.7289,1360.393Q318.27066,1359.645,315.4049,1356.6432Q311.3788,1352.2728,312.269,1349.4716Q312.7527,1348.4559,313.39783,1348.3756Q313.492,1348.3185,314.1731,1348.2783L316.6233,1348.3185Q317.4637,1348.2833,318.42664,1348.1284Q320.14508,1347.8921,322.89072,1346.9729Q329.21783,1344.447,330.01212,1343.3491Q330.95877,1342.4071,331.96994,1340.4753Q337.16367,1329.8864,338.56644,1327.497Q339.26318,1326.1792,339.39496,1321.9484"/>
</g>
<g style="fill:rgb(255,180,147); fill-opacity:1.0; stroke-linejoin: miter">
<path d="M245.38768,1129.1644L245.38744,1129.1644L245.38707,1129.1644L245.38768,1129.1644"/>
</g>
<g style="fill:rgb(255,178,152); fill-opacity:1.0; stroke-linejoin: miter">
<path d="M388.65405,1076.3756L388.23724,1076.5354Q385.55502,1077.6566,383.4082,1077.5504Q381.52075,1077.5192,377.17685,1075.7234L376.47614,1071.425Q376.57602,1065.5792,377.01666,1063.2855Q377.56003,1059.36,380.66315,1053.425L376.56735,1050.5934Q373.7248,1050.2844,372.3755,1048.8163Q369.82678,1045.9738,369.96103,1043.2961Q370.0381,1041.5327,373.7201,1039.8712Q373.83698,1037.7178,374.16678,1036.8022Q374.60345,1035.7605,375.7701,1035.6613L377.22836,1032.947Q376.71277,1031.9258,377.07162,1031.489Q377.46884,1030.9341,379.52295,1030.2866Q379.30692,1028.9874,378.95636,1028.2275L377.43323,1025.6073Q377.1461,1025.1052,376.9709,1024.5817Q376.68387,1023.4872,377.19733,1023.02783Q377.8056,1022.34937,379.85834,1021.95703Q380.87323,1021.68726,385.9676,1021.4907Q386.93088,1021.36316,387.79672,1020.9481Q388.6534,1020.51245,389.42212,1019.70776Q392.6893,1015.7003,394.38467,1014.3948Q396.05325,1012.9459,401.10614,1010.0337Q403.3084,1011.7748,404.1857,1013.36035Q404.74557,1014.25134,405.77982,1016.8164L409.30408,1023.6406L403.60324,1025.6058L399.56747,1033.8011L402.874,1041.9094Q410.53638,1040.8579,412.5143,1043.8923Q414.3139,1046.1499,409.55252,1049.8871Q412.24356,1050.3373,411.962,1051.2811Q412.04266,1051.5841,410.8601,1052.8579Q410.25186,1053.5586,406.7416,1056.379L400.44736,1062.9907L393.92282,1063.5863L388.65405,1076.3756"/>
</g>
<g style="fill:rgb(90,43,22); fill-opacity:1.0; stroke-linejoin: miter">
<path d="M436.54706,1071.1978L432.57495,1077.6914Q425.2533,1082.8032,421.48395,1084.7196Q417.75604,1086.5074,417.10114,1086.5844Q415.69736,1087.0281,414.38986,1087.1754Q411.7879,1087.4023,409.53925,1086.6836Q408.78394,1086.5645,402.27713,1083.8048Q401.78427,1083.5273,399.36176,1083.2767Q396.4527,1082.9248,389.78036,1085.6895L357.27206,1085.7981Q370.45688,1082.9193,373.6377,1080.4023Q374.82828,1079.6311,375.72183,1078.705L376.53522,1077.7375Q377.26755,1076.7275,377.8025,1075.6093L380.35196,1069.8562Q382.04153,1067.1094,382.72574,1066.7029Q384.7838,1064.799,388.42596,1063.5795Q392.07224,1062.3608,396.73685,1061.5836Q400.1354,1060.9573,409.03506,1059.9144L436.54706,1071.1978"/>
</g>
<g style="fill:#7ed957; fill-opacity:1.0; stroke-linejoin: miter">
<path d="M377.25925,1032.9137L377.25888,1032.9137L379.36163,1036.9468Q377.50754,1036.3978,375.65332,1035.8489L377.25925,1032.9137"/>
</g>
<g style="fill:rgb(255,0,0); fill-opacity:1.0; stroke-linejoin: miter">
<path d="M377.64105,1030.9886L379.72717,1037.0758L374.50592,1036.2069Q374.57516,1035.8213,374.76898,1035.6982Q375.07062,1035.5436,375.38828,1035.5875Q376.05066,1035.5972,378.88538,1036.5015Q378.49637,1035.627,378.20926,1035.0294L377.2312,1033.0723Q376.98578,1032.5392,376.93527,1032.2804Q376.82645,1031.8801,377.02298,1031.4359L377.64105,1030.9886"/>
</g>
<g style="fill:rgb(255,0,0); fill-opacity:1.0; stroke-linejoin: miter">
<path d="M410.22864,1015.16504L410.22827,1015.16504L410.22864,1015.16504L410.22864,1015.16504"/>
</g>
<g style="fill:rgb(90,43,22); fill-opacity:1.0; stroke-linejoin: miter">
<path d="M390.23862,1020.3806L390.76474,1020.569Q392.37238,1021.13574,393.71674,1021.6875Q395.14407,1022.2999,395.58185,1022.6328Q396.15775,1023.04224,396.3461,1023.4127Q396.57614,1023.76196,396.563,1024.5466L390.23862,1020.3806"/>
</g>
<g style="fill:#7ed957; fill-opacity:1.0; stroke-linejoin: miter">
<path d="M390.3188,1022.9365L391.49832,1024.476L392.6779,1026.0151Q390.88907,1025.0703,389.1005,1024.1252L390.3188,1022.9365"/>
</g>
<g style="fill:#7ed957; fill-opacity:1.0; stroke-linejoin: miter">
<path d="M390.86203,1031.6659L390.86203,1031.6659L390.8614,1031.6659L390.86203,1031.6659"/>
</g>
<g style="fill:rgb(0,0,0); fill-opacity:1.0; stroke-linejoin: miter">
<path d="M390.286,1022.99133L390.25687,1023.0165Q390.04416,1023.18494,389.04318,1024.169Q389.35687,1024.4683,389.54794,1024.5648Q389.62415,1024.605,389.7043,1024.6285L389.78558,1024.6475Q389.8681,1024.6617,389.9562,1024.6536Q390.0443,1024.6444,390.13797,1024.6134L390.2328,1024.5774Q390.32895,1024.536,390.42883,1024.4789Q390.678,1024.3392,391.15735,1023.9624L390.286,1022.99133"/>
</g>
<g style="fill:rgb(0,0,0); fill-opacity:1.0; stroke-linejoin: miter">
<path d="M414.35388,1071.781L414.35376,1071.781L414.35376,1071.781L414.35388,1071.781"/>
</g>
<g style="fill:rgb(0,0,0); fill-opacity:1.0; stroke-linejoin: miter">
<path d="M437.73505,1054.6001L428.2575,1058.6572Q427.91714,1056.8225,427.62256,1056.0487Q427.3506,1055.249,426.5578,1053.9382L436.49097,1050.3882Q436.11127,1051.8328,436.35757,1052.5328Q436.50797,1053.2094,437.73505,1054.6001"/>
</g>
<g style="fill:rgb(0,0,0); fill-opacity:1.0; stroke-linejoin: miter">
<path d="M-309.40155,606.0451L-309.4015,1671.4202L669.5844,1671.4191L652.70496,1634.9271L630.5304,1616.091L530.6482,1452.3566L406.17926,1417.764L342.63184,1342.2368L292.17346,1313.7007L267.5929,1185.2048L244.06258,1128.7301L237.8403,900.9695Q159.74365,914.7239,142.30058,942.5331Q123.20894,968.37897,112.95575,1058.9019Q17.18485,956.56604,-39.170044,907.3589Q-62.052395,888.48425,-84.5275,875.6728Q-139.26656,855.9604,-153.76147,844.90265Q-165.74144,831.01355,-170.19177,818.63257Q-200.63985,713.1506,-214.52415,691.9223Q-248.39937,642.8116,-309.40155,606.0451 Z"/>
</g>
<g style="fill:rgb(0,0,0); fill-opacity:0.99607843; stroke-linejoin: miter">
<path d="M362.31277,709.6421L362.44382,709.112Q363.84982,703.517,361.13498,697.11896Q358.8081,690.68066,353.25107,685.66016Q341.8934,676.8506,328.58377,680.892Q317.60345,684.0354,311.44467,693.103Q308.96756,697.078,307.89523,702.44293Q306.60648,708.6626,306.24435,720.07196L301.8815,726.2951L362.31277,709.6421"/>
</g>
<g style="fill:rgb(0,0,0); fill-opacity:1.0; stroke-linejoin: miter">
<path d="M193.83934,777.96027L194.90897,778.31116Q202.24104,780.1955,207.85156,788.9564Q215.82059,801.3714,217.47873,812.1405Q218.055,815.7462,218.17113,821.6112L202.95503,826.8483Q243.52328,881.07086,243.38493,883.15753Q252.36807,897.81055,249.70795,906.83203Q247.74304,914.47394,226.71257,919.8188L153.22246,925.28156Q146.2409,919.81805,147.79942,907.4887Q187.33342,893.644,210.75864,893.4286L174.60959,857.73267L193.83934,777.96027"/>
</g>
<g style="fill:rgb(0,0,0); fill-opacity:1.0; stroke-linejoin: miter">
<path d="M155.6497,795.47015L155.12854,797.0245C149.8204,811.91394,149.21536,824.73047,153.89377,835.22015C156.28279,840.57715,158.95782,844.12054,161.13936,846.328C162.49971,847.7041,163.79466,849.20233,165.23927,850.6201L178.4803,863.152C181.2623,865.9002,183.52325,868.70306,185.49373,871.39594C188.55107,875.57416,208.36194,887.7065,211.3411,897.33875L246.18802,890.07404C240.89417,876.48224,225.79633,842.58185,217.4935,831.5219L221.89073,800.57306L155.6497,795.47015 Z"/>
</g>
<g style="fill:rgb(255,178,152); fill-opacity:1.0; stroke-linejoin: miter">
<path d="M297.79712,729.86084L297.797,729.86206L304.38232,722.6552L306.29028,719.5158C308.5886,720.9272,310.6952,721.59924,312.60013,721.4168C314.3851,721.24585,316.2207,720.409,318.02258,718.9039C319.5574,717.6213,320.4727,716.5284,320.9334,715.7804C321.23196,715.2955,321.5634,714.83484,321.81442,714.33154C323.41858,711.1133,324.29202,709.43964,324.48486,709.33563C324.94843,708.5472,325.70486,707.6555,326.97278,707.0793C329.8843,705.75476,331.86832,706.13544,332.895,707.6883C333.16525,708.0975,333.3381,708.8614,333.42038,710.0829C333.44803,710.4988,333.2052,712.4018,332.65536,715.832C332.5216,716.66736,332.6786,717.11005,332.96286,716.9954C333.50574,716.77625,333.94028,716.3457,334.36008,715.86945C337.4107,712.4065,339.52487,710.0858,340.7197,708.9301C342.91177,706.80975,344.3168,705.7292,344.74005,705.40533C347.18243,703.53516,350.12772,702.32306,353.67172,702.7963C358.88184,703.4932,361.85666,705.7513,362.72476,708.7688C361.2918,714.5983,360.04697,718.2472,359.1848,719.82825C358.22897,721.5816,356.75076,722.9272,354.55048,723.7613C354.5625,731.03937,354.02957,735.1573,353.3816,736.3778C352.58087,737.88617,350.96216,737.8214,348.06998,735.9683C347.1705,738.3562,346.4137,739.72736,345.90793,740.2051C345.34296,740.7384,344.50055,740.8774,343.26416,740.5066C343.9229,741.13025,343.8769,741.85785,343.07617,742.6399C342.36728,743.3325,340.92206,744.28723,338.78827,745.55536C337.5344,747.8644,336.4454,749.44867,335.41837,750.1691C334.4254,750.8657,333.59988,751.06104,333.0384,750.9012C332.0173,750.94464,330.04373,750.03784,327.11728,748.1803L323.3343,743.2665L310.2229,749.58594L297.79712,729.86084 Z"/>
</g>
<g style="fill:rgb(0,0,0); fill-opacity:0.99607843; stroke-linejoin: miter">
<path d="M363.31625,685.4353L363.31638,685.4363L363.31625,685.4353L363.31638,685.4363"/>
</g>
<g style="fill:rgb(0,0,0); fill-opacity:0.99607843; stroke-linejoin: miter">
<path d="M345.59808,718.25214L345.9361,718.1516Q348.15363,717.4454,349.49002,717.53644Q349.78622,717.55975,350.06912,717.6208Q350.21716,717.6327,350.89505,717.8717Q351.56757,718.12585,352.7058,718.79614Q350.7238,718.4269,349.52042,718.3452Q348.3544,718.2454,345.59808,718.25214"/>
</g>
<g style="fill:rgb(0,0,0); fill-opacity:0.99607843; stroke-linejoin: miter">
<path d="M345.82056,723.9971L345.81995,723.9978L345.81958,723.9978L345.82056,723.9971"/>
</g>
<g style="fill:#7ed957; fill-opacity:0.99607843; stroke-linejoin: miter">
<path d="M346.53876,720.85846L346.5384,720.8587L350.55417,719.8417Q350.86203,720.5946,350.8222,721.04456Q350.8171,721.4806,350.41956,722.4981L346.53876,720.85846"/>
</g>
<g style="fill:rgb(0,0,0); fill-opacity:0.99607843; stroke-linejoin: miter">
<path d="M350.53458,719.81287L349.37238,720.98004L350.34024,722.4244Q350.66113,721.9112,350.78076,721.63074Q350.89206,721.3508,350.89664,721.2967Q350.92383,721.1865,350.93225,721.07733Q350.93994,720.9686,350.92892,720.86115Q350.93265,720.8068,350.86154,720.54254Q350.78262,720.2787,350.53458,719.81287"/>
</g>
<g style="fill:rgb(255,178,152); fill-opacity:1.0; stroke-linejoin: miter">
<path d="M320.09543,885.82434L323.57428,893.3859L328.83575,896.12573L337.00504,899.24274L348.58853,900.2868Q349.74103,900.396,350.65417,900.5578Q352.87854,900.8037,353.9309,902.50397Q354.39426,903.6872,354.09,904.14905Q353.47488,905.1636,352.51013,905.25494Q350.06876,905.719,343.47858,904.6655Q348.35016,912.3568,348.86996,914.5705Q349.7316,917.0758,347.62302,918.8214L341.367,918.22284Q339.2001,920.33276,337.99597,920.3767Q337.1785,920.4494,335.86893,918.9318Q333.6603,920.10767,332.51797,919.7287Q331.62198,919.38354,330.61227,917.66644Q327.97485,918.59955,326.91415,917.8918Q323.5775,915.98956,326.0236,912.06226Q319.92233,911.6475,317.33527,909.07776Q316.3382,908.223,315.2583,905.97534Q314.46973,904.53796,313.35184,899.6329Q312.88132,897.512,312.03406,892.0241L320.09543,885.82434"/>
</g>
<g style="fill:rgb(255,178,152); fill-opacity:1.0; stroke-linejoin: miter">
<path d="M195.71452,780.5114L198.87994,779.3443Q235.37088,766.0379,245.77606,758.8491Q253.24115,754.05347,256.12103,751.51447Q258.58264,749.81647,274.68695,734.282Q278.03516,731.2861,280.92584,729.63275Q283.80835,728.0576,286.2176,727.5734L296.13934,726.7865Q297.41766,726.65765,302.1117,724.8592L316.9151,746.588Q308.92224,749.1541,308.33197,754.04407Q307.92722,756.33167,308.2528,759.63855Q310.11606,775.3041,309.9468,776.72284Q310.15527,782.00714,309.93466,787.7575Q309.0605,807.6516,306.35864,821.3807Q309.22836,823.6363,311.22763,832.4843Q313.12613,839.95496,318.05273,870.33527L322.55927,891.32355L312.72794,895.3105L302.955,870.67004L287.35248,827.6978Q281.57928,806.9637,284.33633,786.9783Q286.39392,790.44745,282.65485,793.59424Q279.7665,796.48914,264.45413,805.10364Q247.67828,808.98303,218.54178,816.5336L195.71452,780.5114"/>
</g>
<g style="fill:#7ed957; fill-opacity:1.0; stroke-linejoin: miter">
<path d="M147.8596,927.51904L148.23111,926.8006Q149.8946,923.54803,151.20619,922.51074Q152.03235,921.6267,153.9671,921.3892Q159.40675,921.82574,160.51584,925.8657Q160.54065,926.5105,160.26543,927.18353Q160.27461,927.50586,158.90149,929.25323Q157.3988,931.01227,153.01436,934.3368L148.77945,951.7673Q149.95134,958.16626,150.01836,961.50635Q150.23476,964.08734,148.99873,966.91376Q147.15607,970.26953,143.28783,970.86957Q139.32242,971.2061,136.46684,968.40155Q133.29758,966.5326,128.96611,947.1411L132.41754,924.44617L142.2878,907.46216Q148.55647,904.1833,150.82785,903.73236Q153.25322,903.07,156.37808,904.12225L151.99376,925.97644L147.8596,927.51904"/>
</g>
<g style="fill:rgb(60,70,79); fill-opacity:0.99607843; stroke-linejoin: miter">
<path d="M245.77904,755.7008L245.77904,755.7008L245.77892,755.7008L245.77904,755.7008L245.77904,755.7008L245.77904,755.7008L245.77892,755.7008Q245.77904,755.7008,245.77904,755.7008"/>
</g>
<g style="fill:rgb(60,70,79); fill-opacity:0.99607843; stroke-linejoin: miter">
<path d="M245.77904,755.7008L245.77904,755.7008L245.77892,755.7008L245.77904,755.7008L245.77904,755.7008L245.77904,755.7008L245.77892,755.7008Q245.77904,755.7008,245.77904,755.7008"/>
</g>
<g style="fill:rgb(32,44,54); fill-opacity:0.99607843; stroke-linejoin: miter">
<path d="M261.67725,712.16504L261.67712,712.1653L261.67688,712.1658L261.67712,712.1653L261.67725,712.16504L261.67712,712.1653L261.67688,712.1658Q261.67712,712.1653,261.67725,712.16504"/>
</g>
<g style="fill:rgb(22,23,24); fill-opacity:0.99607843; stroke-linejoin: miter">
<path d="M229.25247,665.82263L229.25235,665.8231L229.25235,665.8231L229.25235,665.8231L229.25247,665.82263L229.25235,665.8231L229.25235,665.8231Q229.25235,665.8231,229.25247,665.82263"/>
</g>
<g style="fill:rgb(22,23,24); fill-opacity:0.99607843; stroke-linejoin: miter">
<path d="M227.36984,640.2437L227.36984,640.2437L227.3696,640.2442L227.36984,640.2437L227.36984,640.2437L227.36984,640.2437L227.3696,640.2442Q227.36984,640.2437,227.36984,640.2437"/>
</g>
<g style="fill:rgb(22,23,24); fill-opacity:0.99607843; stroke-linejoin: miter">
<path d="M171.99547,666.6637L171.9951,666.6637L171.9951,666.66394L171.9951,666.6637L171.99547,666.6637L171.9951,666.6637L171.9951,666.66394Q171.9951,666.6637,171.99547,666.6637"/>
</g>
<g style="fill:rgb(0,0,0); fill-opacity:1.0; stroke-linejoin: miter">
<path d="M194.2775,824.57886L193.16258,831.58344Q190.55133,852.0493,183.01599,864.18463Q179.15955,870.93335,165.82545,884.4646L127.0851,940.3877L93.58551,1016.6752Q86.94197,1020.2064,83.788216,1019.3695Q80.91167,1019.2035,74.57375,1013.04663Q81.311966,993.29456,84.2786,982.2969Q85.9983,977.76355,89.41808,955.5521Q90.35195,950.7473,92.38658,945.5231Q94.526184,940.2368,98.16921,934.17596Q97.67225,934.53754,114.38271,908.81866Q117.56414,903.953,122.93904,893.33875Q126.11102,887.23694,133.0999,869.8466L143.49365,841.99347Q143.68338,826.00806,145.05838,817.02405Q146.28967,810.3507,147.33038,808.1147Q148.54158,804.9093,150.39728,802.00104Q168.05725,776.3769,203.59804,776.85016Q204.73232,782.0925,206.85579,786.52856L215.60245,801.70026Q217.06442,805.6824,218.64688,821.61096L194.2775,824.57886"/>
</g>
<g style="fill:#7ed957; fill-opacity:1.0; stroke-linejoin: miter">
<path d="M86.625305,1020.48157L86.62493,1020.4824Q89.866425,1013.9701,92.15295,1012.48157Q93.55995,1011.4581,95.05319,1011.2643Q96.42682,1010.9834,97.95381,1011.99194Q99.05408,1012.7742,99.574,1015.21045Q99.99452,1016.5925,99.99092,1022.5951L109.11406,1033.3708Q110.46858,1034.998,111.464615,1036.5057Q113.53324,1039.5726,112.31361,1041.0424Q111.968155,1041.9047,108.38989,1043.2368L103.19655,1041.5599Q97.47137,1039.5748,94.66766,1037.9623Q91.71418,1036.426,86.04781,1032.3837Q80.15921,1032.2102,76.91413,1030.879Q73.19691,1029.4994,68.75676,1026.0762Q66.79421,1024.5509,66.17478,1023.2782Q65.49802,1021.95996,66.253944,1019.92175Q67.88915,1015.92566,75.15423,1006.661Q76.551926,1011.19775,79.75445,1012.5044Q82.38481,1013.82227,92.139046,1013.87683L86.625305,1020.48157"/>
</g>
<g style="fill:rgb(83,93,102); fill-opacity:0.99607843; stroke-linejoin: miter">
<path d="M97.35137,888.3274L97.35137,888.3274L97.35112,888.32764L97.35137,888.3274L97.35137,888.3274L97.35137,888.3274L97.35112,888.32764Q97.35137,888.3274,97.35137,888.3274"/>
</g>
<g style="fill:rgb(83,93,102); fill-opacity:0.99607843; stroke-linejoin: miter">
<path d="M117.07811,894.2806L117.07798,894.2808L117.07786,894.2808L117.07798,894.2808L117.07811,894.2806L117.07798,894.2808L117.07786,894.2808Q117.07798,894.2808,117.07811,894.2806"/>
</g>
<g style="fill:rgb(83,93,102); fill-opacity:0.99607843; stroke-linejoin: miter">
<path d="M117.07811,894.2806L117.07798,894.2808L117.07786,894.2808L117.07798,894.2808L117.07811,894.2806L117.07798,894.2808L117.07786,894.2808Q117.07798,894.2808,117.07811,894.2806"/>
</g>
<g style="fill:rgb(255,0,0); fill-opacity:0.99607843; stroke-linejoin: miter">
<path d="M335.78928,963.65704L335.78928,963.6578L335.78928,963.65704L335.78928,963.6578"/>
</g>
<g style="fill:rgb(7,2,0); fill-opacity:0.99607843; stroke-linejoin: miter">
<path d="M323.56027,793.09247L323.56015,793.09247L323.56015,793.09247L323.56027,793.09247"/>
</g>
<g style="fill:rgb(0,0,0); fill-opacity:1.0; stroke-linejoin: miter">
<path d="M199.8854,772.5347L197.31424,773.47705L174.10306,781.8947C169.68376,783.7379,166.5274,785.2619,164.60309,786.4164C157.55678,790.6425,152.5272,795.18304,149.28833,799.9171C146.59258,803.8576,144.6834,808.3306,143.58188,813.46576C143.40518,814.2894,142.84444,816.9401,142.64728,821.5109C142.12276,833.66656,141.9988,840.1091,141.75671,840.81934C141.76366,841.76935,141.27129,844.2312,140.34772,848.2205C139.23418,853.03186,115.73599,905.823,110.10574,914.6583L140.89369,919.92926C146.16373,913.109,184.59709,874.3904,186.32808,869.969C188.0195,865.6493,189.81613,858.2278,191.38853,847.5711L217.99767,831.1658L199.8854,772.5347 Z"/>
</g>
<g style="fill:rgb(255,0,10); fill-opacity:0.99607843; stroke-linejoin: miter">
<path d="M214.11789,894.79254L214.11775,894.793L214.11751,894.7933L214.11789,894.79254"/>
</g>
<g style="fill:#7ed957; fill-opacity:1.0; stroke-linejoin: miter">
<path d="M296.39633,726.0467L297.64697,725.3982Q302.44736,722.9183,303.5341,721.7417Q303.90125,721.4866,304.3168,722.07544Q304.74417,722.50903,306.82632,727.75806L314.9595,748.75977L308.8854,752.3624L311.46835,769.1589Q310.2486,793.3781,312.3223,802.4552L279.6336,809.6092L278.49265,800.4328Q261.7317,811.29675,253.97177,814.60187Q246.57939,818.1435,226.85588,823.671Q222.50124,825.39655,222.22154,825.8244Q216.87729,828.80194,221.81554,837.5182Q197.07127,825.376,187.90968,814.7704Q178.90417,805.463,170.30159,779.7806Q202.32083,769.51,221.2749,760.2878L233.24417,753.7301L260.11847,736.3748Q267.4205,732.1792,268.70615,731.81067Q281.0411,726.49115,296.39633,726.0467"/>
</g>
<g style="fill:rgb(252,184,38); fill-opacity:1.0; stroke-linejoin: miter">
<path d="M819.6152,681.0479C821.1097,714.8937,794.8837,743.54224,761.0379,745.0367C727.19226,746.5312,698.54364,720.305,697.04956,686.4593C695.55554,652.614,721.7816,623.96564,755.6265,622.4717C789.4721,620.9774,818.1202,647.20264,819.6152,681.0479 Z"/>
</g>
<g style="fill:#7ed957; fill-opacity:1.0; stroke-linejoin: miter">
<path d="M1203.4811,748.68146C1204.104,746.50574,1204.4216,744.25635,1204.4258,741.9724C1204.4481,728.4657,1193.4785,717.4603,1179.9725,717.43726C1174.3535,717.4269,1168.8612,719.3688,1164.508,722.9045C1160.6361,726.0485,1157.8022,730.32623,1156.4154,735.07697C1147.379,734.2171,1139.1979,739.9384,1136.631,748.30475C1135.2631,747.99054,1133.8654,747.8305,1132.4556,747.82874C1122.0612,747.8111,1113.5903,756.1928,1113.5723,766.58704C1113.555,776.9821,1121.9968,785.3912,1132.3922,785.40924L1198.2062,785.52045C1208.6008,785.5386,1217.0707,777.1561,1217.0887,766.761C1217.1029,758.25714,1211.4866,750.9805,1203.4811,748.68146 Z"/>
</g>
<g style="fill:#7ed957; fill-opacity:1.0; stroke-linejoin: miter">
<path d="M599.03046,667.66876C598.18085,664.59125,597.76306,661.4134,597.7877,658.1907C597.9375,639.1354,613.5611,623.7552,632.6164,623.9046C640.5438,623.9649,648.26624,626.7784,654.36096,631.82544C659.7811,636.3129,663.7213,642.38666,665.6144,649.1071C678.3747,648.01544,689.8402,656.1971,693.3494,668.03436C695.28357,667.6095,697.2576,667.403,699.2466,667.4194C713.9115,667.5343,725.74976,679.4728,725.63586,694.1374C725.52045,708.8033,713.49756,720.5542,698.83154,720.4395L605.97797,719.7134C591.3127,719.59894,579.4752,707.65924,579.5895,692.99335C579.68365,680.99603,587.705,670.80493,599.03046,667.66876 Z"/>
</g>
<g style="fill:#7ed957; fill-opacity:1.0; stroke-linejoin: miter">
<path d="M-58.58569,639.2979C-59.17224,637.1123,-59.452305,634.8579,-59.41868,632.57416C-59.215916,619.069,-48.064728,608.2475,-34.560143,608.4495C-28.9418,608.5329,-23.482662,610.5659,-19.188684,614.1738C-15.36983,617.38165,-12.607813,621.7063,-11.3003235,626.4791C-2.2507725,625.76984,5.834016,631.6264,8.26125,640.034C9.634256,639.7429,11.034435,639.6064,12.444048,639.62823C22.837196,639.7839,31.167297,648.3053,31.012188,658.69794C30.856339,669.0923,22.27546,677.35986,11.881691,677.20447L-53.92492,676.22C-64.31845,676.0647,-72.64781,667.54254,-72.49258,657.1486C-72.36514,648.64606,-66.62842,641.46375,-58.58569,639.2979 Z"/>
</g>
<g style="fill:rgb(0,0,0); fill-opacity:1.0; stroke-linejoin: miter">
<path d="M199.86667,831.4591L199.55498,833.3415Q197.65695,845.6569,194.94371,853.32196Q192.63162,860.1963,185.2581,872.2524Q190.1926,866.2715,192.377,862.9748Q193.88042,860.7288,195.23122,857.1063Q196.55917,853.3944,197.53673,847.8091Q198.2383,844.3523,199.86667,831.4591"/>
</g>
</g>
</svg>