<svg width="284" height="304" viewBox="0 0 284 304" fill="none" xmlns="http://www.w3.org/2000/svg">
<g filter="url(#filter0_di_434_14)">
<path d="M-59.7359 30.0112C-62.104 22.6508 -69.9906 18.6037 -77.351 20.9718C-84.7114 23.3399 -88.7585 31.2264 -86.3904 38.5868L-59.7359 30.0112ZM12.0962 148.617L7.41509 161.812L12.0962 148.617ZM133.71 116.265L138.368 103.062L133.71 116.265ZM206.172 233.942C208.618 241.277 216.548 245.24 223.882 242.793C231.217 240.346 235.179 232.417 232.733 225.082L206.172 233.942ZM-73.0632 34.299C-86.3904 38.5868 -86.3893 38.5902 -86.3881 38.5939C-86.3875 38.5956 -86.3862 38.5997 -86.3851 38.6032C-86.3829 38.6101 -86.3802 38.6185 -86.377 38.6283C-86.3706 38.6479 -86.3624 38.6733 -86.3523 38.7044C-86.332 38.7665 -86.3043 38.8514 -86.269 38.9583C-86.1984 39.1722 -86.0978 39.4745 -85.9672 39.86C-85.7062 40.6308 -85.3255 41.735 -84.8264 43.1305C-83.8288 45.9201 -82.3556 49.8823 -80.4183 54.6792C-76.5535 64.2488 -70.7928 77.2623 -63.2153 90.9666C-48.5754 117.444 -25.145 150.26 7.41509 161.812L16.7772 135.423C-5.27583 127.599 -24.4251 103.256 -38.7116 77.4179C-45.5973 64.9646 -50.8865 53.0315 -54.4557 44.1938C-56.2354 39.7871 -57.5753 36.1805 -58.4615 33.7022C-58.9044 32.4638 -59.2332 31.5093 -59.4463 30.8799C-59.5529 30.5653 -59.6304 30.3321 -59.6788 30.1855C-59.7029 30.1123 -59.7198 30.0607 -59.7294 30.0314C-59.7341 30.0167 -59.7371 30.0077 -59.7382 30.0043C-59.7387 30.0026 -59.7388 30.0023 -59.7384 30.0035C-59.7382 30.004 -59.7376 30.006 -59.7375 30.0062C-59.7368 30.0085 -59.7359 30.0112 -73.0632 34.299ZM7.41509 161.812C40.9365 173.704 64.1735 156.094 81.1135 143.809C99.1111 130.756 110.812 123.031 129.052 129.467L138.368 103.062C104.841 91.2328 81.6066 108.863 64.6749 121.142C46.6856 134.189 34.9994 141.888 16.7772 135.423L7.41509 161.812ZM129.052 129.467C151.034 137.223 170.316 161.369 184.778 186.967C191.75 199.308 197.132 211.133 200.772 219.889C202.588 224.256 203.958 227.829 204.865 230.285C205.319 231.512 205.656 232.458 205.874 233.082C205.984 233.393 206.063 233.624 206.113 233.77C206.138 233.842 206.155 233.893 206.165 233.922C206.17 233.937 206.173 233.946 206.174 233.949C206.174 233.951 206.174 233.951 206.174 233.95C206.174 233.95 206.173 233.948 206.173 233.947C206.172 233.945 206.172 233.942 219.452 229.512C232.733 225.082 232.732 225.079 232.73 225.075C232.73 225.073 232.728 225.069 232.727 225.066C232.725 225.059 232.722 225.051 232.719 225.041C232.712 225.022 232.704 224.996 232.694 224.966C232.673 224.904 232.644 224.82 232.608 224.714C232.536 224.502 232.432 224.203 232.299 223.821C232.031 223.057 231.641 221.963 231.13 220.581C230.109 217.817 228.603 213.892 226.627 209.14C222.685 199.66 216.825 186.769 209.156 173.195C194.338 146.965 170.749 114.487 138.368 103.062L129.052 129.467Z" fill="#606060"/>
</g>
<defs>
<filter id="filter0_di_434_14" x="-117.066" y="0.295227" width="400.523" height="303.221" filterUnits="userSpaceOnUse" color-interpolation-filters="sRGB">
<feFlood flood-opacity="0" result="BackgroundImageFix"/>
<feColorMatrix in="SourceAlpha" type="matrix" values="0 0 0 0 0 0 0 0 0 0 0 0 0 0 0 0 0 0 127 0" result="hardAlpha"/>
<feOffset dx="10" dy="20"/>
<feGaussianBlur stdDeviation="20"/>
<feComposite in2="hardAlpha" operator="out"/>
<feColorMatrix type="matrix" values="0 0 0 0 0 0 0 0 0 0 0 0 0 0 0 0 0 0 0.32 0"/>
<feBlend mode="normal" in2="BackgroundImageFix" result="effect1_dropShadow_434_14"/>
<feBlend mode="normal" in="SourceGraphic" in2="effect1_dropShadow_434_14" result="shape"/>
<feColorMatrix in="SourceAlpha" type="matrix" values="0 0 0 0 0 0 0 0 0 0 0 0 0 0 0 0 0 0 127 0" result="hardAlpha"/>
<feOffset dx="10" dy="10"/>
<feGaussianBlur stdDeviation="7.5"/>
<feComposite in2="hardAlpha" operator="arithmetic" k2="-1" k3="1"/>
<feColorMatrix type="matrix" values="0 0 0 0 0 0 0 0 0 0 0 0 0 0 0 0 0 0 1 0"/>
<feBlend mode="normal" in2="shape" result="effect2_innerShadow_434_14"/>
</filter>
</defs>
</svg>
