<svg width="435" height="281" viewBox="0 0 435 281" fill="none" xmlns="http://www.w3.org/2000/svg">
<g filter="url(#filter0_di_434_15)">
<path d="M60.0042 35.5887C60.8704 27.9054 55.344 20.9746 47.6607 20.1084C39.9774 19.2422 33.0467 24.7686 32.1805 32.4519L60.0042 35.5887ZM258.939 210.704L258.003 196.735L258.939 210.704ZM296.526 284.428C289.799 288.24 287.436 296.784 291.249 303.511C295.061 310.238 303.604 312.6 310.331 308.788L296.526 284.428ZM32.1805 32.4519C29.8875 52.7907 29.4287 68.523 30.8167 80.3703C32.1413 91.6764 35.4881 102.545 43.9027 109.16C53.0808 116.377 63.7503 115.202 71.3429 112.907C78.9602 110.605 86.837 106.222 93.8066 102.061C101.456 97.4935 107.905 93.2755 115.14 89.1977C122.159 85.2416 128.164 82.4754 133.231 81.2333C138.146 80.0283 140.84 80.5691 142.556 81.4987C144.357 82.4741 147.641 85.2678 150.824 93.7976L177.057 84.0093C172.476 71.7312 165.693 62.1864 155.89 56.8776C146.003 51.523 135.557 51.834 126.564 54.0384C117.723 56.2058 109.051 60.4882 101.392 64.8052C93.9485 69.0004 85.7172 74.2796 79.4535 78.0191C72.5096 82.1647 67.239 84.8968 63.2424 86.1047C59.2211 87.32 59.8102 86.0495 61.2088 87.1492C61.8439 87.6485 59.7122 86.3794 58.6265 77.1122C57.6042 68.3864 57.8034 55.1097 60.0042 35.5887L32.1805 32.4519ZM150.824 93.7976C157.56 111.85 157.656 128.114 155.924 142.895C155.036 150.469 153.716 157.347 152.494 164.398C151.338 171.072 150.184 178.33 150.267 185.126C150.353 192.132 151.746 199.934 156.788 206.921C161.837 213.917 169.276 218.345 178.026 221.144C194.695 226.475 220.778 227.291 259.874 224.672L258.003 196.735C218.673 199.369 197.551 197.991 186.556 194.474C181.473 192.849 179.966 191.19 179.493 190.535C179.013 189.87 178.31 188.457 178.265 184.784C178.218 180.9 178.899 176.014 180.083 169.178C181.202 162.72 182.729 154.722 183.733 146.155C185.785 128.654 185.849 107.572 177.057 84.0093L150.824 93.7976ZM259.874 224.672C287.273 222.837 308.071 222.818 323.558 224.073C339.292 225.349 348.477 227.867 353.394 230.345C357.872 232.602 356.875 233.672 356.778 232.513C356.776 232.493 356.827 233.074 356.299 234.454C355.767 235.844 354.785 237.677 353.174 239.933C346.352 249.483 332.843 260.457 319.73 269.613C313.403 274.03 307.559 277.76 303.297 280.385C301.17 281.694 299.448 282.721 298.272 283.414C297.683 283.76 297.232 284.022 296.935 284.193C296.787 284.279 296.677 284.342 296.608 284.381C296.574 284.401 296.549 284.415 296.536 284.423C296.529 284.427 296.524 284.429 296.523 284.43C296.522 284.43 296.523 284.43 296.522 284.43C296.524 284.429 296.526 284.428 303.429 296.608C310.331 308.788 310.335 308.786 310.339 308.784C310.341 308.783 310.346 308.78 310.351 308.777C310.36 308.772 310.372 308.765 310.386 308.757C310.415 308.74 310.455 308.718 310.505 308.689C310.606 308.632 310.748 308.55 310.929 308.446C311.291 308.236 311.812 307.934 312.472 307.546C313.792 306.769 315.675 305.645 317.977 304.228C322.573 301.398 328.887 297.369 335.76 292.57C349.048 283.292 366.108 269.997 375.957 256.209C380.782 249.455 385.534 240.326 384.679 230.167C383.711 218.649 376.112 210.44 365.996 205.342C356.319 200.464 342.92 197.551 325.821 196.165C308.475 194.759 286.192 194.847 258.003 196.735L259.874 224.672Z" fill="#606060"/>
</g>
<defs>
<filter id="filter0_di_434_15" x="0.0351562" y="0.019043" width="434.746" height="370.592" filterUnits="userSpaceOnUse" color-interpolation-filters="sRGB">
<feFlood flood-opacity="0" result="BackgroundImageFix"/>
<feColorMatrix in="SourceAlpha" type="matrix" values="0 0 0 0 0 0 0 0 0 0 0 0 0 0 0 0 0 0 127 0" result="hardAlpha"/>
<feOffset dx="10" dy="20"/>
<feGaussianBlur stdDeviation="20"/>
<feComposite in2="hardAlpha" operator="out"/>
<feColorMatrix type="matrix" values="0 0 0 0 0 0 0 0 0 0 0 0 0 0 0 0 0 0 0.31 0"/>
<feBlend mode="normal" in2="BackgroundImageFix" result="effect1_dropShadow_434_15"/>
<feBlend mode="normal" in="SourceGraphic" in2="effect1_dropShadow_434_15" result="shape"/>
<feColorMatrix in="SourceAlpha" type="matrix" values="0 0 0 0 0 0 0 0 0 0 0 0 0 0 0 0 0 0 127 0" result="hardAlpha"/>
<feOffset dx="10" dy="10"/>
<feGaussianBlur stdDeviation="7.5"/>
<feComposite in2="hardAlpha" operator="arithmetic" k2="-1" k3="1"/>
<feColorMatrix type="matrix" values="0 0 0 0 0 0 0 0 0 0 0 0 0 0 0 0 0 0 1 0"/>
<feBlend mode="normal" in2="shape" result="effect2_innerShadow_434_15"/>
</filter>
</defs>
</svg>
