<svg width="27" height="53" viewBox="0 0 27 53" fill="none" xmlns="http://www.w3.org/2000/svg">
<path d="M26.3297 48.2081C26.2765 48.0418 26.1861 47.9612 26.0398 47.9416C25.6386 47.888 25.2371 47.8341 24.8355 47.7802C24.8344 47.7799 24.8335 47.7807 24.8324 47.7807C20.5102 42.333 17.8647 35.8691 16.2582 28.6203C14.7175 21.6687 15.2661 14.3763 14.3304 7.38601C14.5766 7.45814 14.8729 7.38683 15.1038 7.25754C15.4889 7.04224 15.7531 6.51829 15.8611 6.04305C16.0963 5.00766 15.4122 4.10727 14.621 4.22703C14.6512 3.86775 14.5732 3.45947 14.4567 3.19191C14.2465 2.70905 13.8797 2.38325 13.4375 2.28962C13.4851 1.6195 13.5205 0.920526 13.3167 0.28824C13.208 -0.0489975 12.7462 -0.140452 12.6725 0.28824C12.5548 0.973058 12.6788 1.65679 12.7489 2.34133C12.1931 2.57841 11.8876 3.27003 11.7965 4.01201C11.0822 3.87618 10.2946 4.68594 10.3012 5.55312C10.3054 6.11572 10.7631 6.74366 11.2436 6.91268C10.0134 14.41 10.3354 22.1355 8.87232 29.6829C8.01483 34.1064 6.93233 38.2937 5.00181 42.2317C3.9166 44.4451 2.38269 45.9601 2.11505 48.4707C-0.122566 47.845 -0.605309 51.3888 0.76513 51.4751C5.3531 51.7631 9.75618 52.5922 14.3755 52.2922C18.3141 52.0369 22.7706 52.4365 26.6197 51.5323C26.8391 51.4808 26.9597 51.2154 26.9744 50.9699C27.0639 49.4577 26.9351 50.0908 26.3297 48.2081ZM25.5881 50.5347C23.9293 50.511 22.2489 50.6678 20.5912 50.7519C17.9639 50.8853 15.3516 51.1528 12.7198 51.1939C9.92664 51.238 7.18914 51.1542 4.4149 50.7397C3.15832 50.5524 -0.450859 50.1253 2.2474 49.1988C2.25597 49.1967 2.26341 49.1942 2.27153 49.1901C2.2934 49.1828 2.30738 49.1757 2.33015 49.1683C2.49858 49.1128 2.54345 48.919 2.50061 48.7549C3.64332 46.0273 5.24555 43.7137 6.56593 41.1073C8.26534 37.7529 9.01098 33.7477 9.78729 29.9869C11.3492 22.4204 12.0799 14.5295 12.4084 6.75482C12.429 6.2706 12.0337 6.02454 11.7052 6.09667C11.5194 5.95949 11.3343 5.82503 11.2824 5.55421C11.187 5.05556 11.9449 5.021 12.1595 4.86204C12.3131 4.74827 12.3514 4.52888 12.2876 4.35251C12.4452 3.86094 12.6042 3.30596 13.0456 3.16115C13.3615 3.05745 13.6812 3.33454 13.7897 3.67504C13.9015 4.02561 13.7649 4.37537 13.9272 4.70526C14.0215 4.89634 14.1967 4.92138 14.3432 4.83346C14.7247 5.00221 15.1417 5.15355 14.9874 5.75236C14.8116 6.43554 14.4916 6.08687 14.0896 6.32313C13.9257 6.41948 13.851 6.68514 13.8993 6.88791C13.9054 6.91323 13.9164 6.93065 13.9236 6.95405C13.0242 14.514 14.6528 23.4128 15.945 30.8255C17.0886 37.3865 19.8908 44.4797 24.3785 48.6082C24.4274 48.6534 24.477 48.679 24.5257 48.6912C24.5958 48.7878 24.6982 48.8472 24.8348 48.8289C26.0955 48.7993 26.3464 49.3679 25.5881 50.5347Z" fill="white"/>
</svg>
