<svg width="61" height="72" viewBox="0 0 61 72" fill="none" xmlns="http://www.w3.org/2000/svg">
<path d="M43.2056 3.48095C40.5318 1.49099 36.4459 1.18699 33.3432 0.614104C31.3815 0.251742 29.0935 -0.161626 27.4144 0.851057C25.301 1.52365 23.7069 3.86208 22.5469 5.58462C22.4792 5.68537 22.4745 5.7994 22.5043 5.91C22.4696 6.07612 22.4935 6.25655 22.6439 6.38197C24.2603 7.73062 27.2674 7.80807 29.2045 8.58123C33.3818 10.2482 38.2037 11.6843 40.6945 15.8017C40.83 16.0258 41.0086 16.149 41.1955 16.2168C41.459 16.4286 41.833 16.4882 42.1701 16.2005C46.5282 12.4799 49.1022 7.86956 43.2056 3.48095ZM33.6641 8.77493C30.4582 7.45148 27.3347 6.22149 23.9795 5.68785C24.4929 5.24881 24.9818 4.78695 25.4609 4.29185C26.2393 3.48747 27.115 2.75315 27.8928 1.95331C31.0322 1.34346 34.7767 2.36659 37.8981 3.12258C40.5005 3.75302 43.1666 5.46793 44.6653 7.74417C46.3189 10.2562 43.4549 12.5551 41.7718 14.2462C39.8581 11.4553 36.7219 10.0371 33.6641 8.77493Z" fill="white"/>
<path d="M34.9388 39.7996C36.422 36.2446 37.7901 33.9018 36.1873 29.8796C35.9239 29.2187 35.5334 28.5756 35.0676 27.9478C35.301 28.2075 35.5758 28.4458 35.8868 28.6553C36.2273 29.1647 37.2048 29.2738 37.3847 28.5163C38.8451 22.3667 44.9632 16.401 35.7575 12.4613C31.3454 10.573 26.6606 8.242 21.9622 7.57169C19.0829 7.1607 17.28 10.2086 16.0585 12.1684C15.8401 12.5188 16.1652 12.8851 16.511 12.934C16.8757 13.4191 17.4626 13.724 17.9807 14.0647C18.124 14.1591 18.344 14.14 18.4497 14.0194C18.6812 13.7554 18.9929 13.5916 19.2281 13.3304C19.5359 12.9891 19.7886 12.6 20.0442 12.218C20.3187 11.8077 20.6599 11.4684 21.1386 11.3089C21.2045 11.2871 21.2954 11.2631 21.3826 11.2533C21.383 11.2763 21.3827 11.3032 21.3754 11.35C21.2366 12.2546 20.6346 13.0125 20.4295 13.9035C20.1327 14.2208 19.8526 14.5418 19.6197 14.9197C19.4519 15.1919 19.6199 15.5055 19.8595 15.6891C20.3182 16.0402 20.7739 16.3953 21.2329 16.7462C21.5073 16.9564 21.8768 16.7922 22.024 16.5571C22.666 15.5314 23.3134 14.4229 24.1908 13.5905C24.7269 13.0818 26.5235 12.4478 26.1846 13.8109C25.9688 14.6796 25.3768 15.5074 24.8852 16.2228C24.5553 16.7027 24.315 17.2312 24.0195 17.7266C23.6569 17.8304 23.52 18.3385 23.8275 18.634C24.37 19.1557 25.0068 19.5815 25.5919 20.0535C26.037 20.4127 26.603 20.4113 26.8957 19.9278C27.3612 19.1595 30.7753 13.3988 31.87 15.9041C32.2796 16.841 31.2909 18.1909 30.848 18.8856C30.3626 19.6473 29.7595 21.0287 28.9142 21.4269C28.5651 21.5912 28.5526 22.0368 28.7654 22.3446C27.5556 21.4866 26.3875 20.6907 25.4294 19.9847C19.9112 15.9196 10.1102 9.53475 7.14686 18.5646C6.7454 18.7043 6.67719 19.2996 7.09868 19.5646C7.48397 19.8063 7.95965 19.9606 8.37503 20.1377C8.59051 20.229 8.81857 20.3411 9.04535 20.4026C9.23264 20.5885 9.52577 20.6776 9.70719 20.4587C10.0996 19.9859 10.4402 19.4584 10.7817 18.9466C11.0463 18.5501 11.9031 17.3305 12.5657 17.6302C13.2033 17.9183 11.5359 20.7693 11.2912 21.1798C11.1659 21.3896 11.4791 21.6184 11.6472 21.4568C12.6035 20.538 14.1001 18.7971 12.9168 17.3645C11.5045 15.6548 10.055 18.069 9.25413 19.368C8.80974 18.9966 8.18472 18.6938 7.6942 18.5708C13.9148 12.8329 20.321 17.5681 26.2991 22.4648C28.4367 24.2155 30.418 26.2001 32.3827 28.1417C36.1024 31.818 34.7286 35.0988 33.742 39.047C32.7885 38.4302 31.3596 37.7658 31.2475 36.8023C31.1135 35.6563 32.1396 34.4989 32.4495 33.4675C32.8418 32.1625 32.7392 30.2602 31.3777 29.3835C29.4711 28.1546 27.1541 31.1871 26.3123 33.038C26.2475 32.9784 26.1835 32.9176 26.118 32.8586C26.0396 32.7871 26.004 32.7464 25.9698 32.7076C26.0816 32.4948 26.203 32.2805 26.3198 32.0783C26.7237 31.3786 27.2079 30.7275 27.6098 30.0249C28.4012 28.6425 28.8853 26.7331 27.4136 25.4424C24.9689 23.2974 22.8263 27.4628 21.7612 29.1939C21.4707 29.0193 21.178 28.8494 20.8832 28.683C21.5569 28.0398 22.0318 27.2357 22.4862 26.3821C23.0139 25.3907 23.6684 24.0054 23.1889 22.8047C22.6746 21.5165 21.1962 21.5525 20.2759 22.1236C19.1277 22.8357 18.4493 24.1021 17.8541 25.3103C17.4454 25.09 17.0172 24.9227 16.5756 24.8112C16.7463 24.5696 16.9318 24.3331 17.0618 24.1182C17.4439 23.4858 17.7614 22.8605 18.0167 22.1596C18.3592 21.2176 18.7361 19.755 17.8931 18.852C15.8971 16.7133 13.8191 20.3016 13.0098 21.9158C12.466 21.7012 11.8801 21.6426 11.3134 21.5598C11.277 21.5543 11.2709 21.6064 11.2989 21.6238C11.7939 21.9327 12.2667 22.2781 12.7621 22.5837C12.8277 22.6239 12.8888 22.6393 12.9465 22.6425C13.0522 22.7561 13.2156 22.8101 13.3704 22.7197C14.0516 22.3232 14.4864 21.5312 14.9502 20.9151C15.1785 20.6119 16.6564 18.7927 16.9816 19.852C17.2458 20.7123 16.4272 21.8431 16.1442 22.5648C15.8424 23.3347 15.5767 24.153 15.2551 24.9068C15.1182 25.2275 15.261 25.5882 15.6209 25.7135C16.3133 25.9543 16.9649 26.2939 17.6522 26.5434C18.0319 26.6817 18.297 26.4416 18.3668 26.1365C18.929 25.3999 19.4949 24.6632 20.0968 23.9604C20.5329 23.4509 22.4451 22.0027 22.267 23.7227C22.0719 25.6063 20.4422 26.9358 19.8374 28.6202C19.7812 28.7768 19.8975 28.9863 20.0408 29.0683C20.5703 29.3711 21.1005 29.6713 21.6424 29.9491C21.8177 30.1826 22.1658 30.3151 22.399 30.0879C23.1696 29.3367 23.7483 28.4143 24.4568 27.607C25.0405 26.9418 26.8956 25.5159 26.5547 27.5768C26.3229 28.9782 25.218 30.0706 24.8241 31.4187C24.4409 32.7287 24.8079 33.1765 25.8514 34.057C25.9509 34.1408 26.0555 34.1766 26.1584 34.1931C26.3335 34.3982 26.6378 34.5021 26.8215 34.2744C27.4699 33.4717 28.0767 32.6356 28.7228 31.831C29.0936 31.3693 29.5266 30.9708 29.9518 30.5616C31.1193 29.4381 31.6236 31.3603 31.5206 32.3156C31.3493 33.8998 30.2529 35.1221 30.2037 36.76C30.1536 38.4317 32.3037 39.3476 33.3725 40.2903C33.7672 40.6384 34.2474 40.445 34.4145 40.112C34.6297 40.1282 34.8372 40.043 34.9388 39.7996ZM31.0509 24.0414C31.3425 23.9631 31.5758 23.7353 31.6095 23.4448C32.3124 22.8858 32.7715 21.8291 33.1763 21.1161C33.5809 20.4038 34.0127 19.6647 34.5309 19.0346C35.2806 18.123 36.1752 18.5429 36.336 19.7569C36.5677 21.5067 34.9756 23.408 34.4228 24.956C34.0947 25.8741 34.2402 26.7403 34.7053 27.4737C33.7091 26.2582 32.4156 25.1092 31.0509 24.0414ZM35.37 25.2388C35.7007 24.0962 36.4817 23.1504 36.8943 22.0439C37.4038 20.677 37.7337 18.6276 35.9576 17.8497C34.8085 17.3466 33.2187 18.963 32.6696 19.6813C32.106 20.4184 31.2904 21.4607 31.0056 22.52C30.7206 22.2863 30.4268 22.0696 30.1256 21.8612C30.3971 21.5232 30.7434 21.2244 31.0227 20.9211C31.6086 20.2853 32.0544 19.5477 32.455 18.7774C32.9629 17.8004 33.6038 16.0634 32.5923 15.0395C30.5404 12.9622 27.1721 16.3091 25.8355 18.3316C25.5693 18.1697 25.2937 18.0271 25.0106 17.9125C25.6451 17.3599 26.1682 16.7734 26.6531 15.9947C27.1607 15.1799 27.8166 13.86 27.2752 12.8311C26.7375 11.8091 25.2315 11.6684 24.3571 12.1002C22.967 12.7869 22.0628 14.0902 21.2945 15.4047C21.1324 15.2874 20.9702 15.1709 20.8079 15.0539C20.9216 14.7834 21.0357 14.5124 21.1574 14.2453C21.9813 13.4043 22.8201 11.7392 22.1937 10.711C21.738 9.96362 20.7353 10.2315 20.1371 10.463C19.5346 10.6962 19.0663 11.289 18.6761 11.7686C18.3304 12.1932 18.2148 12.7364 17.9867 13.2064C17.6693 13.0377 17.3554 12.8609 17.0446 12.6826C19.3746 10.4051 20.7887 8.63381 24.7226 9.5725C27.8556 10.3203 30.8635 11.7763 33.7917 13.1652C37.6327 14.9866 39.8465 18.707 37.8863 22.5086C37.1275 23.9804 36.5858 25.6027 36.0737 27.2049C35.5262 26.7073 35.0768 26.2509 35.37 25.2388Z" fill="white"/>
<path d="M28.1878 51.0784C28.1988 51.0894 28.2143 51.0739 28.2033 51.0629L28.1878 51.0784Z" fill="white"/>
<path d="M30.1505 54.5274C30.5948 53.7528 30.8827 52.8305 31.1918 51.9848C31.3337 51.5961 31.4449 51.2166 31.5173 50.8319C31.5915 50.7967 31.6649 50.7533 31.709 50.6473C32.6471 48.3982 34.4589 43.8926 32.7982 41.3362C29.765 36.6667 24.6316 33.0611 20.1758 29.8146C16.6914 27.2758 0.867315 13.6707 0.912072 26.0369C0.854826 26.1127 0.813011 26.2024 0.816246 26.3211C0.838052 27.0877 1.86583 27.6796 2.4572 28.0175C2.76209 28.1917 3.11924 28.1028 3.28231 27.8203C3.75072 27.0107 3.94553 26.0475 4.43715 25.2301C4.63015 24.9093 5.88849 23.6184 5.9615 24.7285C6.0147 25.5366 5.49998 26.2791 5.22959 26.9807C4.99058 27.6014 4.71906 28.2071 4.47541 28.826C4.41826 28.971 4.56485 29.1227 4.6967 29.0708C4.81245 29.4446 5.02566 29.6976 5.30236 30.0274C5.43685 30.1886 5.73889 30.2418 5.89987 30.1313C6.92698 29.4274 7.46489 28.2625 8.27991 27.3461C8.76589 26.7997 10.1385 26.1379 9.95101 27.4386C9.70861 29.1183 8.56791 30.4229 7.97143 31.9466C7.68224 32.0309 7.46992 32.3242 7.68005 32.6636C8.06235 33.28 8.51383 33.8128 8.99413 34.3586C9.25311 34.6527 9.75153 34.6534 9.99198 34.3979C11.0265 33.2979 11.4945 31.7953 12.6188 30.7435C13.4244 29.9898 14.0472 30.3592 13.8777 31.3205C13.6783 32.4532 13.1003 33.4958 12.5692 34.4786C12.2187 35.1268 11.6077 35.8682 11.6063 36.6545C11.6057 36.9439 11.8181 37.1711 12.0726 37.2773C12.2649 37.616 12.4723 37.9153 12.7751 38.2185C12.9927 38.4366 13.281 38.4105 13.4874 38.2466C14.7671 37.2292 15.6201 35.7367 16.8308 34.6304C17.1458 34.3424 17.9089 33.6797 18.4212 34.0882C18.6414 34.2631 18.4431 34.967 18.4045 35.164C18.1456 36.4786 17.6001 37.7015 17.0197 38.8784C16.6467 39.6351 15.8943 40.5284 16.0924 41.4514C16.1056 41.5131 16.1642 41.5559 16.2004 41.6106C16.1866 41.7464 16.2181 41.8942 16.3397 42.0399C16.6179 42.3647 16.8833 42.6993 17.1342 43.0449C17.3185 43.3013 17.6937 43.5001 17.9741 43.3067C19.2586 42.4198 19.9371 41.0394 20.7496 39.7419C21.3385 38.8007 22.0825 37.8054 23.3299 37.8185C24.146 37.8272 24.5928 38.4415 24.686 39.1756C24.8621 40.5628 24.2543 42.0539 23.7668 43.2683C23.4694 44.0094 22.8401 45.0164 22.717 45.8994C22.5419 46.023 22.455 46.2487 22.62 46.5139C23.0986 47.2834 23.5895 48.019 24.3074 48.5905C24.594 48.819 25.0922 48.8878 25.2528 48.4999C25.6961 47.4301 26.046 46.3223 26.5261 45.2686C26.6973 44.8931 27.8157 42.5278 28.2658 43.7823C28.9733 45.7511 27.8189 47.7208 27.98 49.6706C27.6357 50.3406 27.3115 51.017 27.1737 51.7898C27.0618 52.4198 27.3361 52.9074 27.7754 53.3883C28.2183 53.8727 28.9777 54.5107 29.6079 54.6363C29.6091 54.6366 29.6098 54.6359 29.6098 54.6359C29.7929 54.7391 30.0308 54.7355 30.1505 54.5274ZM28.659 51.484C28.7271 51.0922 28.8157 50.7053 28.9032 50.3181C29.6642 49.3703 29.7812 47.7849 29.8938 46.6117C30.0199 45.306 30.1679 43.4709 29.0436 42.4209C26.7014 40.2343 25.0843 44.9109 24.3912 47.1498C24.1778 46.9345 23.9795 46.7057 23.7933 46.4627C24.6406 45.6534 25.1534 43.955 25.4984 42.9836C26.0111 41.5391 26.7023 39.4706 25.8492 37.9041C24.9798 36.3075 22.9573 36.1232 21.5658 36.7978C19.5755 37.763 19.0432 40.3381 17.6141 41.8991C17.5424 41.8269 17.47 41.7509 17.3956 41.6815C18.2163 41.1161 18.7303 39.6798 19.0764 38.958C19.7597 37.5358 20.5917 35.767 20.2693 34.0765C19.9527 32.4163 18.3643 32.1276 17.0937 32.7238C15.3536 33.5402 14.1375 35.4901 13.0332 37.0896C13.0058 37.0585 12.9786 37.0272 12.9508 36.9961C13.6614 36.3659 14.1641 35.2563 14.5831 34.4896C15.2355 33.2961 16.0559 31.7487 15.7601 30.277C15.456 28.7631 13.5397 28.1784 12.3353 28.8237C10.8563 29.6163 10.1407 31.3465 9.29339 32.7944C9.17365 32.6848 9.05321 32.5754 8.93462 32.4647C9.57467 31.9186 10.0412 31.0909 10.4288 30.393C11.0315 29.3077 11.5621 28.0616 11.321 26.741C11.098 25.5202 9.55823 25.0701 8.59201 25.4682C7.09972 26.0832 6.37099 27.7522 5.48467 29.0272C5.33253 28.9356 5.17256 28.8522 5.00925 28.7757C6.12232 27.5982 7.66247 25.6094 6.84371 23.9217C6.36052 22.9251 4.99011 23.1314 4.35659 23.6301C3.49127 24.311 3.09186 25.5688 2.54557 26.5882C2.31661 26.386 2.07796 26.1755 1.83127 26.029C5.27118 16.6599 19.966 30.7817 23.4527 33.5375C25.0613 34.8091 26.5356 36.2944 27.9909 37.7368C31.8354 41.5471 31.2733 45.6248 30.8252 50.2575C30.8227 50.2841 30.8427 50.306 30.8447 50.3325C30.7714 50.5786 30.6908 50.8212 30.5986 51.0582C30.5078 51.0921 30.43 51.1653 30.3939 51.3009C30.3713 51.3854 30.3487 51.47 30.3261 51.5545C30.3102 51.6144 30.3323 51.6572 30.3422 51.7058C30.1126 52.2321 29.8889 52.7596 29.691 53.2987C29.4959 53.1401 29.2776 53.0007 29.071 52.8351C28.5583 52.4231 28.5621 52.0396 28.659 51.484Z" fill="white"/>
<path d="M49.34 59.1007C49.873 59.7542 50.503 60.3707 50.9769 61.0479C50.9159 61.7274 51.9508 62.3976 52.4562 61.7963C54.7823 59.0245 57.5799 54.9734 55.4764 50.9334C52.06 44.3718 44.5246 38.4746 38.8733 33.7508C38.9356 33.4766 38.5488 33.2629 38.361 33.4597C38.332 33.4903 38.3166 33.5266 38.289 33.5572C38.2446 33.5881 38.2196 33.6286 38.1988 33.6789C37.3576 34.691 37.0754 35.9769 36.716 37.257C36.2124 39.0501 35.3256 40.6907 34.8289 42.4855C34.707 42.926 35.1233 43.2772 35.5092 43.296C36.4971 45.0213 38.1311 42.2343 38.6547 41.3939C38.9683 40.8899 39.2917 40.3937 39.7224 39.985C40.9192 38.8501 41.4704 41.1272 41.5324 41.856C41.6301 42.9939 41.3535 44.0868 40.9408 45.0985C40.6029 45.9265 40.0129 46.6819 39.8844 47.5872C39.8559 47.7896 39.982 47.9457 40.1412 48.0074C40.1209 48.1451 40.1366 48.2937 40.2355 48.4111C40.45 48.6662 40.6701 48.9154 40.8543 49.1933C41.1303 49.6097 41.7214 49.7635 42.0633 49.4031C42.8881 48.5343 43.3553 47.3043 44.1599 46.3857C44.6784 45.7938 46.4365 44.6487 46.5361 46.2492C46.6477 48.042 45.3071 49.8088 44.6567 51.3525C44.5885 51.5147 44.6249 51.6651 44.6952 51.7982C44.6728 51.9254 44.6896 52.066 44.7735 52.2094C45.1239 52.8068 45.5347 53.4457 46.1693 53.7562C46.2447 53.7933 46.3043 53.7716 46.375 53.7874C46.5268 53.9304 46.7589 53.9755 46.9545 53.8239C47.5989 53.3274 48.051 52.6879 48.4951 52.011C48.7869 51.5663 50.272 49.2284 50.5398 50.9026C50.7878 52.4526 49.7967 53.7069 49.1052 54.9195C48.5587 55.8777 48.1941 56.8023 48.6166 57.9401C48.6829 58.1181 48.8012 58.2761 48.8987 58.4419C45.2235 53.1493 38.439 47.918 34.8885 45.2245C34.8617 45.157 34.8449 45.0848 34.814 45.0188C34.7594 44.9005 34.5518 44.9173 34.5402 45.0438C34.4555 45.9328 34.5641 46.8439 34.453 47.7264C34.2942 48.9878 33.6381 50.2114 33.1285 51.3386C32.4327 52.8771 31.4448 54.6244 31.4646 56.3987C31.465 56.4647 31.4972 56.521 31.5275 56.5771C31.5213 56.6013 31.4981 56.617 31.5016 56.6449C31.5692 57.2144 32.2227 57.6855 32.6888 57.9757C32.9734 58.1528 33.3222 57.9973 33.3957 57.7005C33.6565 56.6519 35.539 51.8792 37.1016 53.2387C37.8498 53.8894 37.3789 55.4759 37.3039 56.2398C37.2473 56.814 37.13 57.3805 36.9905 57.9386C36.5666 58.7812 35.739 59.9035 36.008 60.871C36.0108 60.8812 36.0228 60.8822 36.0266 60.8919C35.9969 60.9136 35.9971 60.9613 36.0459 60.968C36.064 60.9704 36.0821 60.9728 36.1004 60.975C36.1074 60.9825 36.1174 60.986 36.1257 60.9911C36.0677 61.1131 36.0465 61.2517 36.1417 61.4028C37.2161 63.1097 38.3976 62.654 39.0507 61.1032C39.3502 60.392 41.2007 55.2018 42.291 57.1444C43.3741 59.0744 41.3323 61.9771 40.6783 63.6137C40.5027 64.0536 39.8142 65.0064 40.045 65.5669C40.3512 66.3094 40.9191 66.8686 41.6708 67.1276C41.9561 67.3344 42.3847 67.3484 42.5751 66.9907C42.9524 66.2812 45.9053 61.8849 46.6507 63.0185C47.589 64.4472 46.0325 66.8176 45.4436 68.029C44.8796 69.189 45.0784 70.1968 46.211 71.0561C46.6208 71.3661 47.1017 71.1216 47.285 70.7389C52.6672 67.8198 52.1547 63.4746 49.34 59.1007ZM50.5836 55.7963C51.2803 54.1928 52.0695 52.8211 51.8923 50.9559C51.7944 49.9248 51.0001 48.5303 49.7619 48.8956C48.2417 49.3442 47.0726 50.6827 46.5266 52.1964C46.286 51.9969 46.0371 51.8062 45.8057 51.5919C46.4437 50.8355 46.8498 49.8454 47.1713 48.9188C47.5519 47.8224 47.9181 46.405 47.2929 45.2516C46.6396 44.0474 45.0988 44.1374 44.1306 44.6185C43.3318 45.0156 42.6648 45.7171 42.1089 46.3904C41.759 46.8142 41.3266 47.3196 41.0398 47.8616C40.9309 47.8202 40.8253 47.7704 40.7157 47.7291C41.9325 46.4854 42.6934 44.3596 42.7766 42.6302C42.8498 41.1067 42.4196 39.0204 40.653 38.5982C39.2531 38.2645 38.4727 39.3827 37.8529 40.3641C37.4769 40.9591 37.1414 41.5798 36.801 42.1965C36.6278 42.51 36.3312 43.1419 36.0086 43.0133C36.0102 43.0102 36.013 43.0089 36.0141 43.0058C36.6461 41.6349 37.2427 40.224 37.7261 38.7838C38.1884 37.4043 38.3529 35.9279 38.6914 34.5067C41.8788 38.2233 45.4078 41.6627 48.7346 45.2573C50.2852 46.933 51.7539 48.5818 53.0892 50.4384C55.3484 53.5799 53.4658 57.1461 51.7662 59.729C51.5089 59.3778 51.2082 59.0495 50.9074 58.7173C49.7883 57.4833 50.0043 57.1304 50.5836 55.7963ZM46.6484 69.2767C46.8276 68.8857 47.1435 68.5483 47.3758 68.1896C47.92 67.3486 48.241 66.2318 48.4611 65.2459C48.7954 63.7495 48.4804 61.7104 46.7568 61.0889C45.3871 60.5951 44.0369 61.9603 43.3246 62.8474C42.6392 63.7027 42.0517 64.6464 41.6682 65.6863C41.3061 65.3935 41.0001 65.1239 41.1826 64.7062C41.577 63.8046 42.3011 63.0041 42.758 62.122C43.5462 60.603 44.5931 58.391 43.2882 56.7278C42.1834 55.3197 40.6846 56.3848 39.9544 57.3058C39.4419 57.9527 38.9144 58.5171 38.4828 59.231C38.1111 59.8465 37.7214 61.7515 36.8665 60.8643C36.83 60.8264 36.7862 60.8302 36.7462 60.8073C37.3136 60.2799 37.522 59.2736 37.5238 58.4355C38.4488 56.7965 39.4589 53.4937 37.5136 52.3541C34.72 50.7162 33.8797 55.1441 32.7986 56.8592C32.6465 56.7426 32.4876 56.6392 32.3232 56.5528C33.5561 54.9697 34.1975 52.7156 34.7012 50.769C35.0694 49.3452 35.4572 47.4581 35.0927 45.8692C37.9806 49.482 41.3402 52.6716 44.5063 56.0432C46.5674 58.2382 48.6967 60.2386 49.7595 63.0971C50.6221 65.4174 48.5852 67.9879 46.9595 69.6756C46.8045 69.4818 46.6457 69.2819 46.6484 69.2767Z" fill="white"/>
<path d="M59.1666 52.2462C65.0506 42.3505 52.0505 35.7614 46.3366 28.5991C45.0871 27.0329 42.577 23.9959 40.3571 25.1978C38.9034 25.9844 38.7963 29.265 39.3077 31.0188C39.0455 31.0932 38.8358 31.3253 38.9558 31.63C39.9803 34.23 43.6652 35.8094 45.5815 37.6805C49.9872 41.9823 53.2754 46.8855 57.2137 51.4873C57.0233 52.4166 58.5756 53.2408 59.1666 52.2462ZM50.4523 40.8083C47.1785 37.6522 43.0681 34.6449 40.0156 31.3255C40.2311 30.1858 41.0294 25.6286 43.261 27.7429C44.9497 29.343 46.4528 31.2242 48.0014 32.9529C51.9097 37.3155 61.0072 43.5716 57.9389 50.0836C56.2024 46.4374 53.4447 43.6931 50.4523 40.8083Z" fill="white"/>
</svg>
