<svg width="20" height="21" viewBox="0 0 20 21" fill="none" xmlns="http://www.w3.org/2000/svg">
<path d="M7.45 20.4255C7.11667 20.6021 6.79167 20.5887 6.475 20.3852C6.15833 20.1825 6 19.878 6 19.4718V15.8953H2C1.45 15.8953 0.979333 15.688 0.588 15.2733C0.196 14.8579 0 14.3588 0 13.776V2.11938C0 1.53655 0.196 1.03744 0.588 0.622037C0.979333 0.207346 1.45 0 2 0H18C18.55 0 19.021 0.207346 19.413 0.622037C19.8043 1.03744 20 1.53655 20 2.11938V13.776C20 14.3588 19.8043 14.8579 19.413 15.2733C19.021 15.688 18.55 15.8953 18 15.8953H14V19.4718C14 19.878 13.8417 20.1825 13.525 20.3852C13.2083 20.5887 12.8833 20.6021 12.55 20.4255L10 19.0744L7.45 20.4255ZM2 11.6566H18V8.47751H2V11.6566Z" fill="white"/>
</svg>
