<?xml version='1.0' encoding='utf-8'?>
<svg xmlns="http://www.w3.org/2000/svg" version="1.1" width="900px" height="1464px" viewBox="0 0 900 1464"> <g id="layer1"> <g style="fill:rgb(123,117,116); fill-opacity:1.0; stroke-linejoin: miter"> <path d="M309.102,446.95737L303.26654,450.21786L303.8188,451.56824L309.92438,448.327L309.10464,446.9618"/> </g> <g style="fill:rgb(0,0,0); fill-opacity:1.0; stroke-linejoin: miter"> <path d="M280.9389,548.0908L271.89722,548.5126Q269.75958,555.3905,269.69604,557.5322Q269.4956,559.7989,271.22357,561.0696Q285.90585,561.8009,290.51996,561.4901Q296.10803,561.2069,297.24747,559.6548Q298.24292,557.9385,296.57217,556.35315Q296.3064,556.15704,295.94327,556.10547L294.28635,556.09735Q293.74103,556.06036,293.222,555.9327Q292.11252,555.6607,290.84842,554.98773Q287.58243,553.25745,280.95926,548.10657"/> </g> <g style="fill:rgb(0,0,0); fill-opacity:1.0; stroke-linejoin: miter"> <path d="M239.51141,538.74774Q237.90712,538.07715,235.95477,540.8728Q232.9269,545.4307,232.36604,548.6261Q232.23268,549.6745,233.08517,550.2871L238.34256,552.2625Q248.61084,556.1145,252.02905,556.0914Q254.25012,556.19226,255.94026,555.3382Q257.9939,554.26935,258.2061,553.02704Q258.28586,552.29004,257.3525,551.77484Q256.98877,551.5737,256.3812,551.3522Q252.61484,550.1594,251.81339,549.7436Q250.20464,549.01385,249.2905,548.1173Q247.08528,546.01013,246.08159,541.4577L241.98581,540.91034Q240.41537,539.02826,239.53293,538.7557"/> </g> <g style="fill:rgb(0,0,0); fill-opacity:1.0; stroke-linejoin: miter"> <path d="M255.79636,463.01422Q254.51808,469.2636,254.72676,472.02612Q254.74594,474.70065,256.65695,480.16217Q255.23941,482.3821,254.20644,485.5049Q249.17767,502.90436,248.27208,504.53705Q247.52432,506.9044,243.09474,513.99023Q242.31563,515.5026,241.82153,516.95154Q241.16309,518.83655,240.49156,521.85254Q237.90355,535.45496,237.76962,535.2509Q236.93967,538.57227,235.1157,542.04626L247.12013,545.0259Q247.19873,540.47595,248.71329,535.00354Q250.00931,529.985,255.48082,514.00214Q262.64105,506.5454,264.54874,503.5735Q266.7339,500.47754,267.68744,495.834L274.98126,510.53983Q271.7611,521.5323,271.33,526.7992Q270.80048,529.6067,270.61838,552.2864Q276.7323,551.7649,278.7777,551.09247Q280.944,550.46045,282.5221,548.6527Q281.09592,548.4675,282.87567,534.05524Q283.75485,527.42303,284.8748,521.5742Q285.5338,517.8086,287.35306,511.4174Q287.65186,510.13193,287.77344,508.7538Q288.11874,505.45355,286.9737,498.62857Q283.77295,480.6899,279.00726,468.2279L255.87785,463.03253"/> </g> <g style="fill:rgb(67,47,36); fill-opacity:1.0; stroke-linejoin: miter"> <path d="M289.95313,389.79034Q285.44272,389.7113,281.98108,394.66412Q278.03952,400.48184,277.98056,406.80084L289.0244,406.15518L300.74164,400.42273Q298.45746,394.4262,296.2643,392.39468Q293.66006,389.87668,289.99762,389.79047"/> </g> <g style="fill:rgb(255,205,166); fill-opacity:1.0; stroke-linejoin: miter"> <path d="M295.4417,398.362Q294.5763,398.35614,293.9774,399.29007Q293.3974,400.1215,292.46994,402.86075L290.50757,402.53482L288.92947,404.53647L287.67078,404.19766L288.3131,402.35406Q287.5432,400.4663,286.87686,399.72968Q285.7154,398.40506,284.4043,399.29352Q284.18854,399.18863,278.94177,403.8635Q277.8334,405.99442,276.47943,407.56152Q275.0622,409.23273,271.83804,412.2148L281.03165,416.70505Q282.71445,416.47885,284.36475,415.15088Q286.52753,417.13538,287.29422,417.05652Q287.71375,417.04678,288.03308,416.74866Q288.40546,416.45105,289.00244,415.336Q289.90674,414.8614,290.1092,414.6185Q290.35684,414.40134,290.4974,413.7337Q291.17886,414.2636,291.4841,414.13284Q291.88657,414.0788,292.63138,412.57367Q294.7357,413.3161,295.0125,412.406Q295.39645,411.74258,294.9088,408.3622Q296.8534,407.05405,297.50906,405.83163Q298.36844,404.28024,298.46838,402.17755Q298.6733,398.8906,295.47318,398.36227"/> </g> <g style="fill:#7ed957; fill-opacity:1.0; stroke-linejoin: miter"> <path d="M272.38287,410.86725Q266.90375,415.0411,264.518,418.40646Q261.71143,422.1718,260.0613,427.4686Q256.97174,436.493,255.29402,465.4496Q256.6982,464.97186,280.69278,469.77222L283.49045,438.59943Q284.3132,433.55115,284.51138,431.02762Q284.8182,427.4672,284.45065,424.86935Q283.99393,420.97546,281.25772,417.8227Q278.8881,414.96503,272.41263,410.88663"/> </g> <g style="fill:rgb(43,33,32); fill-opacity:1.0; stroke-linejoin: miter"> <path d="M253.78232,415.03647L250.53667,415.46918L250.96579,418.67902L249.51093,419.18332Q244.6663,428.52682,243.58037,432.45465Q242.6078,435.57965,242.97197,438.27426Q243.21324,440.57443,245.2266,444.17377Q242.35385,445.86368,243.42189,449.9059Q244.93979,455.6007,248.8299,461.62955Q251.90875,466.266,254.73265,466.7992Q259.92215,468.20752,266.19946,454.61346L260.34967,419.6938L258.99542,418.6512L254.62059,418.73935L253.79759,415.10394"/> </g> <g style="fill:rgb(43,33,32); fill-opacity:1.0; stroke-linejoin: miter"> <path d="M273.02188,411.36713Q270.96957,411.287,268.30548,413.0263Q265.44226,414.83444,258.7054,420.47092L259.19247,424.82657Q264.83942,419.3329,267.66003,417.36316Q270.91904,415.0274,273.25272,414.75064Q275.60547,414.4404,278.0297,416.07126Q280.14563,417.416,283.75885,421.8155Q282.0625,416.38577,279.93262,414.46713Q276.86972,411.627,273.0703,411.36795"/> </g> <g style="fill:rgb(43,33,32); fill-opacity:1.0; stroke-linejoin: miter"> <path d="M268.3955,449.23273Q264.6745,452.12686,263.54138,453.60757Q262.4833,454.95352,263.40292,455.71802Q263.76657,456.05,264.74362,456.47345L270.57562,451.1525L268.39957,449.23633"/> </g> <g style="fill:rgb(255,205,166); fill-opacity:1.0; stroke-linejoin: miter"> <path d="M268.1584,433.83524Q266.4117,444.3196,267.58972,449.26346Q268.58133,453.76083,273.248,455.20712Q276.049,456.44977,293.29434,456.82275Q295.8238,458.33368,297.70175,457.98135Q300.52896,457.49573,303.84598,455.1608Q305.58615,453.89423,304.7254,452.93018Q307.11133,452.83417,307.07147,450.86826Q306.86935,450.02032,305.44528,449.83954Q304.27838,449.62585,300.39224,449.85287Q302.08856,447.41605,299.7329,447.20288Q295.64285,446.6844,293.66174,450.70184Q283.32443,449.15854,279.71375,447.28876L277.27155,446.14194Q278.28958,444.57208,278.591,442.98367Q278.94632,441.29657,279.08304,437.32645L268.19852,433.84805"/> </g> <g style="fill:rgb(67,47,36); fill-opacity:1.0; stroke-linejoin: miter"> <path d="M282.34015,396.43246L277.8158,405.89395Q280.3349,402.82495,281.1842,401.92905Q281.56665,401.52066,281.90506,401.20697Q283.06516,400.20004,283.23648,400.0196Q283.65747,399.6187,284.34116,398.92236L282.34866,396.44302"/> </g> <g style="fill:rgb(255,0,25); fill-opacity:0.05882353; stroke-linejoin: miter"> <path d="M283.2181,400.247L283.21515,400.25403L283.21667,400.25403L283.2181,400.247 Z M285.94205,400.42267Q285.94202,400.4227,285.94202,400.42273L285.94205,400.42273L285.94205,400.42267 Z M285.9383,400.42902Q285.40326,401.33252,285.06497,401.8013Q284.92126,402.00156,284.7907,402.15155Q284.67108,402.29254,284.42737,402.5289Q284.3945,402.56482,284.39432,402.5756Q284.38828,402.59512,284.43674,402.5953Q284.70676,402.5677,284.85815,402.5677Q284.9464,402.5677,284.99435,402.5771Q285.1734,402.5997,285.26846,402.69122Q285.3744,402.79068,285.42432,403.00186Q285.47046,403.1822,285.48575,403.61197L285.94116,400.42902 Z M283.21243,400.2605L282.88214,401.04495Q282.75284,401.9665,282.69876,402.41818Q282.46088,404.315,282.6246,405.13715Q282.76834,405.91367,283.2453,406.31467Q283.50134,406.52643,283.83426,406.6135Q284.06448,406.6662,284.208,406.6662Q284.34375,406.6662,284.40192,406.61905Q284.40543,406.58792,284.33417,406.55667Q283.84494,406.398,283.66183,406.2874Q283.42816,406.1575,283.25287,405.97977Q282.8613,405.58356,282.7406,404.94006Q282.48907,403.58466,283.21527,400.2605 Z"/> </g> </g> </svg>